<svg width="596" height="158" viewBox="0 0 596 158" fill="none" xmlns="http://www.w3.org/2000/svg">
<path d="M544.051 53.9272L525.993 74.0902V53.9272H512.926V104.833H525.993V83.4038L545.322 104.833H562.2L538.425 78.159L560.476 53.9272H544.051Z" fill="#EF3124"/>
<path d="M489.885 72.9149H471.828V53.9273H458.76V104.833H471.828V84.7594H489.885V104.833H502.952V53.9273H489.885V72.9149Z" fill="#EF3124"/>
<mask id="mask0_9_3340" style="mask-type:luminance" maskUnits="userSpaceOnUse" x="33" y="33" width="530" height="108">
<path d="M33 33H562.2V141H33V33Z" fill="white"/>
</mask>
<g mask="url(#mask0_9_3340)">
<path d="M110.585 81.5042C110.273 90.9959 109.043 92.8971 103.69 92.8971V104.832H105.685C119.041 104.832 122.253 97.9595 122.745 82.6803L123.289 65.7719H135.812V104.832H148.879V53.9274H111.493L110.585 81.5042Z" fill="#EF3124"/>
<path d="M180.359 93.621H171.92V80.6909H180.359C184.897 80.6909 187.619 82.6804 187.619 86.9294C187.619 91.541 184.987 93.621 180.359 93.621ZM181.357 69.3885H171.92V53.9269H158.854V104.832H181.54C195.786 104.832 200.867 95.6098 200.867 86.9294C200.867 75.7182 193.79 69.3885 181.357 69.3885Z" fill="#EF3124"/>
<path d="M243.426 93.7114V64.9585C250.686 65.9529 255.222 71.378 255.222 79.3346C255.222 87.2912 250.686 92.7163 243.426 93.7114ZM230.359 93.7114C223.1 92.7163 218.562 87.2912 218.562 79.3346C218.562 71.378 223.1 65.9529 230.359 64.9585V93.7114ZM243.426 52.7514V33.8535H230.359V52.7514C215.387 54.0172 205.314 64.5966 205.314 79.3346C205.314 94.163 215.387 104.742 230.359 106.007V125.177H243.426V106.007C258.398 104.832 268.471 94.163 268.471 79.3346C268.471 64.5062 258.398 53.9268 243.426 52.7514Z" fill="#EF3124"/>
<path d="M304.406 85.8445C304.406 91.7219 300.232 95.0677 294.787 95.0677C290.068 95.0677 286.348 93.3496 286.348 88.2857C286.348 83.3129 290.431 82.4995 293.97 82.4995H304.406V85.8445ZM317.473 89.1903V72.1017C317.473 59.624 309.487 51.7564 296.058 51.7564C282.174 51.7564 274.824 60.0756 274.188 68.7559H287.437C287.89 66.8569 289.887 63.6023 296.058 63.6023C301.139 63.6023 304.406 65.953 304.406 72.1017H291.43C279.814 72.1017 272.917 78.1593 272.917 88.2857C272.917 98.8651 280.461 106.099 291.339 106.099C299.315 106.099 303.742 102.343 305.676 99.4976C307.4 102.933 311.211 104.832 316.202 104.832H320.739V93.0782C318.38 93.0782 317.473 91.9933 317.473 89.1903Z" fill="#EF3124"/>
<path d="M372.826 91.9933H358.852V73.5478H372.826C380.086 73.5478 384.169 76.8935 384.169 82.7702C384.169 88.8285 380.086 91.9933 372.826 91.9933ZM373.462 61.1598H358.852V46.7837H392.699V33.8536H345.149V104.832H373.462C389.16 104.832 398.144 97.0565 398.144 82.7702C398.144 69.2988 389.16 61.1598 373.462 61.1598Z" fill="#EF3124"/>
<path d="M435.076 85.8445C435.076 91.7219 430.902 95.0677 425.458 95.0677C420.739 95.0677 417.018 93.3496 417.018 88.2857C417.018 83.3129 421.102 82.4995 424.641 82.4995H435.076V85.8445ZM448.143 89.1903V72.1017C448.143 59.624 440.158 51.7564 426.728 51.7564C412.844 51.7564 405.494 60.0756 404.859 68.7559H418.107C418.56 66.8569 420.557 63.6023 426.728 63.6023C431.809 63.6023 435.076 65.953 435.076 72.1017H422.1C410.484 72.1017 403.588 78.1593 403.588 88.2857C403.588 98.8651 411.132 106.099 422.009 106.099C429.985 106.099 434.412 102.343 436.346 99.4976C438.07 102.933 441.881 104.832 446.873 104.832H451.41V93.0782C449.05 93.0782 448.143 91.9933 448.143 89.1903Z" fill="#EF3124"/>
<path d="M102.872 141H33V126.533H102.872V141Z" fill="#EF3124"/>
<path d="M57.9544 77.9782L67.7547 48.954H68.1171L77.3734 77.9782H57.9544ZM80.6368 43.5962C78.6445 37.6762 76.3485 33.0002 68.4803 33.0002C60.6127 33.0002 58.1686 37.6573 56.0717 43.5962L34.452 104.832H48.7896L53.7802 90.275H81.366L85.9934 104.832H101.239L80.6368 43.5962Z" fill="#EF3124"/>
</g>
</svg>
