<svg width="604" height="100" viewBox="0 0 604 100" fill="none" xmlns="http://www.w3.org/2000/svg">
<path d="M49.4012 35.5566C57.2639 35.5566 63.6733 42.0447 63.6733 49.9959C63.6733 57.9562 57.2639 64.4423 49.4012 64.4423C41.5386 64.4423 35.1306 57.9562 35.1306 49.9959C35.1306 42.0447 41.5386 35.5566 49.4012 35.5566Z" fill="#1A468E"/>
<path d="M3.50403 68.4603C1.24663 62.7437 0 56.5176 0 50.0002C0 43.489 1.24663 37.2524 3.50403 31.5373L35.1444 50.0002L3.50403 68.4603Z" fill="#F89C0E"/>
<path d="M49.4013 17.8481C66.8991 17.8481 81.1685 32.2897 81.1685 50.0002C81.1685 67.7023 66.8991 82.1514 49.4013 82.1514C37.6905 82.1514 27.428 75.6757 21.9247 66.0889L6.65015 75.0039C15.217 89.9258 31.1825 100 49.4013 100C76.6086 100 98.7984 77.5359 98.7984 50.0002C98.7984 22.461 76.6086 0.000896266 49.4013 0.000896266C31.1825 0.000896266 15.2142 10.0751 6.65015 24.9984L21.9156 33.9106C27.428 24.3183 37.6905 17.8481 49.4013 17.8481Z" fill="#1A468E"/>
<path d="M150.412 41.2954C150.412 35.9727 153.579 35.0199 158.705 35.0199C166.254 35.0199 167.127 37.475 167.127 44.778H154.323V54.2627H167.127C167.127 61.6274 166.254 64.9693 158.705 64.9693C153.107 64.9693 150.412 64.5602 150.412 58.558V57.0596H136.524V59.2389C136.524 73.9063 144.481 76.17 157.962 76.17C171.713 76.17 181.015 75.205 181.015 56.5119V43.2721C181.015 26.9024 172.991 23.8337 158.164 23.8337C144.75 23.8337 136.524 30.6553 136.524 41.2954H150.412Z" fill="#1A468E"/>
<path d="M200.698 35.4977H209.931C215.194 35.4977 216.003 37.2698 216.003 42.5225C216.003 49.1404 215.059 50.0992 209.931 50.0992H200.698V35.4977ZM200.698 61.2877H212.631C226.719 61.2877 229.886 56.7843 229.886 42.3851C229.886 29.0129 225.173 24.3058 212.631 24.3058H187.217V75.4801H200.698V61.2877Z" fill="#1A468E"/>
<path d="M280.202 36.1778H293.816V24.3058H253.101V36.1778H266.717V75.4801H280.202V36.1778Z" fill="#1A468E"/>
<path d="M311.818 35.4977H334.807V24.3058H298.333V75.4801H335.274V64.2932H311.818V54.3266H333.388V44.8424H311.818V35.4977Z" fill="#1A468E"/>
<path d="M348.287 24.3058V57.8743C348.287 62.9224 347.006 64.834 343.301 64.834C341.476 64.834 340.401 64.7682 339.185 64.3591V75.4143C341.273 75.8324 343.165 76.0348 346.06 76.0348C356.31 76.0348 361.095 68.8589 361.095 57.6684V36.1812H375.723V75.4801H389.204V24.3058H348.287Z" fill="#1A468E"/>
<path d="M410.235 35.4977H433.225V24.3058H396.752V75.4801H433.697V64.2932H410.235V54.3266H431.808V44.8424H410.235V35.4977Z" fill="#1A468E"/>
<path d="M454.797 24.3058H441.314V75.4801H454.797V55.424H458.841L472.931 75.4801H489.647L470.367 49.4171L488.166 24.3058H471.85L458.841 43.5465H454.797V24.3058Z" fill="#1A468E"/>
<path d="M511.846 64.2899C504.836 64.2899 502.345 63.2671 502.345 55.6196V44.0943C502.345 36.4544 504.836 35.7015 511.846 35.7015C518.858 35.7015 521.349 36.5176 521.349 44.0943V55.6196C521.349 63.2671 518.858 64.2899 511.846 64.2899ZM511.846 76.17C525.533 76.17 535.235 72.8837 535.235 57.1241V42.6619C535.235 26.8983 525.533 23.8337 511.846 23.8337C498.166 23.8337 488.457 26.8983 488.457 42.6619V57.1241C488.457 72.8837 498.166 76.17 511.846 76.17Z" fill="#1A468E"/>
<path d="M582.09 24.3058L572.924 56.4412H572.447L562.809 24.3058H541.44V75.4801H554.925L553.572 36.2471L554.183 36.1161L566.918 75.4801H578.579L591.258 36.1161L591.863 36.2471L590.513 75.4801H603.995V24.3058H582.09Z" fill="#1A468E"/>
<path d="M242.696 56.9231C239.376 55.3644 237.925 51.3486 239.469 47.9888C241.01 44.6324 244.979 43.166 248.297 44.7267C251.616 46.2867 253.067 50.2982 251.52 53.656C249.979 57.0202 246.013 58.4865 242.696 56.9231Z" fill="#F89C0E"/>
</svg>
