<svg width="273" height="273" viewBox="0 0 273 273" fill="none" xmlns="http://www.w3.org/2000/svg">
<path d="M50 222.908H222.908V49.9999H50V222.908Z" fill="url(#paint0_linear_9_3390)"/>
<path d="M73.3156 123.585H77.4495V149.222H73.3156V161.089H100.063V149.222H95.9198V123.585H100.063V111.721H73.3156V123.585Z" fill="white"/>
<path d="M126.564 130.691V123.585H133.698C135.591 123.585 137.181 125.221 137.181 127.124C137.181 129.008 135.535 130.691 133.641 130.691H126.564ZM133.951 149.303H126.564V141.908H133.974C136.092 141.908 137.677 143.715 137.677 145.6C137.677 147.494 136.201 149.303 133.951 149.303ZM147.288 135.427C148.233 135.151 153.965 132.34 153.965 124.065C153.965 117.678 149.007 111.721 140.448 111.721H105.459V123.585H109.598V149.222H105.459V161.089H121.872C128.371 161.089 137.589 161.089 142.89 161.089C149.25 161.089 155.619 155.188 155.619 147.225C155.619 141.833 152.298 137.569 147.281 135.601L147.288 135.427Z" fill="white"/>
<path d="M177.816 130.691C175.756 130.691 174.277 128.865 174.277 127.124C174.277 125.167 175.892 123.585 177.816 123.585H184.894V127.054H200.1C200.105 127.047 200.109 127.045 200.114 127.038V111.721H174.66C165.079 111.721 157.577 117.397 157.577 127.059C157.577 135.46 164.403 141.872 172.829 141.872H182.899C185.034 141.872 186.602 143.704 186.602 145.6C186.602 147.486 184.998 149.304 182.899 149.304H175.489V145.73H160.134V161.089H187.268L188.069 161.101C196.55 161.101 203.444 154.209 203.444 145.725C203.444 137.253 196.513 130.691 188.025 130.691H177.816Z" fill="white"/>
<defs>
<linearGradient id="paint0_linear_9_3390" x1="-39.7398" y1="133.168" x2="133.262" y2="-39.8339" gradientUnits="userSpaceOnUse">
<stop stop-color="#1F204A"/>
<stop offset="1" stop-color="#4A71C1"/>
</linearGradient>
</defs>
</svg>
