<svg width="587" height="273" viewBox="0 0 587 273" fill="none" xmlns="http://www.w3.org/2000/svg">
<mask id="mask0_9_3455" style="mask-type:luminance" maskUnits="userSpaceOnUse" x="531" y="50" width="6" height="173">
<path d="M531.044 222.908H537V50H531.044V222.908Z" fill="white"/>
</mask>
<g mask="url(#mask0_9_3455)">
<path d="M531.044 222.908H537V50H531.044V222.908Z" fill="url(#paint0_linear_9_3455)"/>
</g>
<path d="M273.556 86.9146L277.666 97.1087L281.346 86.9146H284.573V87.9482L279.733 100.213C278.748 102.738 277.437 104.782 274.69 104.782C273.43 104.782 272.8 104.478 272.8 104.478V101.778H273.832C274.74 101.778 275.321 101.602 275.75 101.197L269.926 87.9482V86.9146H273.556Z" fill="#284496"/>
<path d="M288.396 86.9146H293.692L297.623 98.6725H297.701L301.607 86.9146H306.825V104.578H302.942V91.4051H302.867L298.407 104.578H296.036L291.649 91.4051H291.574V104.578H288.396V86.9146Z" fill="#284496"/>
<path d="M312.336 104.578V86.9146H316.269V94.182H322.75V86.9146H326.681V104.578H322.75V96.9329H316.269V104.578H312.336Z" fill="#284496"/>
<path d="M332.194 86.9146H336.125V93.2736H338.269C342.631 93.2736 345.077 94.9899 345.077 98.9771C345.077 102.761 342.656 104.578 338.37 104.578H332.194V86.9146ZM336.125 96.0505V101.802H338.269C340.564 101.802 341.119 100.717 341.119 98.9262C341.119 97.1856 340.361 96.0505 338.269 96.0505H336.125ZM346.74 104.578V86.9146H350.673V104.578H346.74Z" fill="#284496"/>
<path d="M356.185 104.578V86.9146H360.017V99.1284H360.092L366.823 86.9146H371.008V104.578H367.175V92.3403H367.1L360.269 104.578H356.185ZM359.868 83.5078V82.5726H362.637C362.665 83.3798 362.814 83.9368 363.519 83.9368C364.227 83.9368 364.353 83.3798 364.404 82.5726H367.175V83.5078C366.926 84.7924 365.638 86.0294 363.519 86.0294C361.38 86.0294 360.118 84.7924 359.868 83.5078Z" fill="#284496"/>
<path d="M385.214 86.9146H391.264C395.424 86.9146 397.488 88.3531 397.488 91.5565C397.488 93.6786 396.228 94.8135 394.363 95.2158V95.3178C396.608 95.7469 398.148 96.9329 398.148 99.4295C398.148 102.738 395.775 104.578 391.463 104.578H385.214V86.9146ZM391.163 94.0565C392.852 94.0565 393.608 93.3479 393.608 91.8342C393.608 90.4216 392.852 89.6887 391.163 89.6887H389.07V94.0565H391.163ZM391.363 101.802C393.255 101.802 394.114 100.819 394.114 99.2539C394.114 97.6656 393.207 96.7063 391.363 96.7063H389.07V101.802H391.363Z" fill="#284496"/>
<path d="M402.802 86.9146H406.733V93.2736H408.877C413.239 93.2736 415.685 94.9899 415.685 98.9771C415.685 102.761 413.264 104.578 408.978 104.578H402.802V86.9146ZM406.733 96.0505V101.802H408.877C411.173 101.802 411.727 100.717 411.727 98.9262C411.727 97.1856 410.971 96.0505 408.877 96.0505H406.733ZM417.348 104.578V86.9146H421.281V104.578H417.348Z" fill="#284496"/>
<path d="M426.793 86.9146H438.262V89.6887H430.726V93.7529H433.021C437.456 93.7529 439.65 95.72 439.65 99.0005C439.65 102.585 437.33 104.578 433.021 104.578H426.793V86.9146ZM432.92 101.802C434.81 101.802 435.644 100.768 435.644 99.1016C435.644 97.4122 434.76 96.4798 432.92 96.4798H430.726V101.802H432.92Z" fill="#284496"/>
<path d="M441.916 95.7469C441.916 89.9181 445.872 86.7112 450.385 86.7112C454.895 86.7112 458.856 89.9181 458.856 95.7469C458.856 101.575 454.895 104.782 450.385 104.782C445.872 104.782 441.916 101.575 441.916 95.7469ZM454.822 95.8212C454.822 91.4823 452.955 89.489 450.385 89.489C447.787 89.489 445.947 91.4823 445.947 95.8212C445.947 100.139 447.787 102.055 450.385 102.055C452.955 102.055 454.822 100.139 454.822 95.8212Z" fill="#284496"/>
<path d="M462.527 86.9146H468.378C472.84 86.9146 475.385 88.681 475.385 92.54C475.385 96.3516 472.813 98.1933 468.275 98.1933H466.461V104.578H462.527V86.9146ZM466.461 95.5437H468.275C470.669 95.5437 471.429 94.4588 471.429 92.5912C471.429 90.6984 470.772 89.7389 468.275 89.7389H466.461V95.5437Z" fill="#284496"/>
<path d="M272.118 127.605H277.412L281.343 139.364H281.421L285.327 127.605H290.545V145.27H286.665V132.095H286.587L282.124 145.27H279.756L275.37 132.095H275.294V145.27H272.118V127.605Z" fill="#284496"/>
<path d="M296.056 127.605H307.677V130.457H299.939V134.948H305.485V137.647H299.939V142.492H307.957V145.27H296.056V127.605Z" fill="#284496"/>
<path d="M312.737 145.27V127.605H316.67V134.873H323.151V127.605H327.084V145.27H323.151V137.623H316.67V145.27H312.737Z" fill="#284496"/>
<path d="M338.698 127.605H344.722V145.27H340.791V138.884H338.798H338.521L334.84 145.27H331.36V144.235L335.195 137.978C333.101 137.244 331.917 135.653 331.917 133.258C331.917 129.723 334.361 127.605 338.698 127.605ZM340.791 130.406H338.798C336.73 130.406 335.873 131.541 335.873 133.258C335.873 134.998 336.73 136.184 338.798 136.184H340.791V130.406Z" fill="#284496"/>
<path d="M356.515 137.623H354.171V145.27H350.238V127.605H354.171V134.873H356.567C357.17 130.051 360.571 127.402 364.431 127.402C368.69 127.402 372.396 130.608 372.396 136.437C372.396 142.266 368.69 145.472 364.431 145.472C360.471 145.472 356.968 142.695 356.515 137.623ZM368.362 136.512C368.362 132.173 366.749 130.179 364.431 130.179C362.085 130.179 360.498 132.173 360.498 136.512C360.498 140.826 362.085 142.745 364.431 142.745C366.749 142.745 368.362 140.826 368.362 136.512Z" fill="#284496"/>
<path d="M396.888 148.804L396.384 145.27H376.065V127.605H379.999V142.492H384.967V127.605H388.898V142.492H393.864V127.605H397.795V142.492H399.813V148.804H396.888Z" fill="#284496"/>
<path d="M404.014 145.27V127.605H407.844V139.819H407.922L414.652 127.605H418.837V145.27H415.003V133.031H414.929L408.096 145.27H404.014Z" fill="#284496"/>
<path d="M423.57 144.158L428.433 136.059L423.643 128.716V127.605H427.4L431.305 133.812L434.787 127.605H437.937V128.716L433.45 136.336L438.517 144.158V145.27H434.787L430.55 138.556L426.745 145.27H423.57V144.158Z" fill="#284496"/>
<path d="M441.307 136.488C441.307 130.835 444.912 127.402 450.029 127.402C452.448 127.402 453.811 127.858 455.172 128.564V131.518H453.763C453.005 130.808 451.869 130.254 450.13 130.254C447.056 130.254 445.34 132.399 445.34 136.336C445.34 140.627 446.88 142.644 449.903 142.644C451.997 142.644 453.154 141.864 454.139 140.878H455.376V143.78C454.038 144.79 452.199 145.472 449.729 145.472C444.635 145.472 441.307 142.141 441.307 136.488Z" fill="#284496"/>
<path d="M465.478 127.605H471.502V145.27H467.569V138.884H465.579H465.302L461.62 145.27H458.141V144.235L461.973 137.978C459.882 137.244 458.698 135.653 458.698 133.258C458.698 129.723 461.142 127.605 465.478 127.605ZM467.569 130.406H465.579C463.51 130.406 462.654 131.541 462.654 133.258C462.654 134.998 463.51 136.184 465.579 136.184H467.569V130.406Z" fill="#284496"/>
<path d="M274.868 185.957V171.067H270.053V168.292H283.639V171.067H278.799V185.957H274.868Z" fill="#284496"/>
<path d="M287.59 168.292H299.213V171.144H291.473V175.635H297.018V178.334H291.473V183.179H299.49V185.957H287.59V168.292Z" fill="#284496"/>
<path d="M302.862 184.846L307.725 176.746L302.938 169.404V168.292H306.692L310.598 174.499L314.077 168.292H317.229V169.404L312.742 177.023L317.809 184.846V185.957H314.077L309.842 179.243L306.037 185.957H302.862V184.846Z" fill="#284496"/>
<path d="M322.037 185.957V168.292H325.97V175.561H332.451V168.292H336.382V185.957H332.451V178.311H325.97V185.957H322.037Z" fill="#284496"/>
<path d="M340.562 177.125C340.562 171.296 344.516 168.09 349.029 168.09C353.541 168.09 357.499 171.296 357.499 177.125C357.499 182.954 353.541 186.16 349.029 186.16C344.516 186.16 340.562 182.954 340.562 177.125ZM353.468 177.199C353.468 172.861 351.601 170.867 349.029 170.867C346.433 170.867 344.594 172.861 344.594 177.199C344.594 181.514 346.433 183.433 349.029 183.433C351.601 183.433 353.468 181.514 353.468 177.199Z" fill="#284496"/>
<path d="M370.879 171.144H366.697C366.697 171.144 366.419 175.939 365.764 180.659C365.285 184.115 364.225 186.16 361.552 186.16C360.269 186.16 359.74 185.856 359.74 185.856V183.156H360.596C361.529 183.156 361.98 182.172 362.285 180.051C362.839 175.736 363.293 168.292 363.293 168.292H374.812V185.957H370.879V171.144Z" fill="#284496"/>
<path d="M378.991 177.125C378.991 171.296 382.947 168.09 387.459 168.09C391.972 168.09 395.933 171.296 395.933 177.125C395.933 182.954 391.972 186.16 387.459 186.16C382.947 186.16 378.991 182.954 378.991 177.125ZM391.899 177.199C391.899 172.861 390.032 170.867 387.459 170.867C384.866 170.867 383.025 172.861 383.025 177.199C383.025 181.514 384.866 183.433 387.459 183.433C390.032 183.433 391.899 181.514 391.899 177.199Z" fill="#284496"/>
<path d="M400.109 168.292H411.099V171.067H404.039V185.957H400.109V168.292Z" fill="#284496"/>
<path d="M413.917 185.957V168.292H417.747V180.507H417.825L424.555 168.292H428.74V185.957H424.908V173.719H424.832L418.001 185.957H413.917Z" fill="#284496"/>
<path d="M434.254 185.957V168.292H438.084V180.507H438.161L444.892 168.292H449.077V185.957H445.242V173.719H445.169L438.338 185.957H434.254ZM437.932 164.886V163.95H440.706C440.734 164.758 440.881 165.315 441.588 165.315C442.296 165.315 442.42 164.758 442.473 163.95H445.242V164.886C444.992 166.174 443.707 167.407 441.588 167.407C439.447 167.407 438.187 166.174 437.932 164.886Z" fill="#284496"/>
<mask id="mask1_9_3455" style="mask-type:luminance" maskUnits="userSpaceOnUse" x="50" y="50" width="173" height="173">
<path fill-rule="evenodd" clip-rule="evenodd" d="M50 222.908H222.947V50H50V222.908Z" fill="white"/>
</mask>
<g mask="url(#mask1_9_3455)">
<path d="M50 222.908H222.947V50H50V222.908Z" fill="url(#paint1_linear_9_3455)"/>
</g>
<path d="M73.2899 123.583H77.4193V149.219H73.2899V161.087H100.008V149.219H95.8692V123.583H100.008V111.719H73.2899V123.583Z" fill="white"/>
<path d="M126.479 130.688V123.583H133.605C135.497 123.583 137.085 125.218 137.085 127.121C137.085 129.006 135.441 130.688 133.549 130.688H126.479ZM133.859 149.301H126.479V141.906H133.881C135.997 141.906 137.58 143.713 137.58 145.597C137.58 147.49 136.106 149.301 133.859 149.301ZM147.181 135.424C148.125 135.147 153.85 132.337 153.85 124.062C153.85 117.676 148.898 111.719 140.349 111.719H105.398V123.583H109.532V149.219H105.398V161.087H121.792C128.284 161.087 137.493 161.087 142.788 161.087C149.14 161.087 155.503 155.186 155.503 147.222C155.503 141.831 152.185 137.567 147.173 135.599L147.181 135.424Z" fill="white"/>
<path d="M177.675 130.688C175.617 130.688 174.14 128.862 174.14 127.121C174.14 125.165 175.753 123.583 177.675 123.583H184.745V127.051H199.934C199.94 127.045 199.943 127.042 199.949 127.036V111.719H174.523C164.952 111.719 157.458 117.395 157.458 127.057C157.458 135.457 164.277 141.869 172.694 141.869H182.752C184.886 141.869 186.452 143.701 186.452 145.597C186.452 147.484 184.849 149.301 182.752 149.301H175.351V145.727H160.013V161.086H187.117L187.917 161.098C196.388 161.098 203.275 154.207 203.275 145.722C203.275 137.251 196.351 130.688 187.872 130.688H177.675Z" fill="white"/>
<defs>
<linearGradient id="paint0_linear_9_3455" x1="526.653" y1="214.258" x2="526.653" y2="58.5618" gradientUnits="userSpaceOnUse">
<stop stop-color="#284496"/>
<stop offset="0.35" stop-color="#479ADA"/>
<stop offset="0.55" stop-color="#59C69E"/>
<stop offset="0.75" stop-color="#96D321"/>
<stop offset="1" stop-color="#FABC0D"/>
</linearGradient>
<linearGradient id="paint1_linear_9_3455" x1="-39.641" y1="133.166" x2="133.361" y2="-39.6459" gradientUnits="userSpaceOnUse">
<stop stop-color="#1F204A"/>
<stop offset="1" stop-color="#4A71C1"/>
</linearGradient>
</defs>
</svg>
