<svg width="528" height="169" viewBox="0 0 528 169" fill="none" xmlns="http://www.w3.org/2000/svg">
<path d="M243.966 84.2668C243.966 99.7161 234.602 107.02 222.883 107.02H215.722V97.7512H222.325C229.396 97.7512 234.107 93.9133 234.107 84.2696C234.107 74.626 229.652 69.9431 222.118 69.9431C214.584 69.9431 209.679 74.4369 209.679 84.0834V122.847H199.911V61.889H209.679V67.1333H211.073C214.328 62.734 219.142 60.7663 224.163 60.7663C234.952 60.7663 243.966 68.6313 243.966 84.2696V84.2668ZM179.782 80.2397L173.272 79.5839C168.156 79.117 165.459 77.7107 165.459 74.7148C165.459 71.1575 168.902 69.0981 173.829 69.0981C178.757 69.0981 182.2 71.5327 182.479 74.9955H191.874C191.501 66.1939 184.712 60.7634 173.923 60.7634C163.135 60.7634 155.694 66.5691 155.694 75.09C155.694 82.2074 160.158 86.793 170.299 87.8241L176.902 88.4799C180.903 88.8552 183.6 89.6972 183.6 93.5352C183.6 97.0008 181.088 99.527 174.484 99.527C168.404 99.527 165.405 96.7488 164.355 93.0254H154.192C155.205 101.538 162.307 108.142 174.484 108.142C185.924 108.142 193.364 102.056 193.364 93.0683C193.364 85.1088 188.155 81.0847 179.784 80.2397H179.782ZM281.789 93.0254C280.256 96.5683 276.597 99.2463 271.402 99.2463C264.24 99.2463 258.937 94.5634 258.937 84.4529C258.937 74.3424 263.868 69.4705 271.493 69.4705C278.281 69.4705 282.188 73.5892 282.56 79.77H264.98V86.8875H292.14V82.2046C292.14 69.1898 283.582 60.7634 271.399 60.7634C260.052 60.7634 249.17 68.5339 249.17 84.4529C249.17 100.372 260.052 108.142 271.399 108.142C281.778 108.142 289.178 101.707 291.477 93.0254H281.787H281.789ZM127.834 60.7663C117.139 60.7663 109.139 66.3858 108.209 74.9983H118.719C119.464 71.8162 122.346 69.4762 127.834 69.4762C134.905 69.4762 137.229 73.2225 137.229 77.8081V93.2574C133.229 97.8458 128.58 99.9996 123.928 99.9996C119.276 99.9996 115.743 97.6596 115.743 93.4464C115.743 89.2332 118.346 86.8932 123.37 86.8932H131.183V79.7758H123.092C111.93 79.7758 105.699 85.3952 105.699 94.0078C105.699 102.059 111.745 108.145 121.697 108.145C127.277 108.145 132.208 105.9 135.835 103.182H137.229V107.02H146.997V76.8686C146.997 65.727 139.463 60.7634 127.837 60.7634L127.834 60.7663ZM61.5705 107.02H71.338V45.2225H61.5705V107.02ZM102.589 61.889H90.6851L76.4536 80.7095V86.6096L91.055 107.02H103.147L86.0333 83.6109L102.589 61.889ZM455.638 61.889L447.64 79.7729C445.685 84.0806 443.828 88.2938 443.27 91.1035H441.873C441.315 88.2938 439.363 84.1751 437.409 79.8674L429.411 61.889H418.622L437.412 102.431L428.111 122.844H438.527L466.43 61.889H455.641H455.638ZM416.46 61.889H404.556L390.324 80.7095V86.6096L404.928 107.02H417.02L399.907 83.6109L416.463 61.889H416.46ZM355.314 80.2397L348.805 79.5839C343.689 79.117 340.992 77.7107 340.992 74.7148C340.992 71.1575 344.434 69.0981 349.362 69.0981C354.29 69.0981 357.733 71.5327 358.012 74.9955H367.406C367.034 66.1939 360.245 60.7634 349.456 60.7634C338.667 60.7634 331.227 66.5691 331.227 75.09C331.227 82.2074 335.691 86.793 345.831 87.8241L352.435 88.4799C356.435 88.8552 359.133 89.6972 359.133 93.5352C359.133 97.0008 356.62 99.527 350.017 99.527C343.937 99.527 340.938 96.7488 339.888 93.0254H329.725C330.738 101.538 337.839 108.142 350.017 108.142C361.457 108.142 368.897 102.056 368.897 93.0683C368.897 85.1088 363.688 81.0847 355.317 80.2397H355.314ZM375.444 107.02H385.211V45.2225H375.444V107.02ZM311.043 67.1333H309.649V61.889H299.882V107.02H309.649V83.4247C309.649 75.3735 313.345 70.6906 320.626 70.6906H326.809V60.7663H323.229C316.475 60.7663 313.604 63.3297 311.043 67.1333Z" fill="#1D1D1B"/>
</svg>
