<svg width="304" height="214" viewBox="0 0 304 214" fill="none" xmlns="http://www.w3.org/2000/svg">
<g clip-path="url(#clip0_21_32)">
<path d="M88.8597 120.586C84.9099 120.586 81.7501 119.238 79.1545 116.656C76.5589 114.073 75.3176 110.817 75.3176 107C75.3176 103.183 76.5589 99.9265 79.1545 97.3442C81.7501 94.7618 85.0228 93.4145 88.8597 93.4145C92.6967 93.4145 95.8565 94.7618 98.4521 97.3442C101.048 99.9265 102.289 103.183 102.289 107C102.289 110.93 101.048 114.073 98.4521 116.656C95.8565 119.238 92.6967 120.586 88.8597 120.586ZM196.407 2.91921C225.297 2.91921 251.478 14.596 270.437 33.4586C289.396 52.3211 301.133 78.3694 301.133 107.112C301.133 135.855 289.396 161.903 270.437 180.766C251.478 199.629 225.297 211.305 196.407 211.305C167.517 211.305 141.336 199.629 122.377 180.766C108.157 166.619 98.0007 148.43 93.8252 128.108C98.1135 127.322 101.725 125.413 104.885 122.382C109.173 118.115 111.204 113.063 111.204 107.112C111.204 101.162 109.173 96.1091 104.885 91.9549C101.838 88.9234 98.1135 87.0147 93.8252 86.2288C98.0007 65.9066 108.157 47.7177 122.377 33.5708C141.336 14.4837 167.517 2.91921 196.407 2.91921ZM91.0039 128.333C95.2922 149.328 105.675 168.079 120.345 182.675C139.756 201.986 166.727 214 196.407 214C226.087 214 252.945 201.986 272.469 182.675C291.879 163.363 303.954 136.529 303.954 107C303.954 77.4712 291.879 50.7492 272.469 31.3253C252.945 12.0136 226.087 3.8147e-06 196.407 3.8147e-06C166.727 3.8147e-06 139.868 12.0136 120.345 31.3253C105.675 45.9213 95.2922 64.6716 91.0039 85.6674C90.3268 85.6674 89.6497 85.5551 88.8597 85.5551C82.3144 85.5551 77.0104 87.5761 72.722 91.7303C68.4337 95.8846 66.4023 100.937 66.4023 106.888C66.4023 112.951 68.4337 118.003 72.722 122.157C77.0104 126.312 82.3144 128.333 88.8597 128.333C89.6497 128.445 90.3268 128.333 91.0039 128.333Z" fill="#AA232B"/>
<path d="M162.552 163.924C165.373 163.924 167.517 162.914 168.984 161.005V163.475H172.934V136.304H168.984V147.869C167.517 145.96 165.373 144.95 162.552 144.95C159.956 144.95 157.925 145.848 156.232 147.757C154.539 149.553 153.749 151.799 153.749 154.493C153.749 157.188 154.539 159.433 156.232 161.23C157.925 163.026 160.069 163.924 162.552 163.924ZM163.68 160.444C161.987 160.444 160.633 159.882 159.505 158.76C158.376 157.637 157.812 156.177 157.812 154.493C157.812 152.809 158.376 151.462 159.505 150.227C160.633 149.104 161.987 148.43 163.68 148.43C166.05 148.43 168.081 149.778 169.097 151.574V157.188C167.968 159.097 165.937 160.444 163.68 160.444ZM182.978 163.363V145.399H179.028V163.363H182.978ZM181.059 140.683C182.413 140.683 183.542 139.673 183.542 138.213C183.542 136.753 182.413 135.631 181.059 135.631C179.592 135.631 178.576 136.753 178.576 138.213C178.464 139.673 179.592 140.683 181.059 140.683ZM202.952 147.757C201.485 145.848 199.341 144.95 196.52 144.95C193.924 144.95 191.893 145.848 190.2 147.644C188.507 149.441 187.717 151.574 187.717 154.156C187.717 156.739 188.507 158.872 190.2 160.781C191.893 162.577 193.924 163.475 196.52 163.475C199.341 163.475 201.485 162.577 202.952 160.668V162.016C202.952 165.833 200.131 167.854 196.294 167.854C193.811 167.854 191.554 167.293 189.636 166.058V169.651C191.554 170.661 193.924 171.222 196.746 171.222C199.567 171.222 201.937 170.437 203.968 168.865C205.999 167.293 206.902 164.823 206.902 161.791V145.399H202.952V147.757ZM197.535 159.882C195.843 159.882 194.488 159.321 193.36 158.198C192.231 157.076 191.667 155.728 191.667 154.156C191.667 152.584 192.231 151.237 193.36 150.114C194.488 148.992 195.843 148.43 197.535 148.43C199.905 148.43 202.05 149.665 202.952 151.574V156.851C202.05 158.535 199.905 159.882 197.535 159.882ZM216.833 163.363V145.399H212.883V163.363H216.833ZM214.802 140.683C216.156 140.683 217.284 139.673 217.284 138.213C217.284 136.753 216.156 135.631 214.802 135.631C213.335 135.631 212.319 136.753 212.319 138.213C212.319 139.673 213.335 140.683 214.802 140.683ZM224.733 158.535C224.733 162.016 226.877 163.924 230.262 163.924C232.068 163.924 233.422 163.588 234.325 163.026V159.658C233.422 160.107 232.632 160.332 231.617 160.332C229.698 160.332 228.795 159.433 228.795 157.412V148.879H234.551V145.399H228.795V140.122H224.845V145.399H221.009V148.879H224.845L224.733 158.535ZM255.88 160.332C254.977 160.332 254.412 159.658 254.412 158.535V151.799C254.412 147.42 251.027 144.95 246.061 144.95C243.466 144.95 241.322 145.511 239.403 146.522V150.002C241.096 148.992 243.014 148.43 245.159 148.43C248.657 148.43 250.463 149.778 250.463 152.36V153.37C248.77 152.472 246.851 152.023 244.707 152.023C242.676 152.023 240.983 152.584 239.516 153.595C238.162 154.605 237.372 156.065 237.372 157.974C237.372 159.882 238.049 161.342 239.29 162.465C240.532 163.475 242.225 164.037 244.143 164.037C246.964 164.037 249.108 163.139 250.801 161.23C251.253 162.914 252.607 163.812 254.638 163.812C255.654 163.812 256.444 163.588 257.008 163.251V160.219C256.669 160.219 256.331 160.332 255.88 160.332ZM250.463 158.311C249.334 159.546 247.416 160.444 245.272 160.444C242.902 160.444 241.322 159.546 241.322 157.637C241.322 155.84 242.902 154.83 245.61 154.83C247.303 154.83 248.883 155.279 250.463 156.065V158.311ZM265.472 163.924C266.6 163.924 267.616 163.7 268.406 163.363V159.995C267.955 160.219 267.503 160.332 266.939 160.332C265.585 160.332 264.908 159.546 264.908 158.086V136.304H260.958V159.209C260.958 162.577 262.876 163.924 265.472 163.924ZM9.18684 127.322V83.3095L25.4374 105.204H30.7414L46.992 83.3095V127.322H56.1329V69.3872H46.992L28.2587 95.4355L9.41255 69.3872H0.0458984V127.322H9.18684ZM130.615 127.322V102.397C132.533 98.1301 137.611 94.425 144.044 94.425C144.947 94.425 145.737 94.5372 146.527 94.5372V85.5551C146.301 85.4428 146.075 85.4428 145.737 85.4428C139.417 85.4428 133.436 88.8111 130.728 93.5268V86.4533H121.699V127.098L130.615 127.322ZM163.906 127.322V86.6779H154.878V127.322H163.906ZM159.392 79.3799C162.439 79.3799 164.921 77.022 164.921 73.766C164.921 70.51 162.439 68.0399 159.392 68.0399C156.119 68.0399 153.749 70.51 153.749 73.766C153.749 77.022 156.232 79.3799 159.392 79.3799ZM197.084 120.586C193.134 120.586 189.974 119.238 187.379 116.656C184.783 114.073 183.542 110.817 183.542 107C183.542 103.183 184.783 99.9265 187.379 97.3442C189.974 94.7618 193.247 93.4145 197.084 93.4145C200.921 93.4145 204.081 94.7618 206.676 97.3442C209.272 99.9265 210.513 103.183 210.513 107C210.513 110.93 209.272 114.073 206.676 116.656C204.081 119.238 200.921 120.586 197.084 120.586ZM197.084 128.445C203.517 128.445 208.933 126.424 213.109 122.27C217.397 118.003 219.429 112.951 219.429 107C219.429 101.049 217.397 95.9969 213.109 91.8426C208.821 87.6884 203.517 85.6674 197.084 85.6674C190.539 85.6674 185.235 87.6884 180.946 91.8426C176.658 95.9969 174.627 101.049 174.627 107C174.627 113.063 176.658 118.115 180.946 122.27C185.122 126.312 190.426 128.445 197.084 128.445ZM238.275 100.6C240.645 96.8951 245.272 93.9759 249.786 93.9759C255.09 93.9759 259.378 96.5582 259.378 104.53V127.322H268.406V102.509C268.406 91.9549 262.876 85.6674 253.284 85.6674C247.303 85.6674 242.337 87.8006 238.275 92.1794V86.7901H229.247V127.434H238.275V100.6Z" fill="#2B2A29"/>
</g>
<defs>
<clipPath id="clip0_21_32">
<rect width="304" height="214" fill="white"/>
</clipPath>
</defs>
</svg>
