<svg width="412" height="194" viewBox="0 0 412 194" fill="none" xmlns="http://www.w3.org/2000/svg">
<path d="M216.841 66.5565C216.841 57.5022 209.564 50.2587 200.469 50H169.803V54.9152V97.0826H182.277V82.8543H193.192L204.367 97.0826H217.62L205.926 81.8196C212.163 79.4913 216.841 73.5413 216.841 66.5565ZM182.277 60.3478H198.909H199.949H200.469C203.587 60.3478 206.186 63.1935 206.186 66.2978C206.186 69.4022 203.587 71.9891 200.469 72.2478H200.209H198.909H182.277V60.3478Z" fill="#ED1C24"/>
<path d="M80.6654 50H50V97.0826H62.4741V82.8543H80.4056C89.5012 82.8543 97.0376 75.3522 97.0376 66.2978C96.7778 57.5022 89.5012 50.2587 80.6654 50ZM80.4056 72.5065H78.8463H62.2142V60.3478H78.8463H79.8858H80.4056C83.5241 60.3478 86.1228 63.1935 86.1228 66.2978C86.3827 69.6609 83.784 72.2478 80.4056 72.5065Z" fill="#ED1C24"/>
<path d="M134.72 50H122.506L101.456 97.0826H113.67L116.269 91.1326H140.957L143.556 97.0826H155.77L134.72 50ZM136.279 80.5261H121.206L128.743 63.7109L136.279 80.5261Z" fill="#ED1C24"/>
<path d="M348.858 97.0826H361.072L340.022 50H327.808L306.758 97.0826H318.972L321.571 91.1326H345.999L348.858 97.0826ZM326.249 80.5261L333.785 63.7109L341.322 80.5261H326.249Z" fill="#ED1C24"/>
<path d="M264.398 73.0239L248.286 50H235.812V97.0826H248.026V69.9196L264.398 92.9435L280.51 69.9196V97.0826H292.725V50H280.51L264.398 73.0239Z" fill="#ED1C24"/>
<path d="M351.717 119.589C349.898 119.589 348.078 119.848 346.519 120.365V132.007C346.519 133.817 348.858 134.593 351.717 134.593C356.135 134.593 357.434 133.041 357.434 127.091C357.434 120.624 356.135 119.589 351.717 119.589ZM351.717 136.922C349.118 136.922 347.559 136.146 346.519 135.37V143.389H344.18V118.813C346.259 117.778 349.378 117.261 351.717 117.261C357.434 117.261 360.033 119.33 360.033 126.833C360.033 134.593 357.434 136.922 351.717 136.922ZM336.644 117.778H338.983V135.37C336.904 136.404 333.785 136.922 331.446 136.922C325.989 136.922 324.17 135.111 324.17 128.385V118.037H326.509V127.867C326.509 133.559 327.808 134.593 331.706 134.593C333.525 134.593 335.085 134.335 336.384 133.817V117.778H336.644ZM311.176 119.589C315.594 119.589 316.893 120.883 316.893 127.091C316.893 133.041 315.334 134.593 311.176 134.593C306.758 134.593 305.459 133.041 305.459 127.091C305.459 120.624 306.758 119.589 311.176 119.589ZM311.176 136.922C316.893 136.922 319.752 134.593 319.752 127.091C319.752 119.589 317.153 117.52 311.176 117.52C305.459 117.52 302.86 119.589 302.86 127.091C302.6 134.593 305.459 136.922 311.176 136.922ZM298.182 117.261C295.583 117.261 293.764 118.296 292.985 119.072V117.778H290.646V136.146H292.985V121.917C292.985 120.107 295.323 119.589 298.182 119.589C298.962 119.589 299.481 119.589 300.001 119.848V117.52C299.481 117.261 298.962 117.261 298.182 117.261ZM277.912 119.589C279.731 119.589 281.55 119.848 283.109 120.365V132.007C283.109 133.817 280.77 134.593 277.912 134.593C273.494 134.593 272.194 133.041 272.194 127.091C272.194 120.624 273.494 119.589 277.912 119.589ZM285.448 118.813C283.369 117.778 280.251 117.261 277.912 117.261C272.194 117.261 269.596 119.33 269.596 126.833C269.596 134.335 272.194 136.663 277.912 136.663C280.51 136.663 282.07 135.887 283.109 135.111C283.109 140.026 280.77 141.32 276.352 141.32C275.053 141.32 272.454 140.802 271.155 140.285L270.375 142.613C271.675 143.13 274.793 143.648 276.352 143.648C282.07 143.648 285.448 141.837 285.448 134.852V118.813ZM252.964 120.624L253.743 118.296C251.664 117.778 249.325 117.261 247.766 117.261C242.828 117.261 240.49 118.554 240.49 122.952C240.49 126.315 242.828 127.609 247.506 127.867C251.144 128.126 252.184 129.161 252.184 130.972C252.184 133.817 250.625 134.335 247.506 134.335C245.687 134.335 242.828 133.817 241.529 133.3L240.749 135.628C242.569 136.146 245.687 136.663 247.506 136.663C252.444 136.663 254.783 135.111 254.783 130.972C254.783 127.609 252.704 126.057 248.026 125.798C244.648 125.539 243.348 124.763 243.348 122.952C243.348 120.107 244.907 119.589 248.026 119.589C249.585 119.589 251.404 119.848 252.964 120.624ZM229.055 119.589C232.433 119.589 233.733 120.624 233.993 125.28H223.598C223.598 120.883 225.157 119.589 229.055 119.589ZM229.055 117.261C223.598 117.261 220.739 119.589 220.739 126.833C220.739 134.335 223.857 136.663 229.315 136.663C230.874 136.663 233.473 136.146 235.292 135.628L234.772 133.559C233.213 134.076 230.874 134.593 229.575 134.593C225.157 134.593 223.338 133.3 223.338 127.35H236.591C236.591 119.33 234.252 117.261 229.055 117.261ZM215.022 110.793C213.722 110.793 213.462 111.052 213.462 112.346C213.462 113.639 213.722 113.898 215.022 113.898C216.061 113.898 216.581 113.639 216.581 112.346C216.321 111.052 216.061 110.793 215.022 110.793ZM216.061 136.404H213.722V118.037H216.061V136.404ZM200.988 119.589C202.807 119.589 204.627 119.848 206.186 120.365V132.007C206.186 133.817 203.847 134.593 200.988 134.593C196.57 134.593 195.271 133.041 195.271 127.091C195.271 120.624 196.57 119.589 200.988 119.589ZM208.525 118.813C206.446 117.778 203.327 117.261 200.988 117.261C195.271 117.261 192.672 119.33 192.672 126.833C192.672 134.335 195.271 136.663 200.988 136.663C203.587 136.663 205.146 135.887 206.186 135.111C206.186 140.026 203.847 141.32 199.429 141.32C198.13 141.32 195.531 140.802 194.231 140.285L193.452 142.613C194.751 143.13 197.87 143.648 199.429 143.648C205.146 143.648 208.525 141.837 208.525 134.852V118.813ZM179.938 119.589C184.356 119.589 185.656 120.883 185.656 127.091C185.656 133.041 184.096 134.593 179.938 134.593C175.52 134.593 174.221 133.041 174.221 127.091C174.221 120.624 175.52 119.589 179.938 119.589ZM179.938 136.922C185.656 136.922 188.514 134.593 188.514 127.091C188.514 119.589 185.915 117.52 179.938 117.52C174.221 117.52 171.622 119.589 171.622 127.091C171.622 134.593 174.221 136.922 179.938 136.922ZM166.685 109.759H164.346V131.489C164.346 134.076 165.125 135.37 166.685 136.922L168.504 135.37C167.204 134.076 166.685 133.3 166.685 131.489V109.759ZM151.092 119.589C155.51 119.589 156.809 120.883 156.809 127.091C156.809 133.041 155.25 134.593 151.092 134.593C146.674 134.593 145.375 133.041 145.375 127.091C145.375 120.624 146.934 119.589 151.092 119.589ZM151.092 136.922C156.809 136.922 159.668 134.593 159.668 127.091C159.668 119.589 157.069 117.52 151.092 117.52C145.375 117.52 142.776 119.589 142.776 127.091C142.776 134.593 145.375 136.922 151.092 136.922ZM125.884 120.107C127.443 119.589 128.743 119.589 130.562 119.589C134.72 119.589 136.019 120.624 136.019 126.315V136.146H138.358V125.798C138.358 119.072 136.539 117.261 131.081 117.261C128.743 117.261 125.624 117.778 123.545 118.813V136.404H125.884V120.107ZM111.331 117.261C108.992 117.261 106.913 118.037 105.873 118.813V110.017H103.535V136.404H105.873V122.176C105.873 120.365 108.472 119.589 111.071 119.589C114.709 119.589 116.009 120.624 116.009 126.315V136.146H118.348V125.798C118.348 119.072 116.269 117.261 111.331 117.261ZM99.1167 133.559C97.8173 134.076 96.258 134.593 94.6988 134.593C90.2809 134.593 88.4617 133.041 88.4617 127.091C88.4617 120.883 90.5407 119.589 94.6988 119.589C96.258 119.589 97.8173 119.848 99.1167 120.365L99.8963 118.037C98.5969 117.52 96.258 117.002 94.6988 117.002C88.9815 117.002 85.863 119.072 85.863 126.574C85.863 134.076 88.9815 136.404 94.6988 136.404C96.258 136.404 98.5969 135.887 99.8963 135.37L99.1167 133.559ZM74.1685 119.589C77.5469 119.589 78.8463 120.624 79.1062 125.28H68.7111C68.7111 120.883 70.2704 119.589 74.1685 119.589ZM74.1685 117.261C68.7111 117.261 65.8525 119.589 65.8525 126.833C65.8525 134.335 68.971 136.663 74.4284 136.663C75.9877 136.663 78.5864 136.146 80.4056 135.628L79.8858 133.559C78.3265 134.076 75.9877 134.593 74.6883 134.593C70.2704 134.593 68.4512 133.3 68.4512 127.35H81.7049C81.7049 119.33 79.366 117.261 74.1685 117.261ZM55.7173 130.196C55.7173 133.3 56.4969 134.593 59.0957 134.593C60.3951 134.593 61.6944 134.335 62.7339 134.076L63.2537 136.146C62.2142 136.404 60.3951 136.922 59.0957 136.922C54.9377 136.922 53.3784 135.628 53.3784 130.196V120.107H50V118.037H53.3784V114.157L55.7173 113.122V118.037H62.4741V120.107H55.7173V130.196Z" fill="#999999"/>
</svg>
