<svg width="422" height="99" viewBox="0 0 422 99" fill="none" xmlns="http://www.w3.org/2000/svg">
<path fill-rule="evenodd" clip-rule="evenodd" d="M195.195 55.9712C188.311 59.1589 184.82 65.6874 184.82 75.3541V75.5048C184.872 89.9791 192.412 97.5222 207.037 97.5222H223.991V88.211H208.506C200.966 88.211 197.929 87.4976 197.726 80.2652H223.991V70.9492H197.726C197.929 64.0676 201.166 62.7021 208.709 62.7021H223.991V53.7464H207.037C202.333 53.7464 198.385 54.5045 195.195 55.9712Z" fill="black"/>
<path fill-rule="evenodd" clip-rule="evenodd" d="M172.676 72.5243C180.469 70.6479 184.519 65.1341 184.62 55.9735V55.6722C184.62 43.2203 178.042 37.6547 164.022 37.6547H133.049V97.5269H145.498V73.8898H160.225L161.136 75.5095L173.536 97.5269H187.452L174.447 75.5095L172.676 72.5243ZM160.985 63.4131H145.498V48.4845H160.985C168.173 48.4845 171.97 49.5981 172.02 55.9735V56.0748C172.017 61.944 168.222 63.4131 160.985 63.4131ZM252.487 74.8997L270.604 55.9712L272.727 53.7464H257.904L255.927 55.9712L239.376 74.8503V37.6523H227.689V97.5246H239.376V76.317L257.191 97.5246H272.727L253.043 75.5072L252.487 74.8997Z" fill="black"/>
<path fill-rule="evenodd" clip-rule="evenodd" d="M300.11 70.6479H289.782C285.989 70.6479 284.066 69.4849 284.066 66.6526C284.066 62.907 286.898 62.7045 292.108 62.7045H312.708V53.7487H287.656C283.3 53.7487 279.913 54.455 277.433 55.9735C273.838 58.0995 272.117 61.7934 272.117 67.1588C272.117 70.9516 272.725 73.6379 274.039 75.559C276.268 78.8456 280.619 79.7614 287.451 79.7614H297.318C301.723 79.7614 303.545 80.9762 303.545 84.0604C303.545 87.2975 301.725 88.2133 297.318 88.2133H272.873V97.5246H302.938C309.619 97.5246 314.879 91.9567 314.879 83.7072C314.879 80.3194 314.069 77.5813 312.501 75.5095C310.081 72.3218 305.876 70.6479 300.11 70.6479ZM352.237 55.9712C348.792 54.0995 344.644 53.0872 339.886 53.0872C334.98 53.0872 330.725 54.0995 327.236 55.9712C320.352 59.5639 316.458 66.4478 316.458 75.3541V75.5048C316.508 89.221 325.416 98.4828 339.886 98.4828C353.958 98.4828 362.763 89.221 362.812 75.5048V75.3541C362.812 66.4502 358.963 59.5662 352.237 55.9712ZM339.733 88.769C332.955 88.769 328.501 84.1098 328.449 75.5072V75.3565C328.449 67.0576 332.905 62.2501 339.733 62.2501C346.464 62.2501 350.869 67.0576 350.869 75.3565V75.5072C350.815 84.1121 346.414 88.769 339.733 88.769Z" fill="black"/>
<path fill-rule="evenodd" clip-rule="evenodd" d="M129.607 97.3221H0L66.3466 0L129.607 97.3221Z" fill="#CC2229"/>
<path fill-rule="evenodd" clip-rule="evenodd" d="M0.150635 97.3221L102.784 86.3417L129.708 97.3221H0.150635ZM409.267 53.7464V37.6523H397.578V53.7464H380.726V50.2031C380.726 47.1661 382.496 46.2032 386.294 46.2032H391.711V37.6523H380.726C371.262 37.6523 368.886 40.1832 368.886 49.292V53.7464H360.535V62.2477H368.886V97.5246H380.726V62.2477H397.578V83.7048C397.578 92.7124 402.489 97.5222 410.84 97.5222H421.467V88.7666H416.711C410.84 88.7666 409.267 86.1321 409.267 79.8085V62.2454H421.467V53.744H409.267V53.7464Z" fill="black"/>
</svg>
