<svg width="706" height="195" viewBox="0 0 706 195" fill="none" xmlns="http://www.w3.org/2000/svg">
<g clip-path="url(#clip0_4_90)">
<path d="M685.997 195H20.0029C8.9701 195 0 186.032 0 175.001V19.9988C0 8.96827 8.9701 0 20.0029 0H685.997C697.03 0 706 8.96827 706 19.9988V175.001C706 186.032 697.03 195 685.997 195Z" fill="#FFDD2D"/>
<path d="M60.0085 51.6515H160.023V101.96C160.023 114.861 153.163 126.755 141.987 133.229L110.04 151.693L78.0927 133.229C66.916 126.803 60.0565 114.861 60.0565 101.96V51.6515H60.0085Z" fill="white"/>
<path fill-rule="evenodd" clip-rule="evenodd" d="M87.4465 78.1247V93.7592C89.6051 91.3613 93.4906 89.7307 97.9037 89.7307H102.748V107.907C102.748 112.751 101.453 116.971 99.4866 119.321H120.497C118.53 116.971 117.235 112.751 117.235 107.907V89.7307H122.08C126.541 89.7307 130.426 91.3613 132.537 93.7592V78.1247H87.4465Z" fill="#333333"/>
<path d="M612.366 75.7747V79.9471C628.195 80.2828 637.645 86.9491 637.645 98.699C637.645 110.449 628.195 116.588 612.366 116.971V121.144H599.846V116.971C584.112 116.636 574.662 110.497 574.662 98.699C574.662 86.9491 584.112 80.2828 599.846 79.9471V75.7747H612.366ZM599.846 108.147V88.8674C591.211 89.2032 587.374 93.1837 587.374 98.7469C587.374 104.262 591.211 107.811 599.846 108.147ZM612.366 88.8674V108.147C621.096 107.811 624.837 104.262 624.837 98.699C624.837 93.1837 621.144 89.2032 612.366 88.8674Z" fill="#333333"/>
<path d="M545.402 75.7747V79.9471C561.231 80.2828 570.681 86.9491 570.681 98.699C570.681 110.449 561.231 116.588 545.402 116.971V121.144H532.882V116.971C517.148 116.636 507.698 110.497 507.698 98.699C507.698 86.9491 517.148 80.2828 532.882 79.9471V75.7747H545.402ZM532.834 108.147V88.8674C524.2 89.2032 520.362 93.1837 520.362 98.7469C520.41 104.262 524.2 107.811 532.834 108.147ZM545.402 88.8674V108.147C554.132 107.811 557.873 104.262 557.873 98.699C557.873 93.1837 554.132 89.2032 545.402 88.8674Z" fill="#333333"/>
<path d="M476.711 77.0217C493.5 77.0217 503.621 86.5175 503.621 98.7949C503.621 111.072 493.5 120.568 476.711 120.568C459.826 120.568 449.704 111.072 449.704 98.7949C449.752 86.5175 459.874 77.0217 476.711 77.0217ZM476.711 110.545C485.009 110.545 490.478 105.509 490.478 98.7949C490.478 92.0327 485.009 87.1409 476.711 87.1409C468.316 87.1409 462.944 92.0807 462.944 98.7949C462.944 105.557 468.316 110.545 476.711 110.545Z" fill="#333333"/>
<path d="M419.244 103.735H415.791V119.321H403.271V78.1727H415.791V93.6633H419.244L434.402 78.1727H450.136L430.085 97.8357L450.952 119.273H434.259L419.244 103.735Z" fill="#333333"/>
<path d="M378.183 119.321H352.76V78.1727H365.328V89.2031H378.231C381.349 89.2031 384.611 89.2991 387.393 90.3062C393.198 92.4643 396.843 97.2122 396.843 104.07C396.843 111.264 392.622 116.54 386.098 118.362C383.604 119.033 381.014 119.321 378.183 119.321ZM375.977 98.8908H365.232V109.346H375.977C378.135 109.346 379.527 109.346 380.918 108.722C382.884 107.859 384.131 106.037 384.131 103.879C384.131 101.816 382.932 100.09 380.822 99.3704C379.383 98.8908 377.704 98.8908 375.977 98.8908Z" fill="#333333"/>
<path d="M330.695 103.974H310.548V119.273H298.028V78.1247H310.548V93.1837H330.695V78.1247H343.214V119.273H330.695V103.974Z" fill="#333333"/>
<path d="M255.768 102.104L277.402 78.1247H288.482V119.273H275.963V95.2939L254.329 119.273H243.248V78.1247H255.768V102.104Z" fill="#333333"/>
<path d="M220.223 119.321H207.224V89.1552H189.38V78.1727H238.02V89.1552H220.223V119.321Z" fill="#333333"/>
</g>
<defs>
<clipPath id="clip0_4_90">
<rect width="706" height="195" fill="white"/>
</clipPath>
</defs>
</svg>
