<svg width="444" height="100" viewBox="0 0 444 100" fill="none" xmlns="http://www.w3.org/2000/svg">
<g clip-path="url(#clip0_22_50)">
<path d="M46.6608 25.716C53.7548 25.716 59.506 19.9592 59.506 12.858C59.506 5.75671 53.7548 0 46.6608 0C39.5666 0 33.8157 5.75671 33.8157 12.858C33.8157 19.9592 39.5666 25.716 46.6608 25.716Z" fill="#20AFE6"/>
<path d="M84.9096 43.1442C91.0073 43.1442 95.9504 38.196 95.9504 32.0922C95.9504 25.9886 91.0073 21.0405 84.9096 21.0405C78.812 21.0405 73.8689 25.9886 73.8689 32.0922C73.8689 38.196 78.812 43.1442 84.9096 43.1442Z" fill="#134E9D"/>
<path d="M84.9097 80.9364C90.5758 80.9364 95.1692 76.3384 95.1692 70.6667C95.1692 64.9947 90.5758 60.3967 84.9097 60.3967C79.2433 60.3967 74.6501 64.9947 74.6501 70.6667C74.6501 76.3384 79.2433 80.9364 84.9097 80.9364Z" fill="#0E66AF"/>
<path d="M46.6608 98.9535C51.6311 98.9535 55.6606 94.9202 55.6606 89.9446C55.6606 84.9693 51.6311 80.936 46.6608 80.936C41.6902 80.936 37.6609 84.9693 37.6609 89.9446C37.6609 94.9202 41.6902 98.9535 46.6608 98.9535Z" fill="#0B7CC0"/>
<path d="M8.12513 78.7998C12.6125 78.7998 16.2503 75.1584 16.2503 70.6664C16.2503 66.1747 12.6125 62.5333 8.12513 62.5333C3.63776 62.5333 0 66.1747 0 70.6664C0 75.1584 3.63776 78.7998 8.12513 78.7998Z" fill="#1892D1"/>
<path d="M8.12445 39.2347C12.065 39.2347 15.2594 36.0371 15.2594 32.0927C15.2594 28.1482 12.065 24.9504 8.12445 24.9504C4.18393 24.9504 0.989502 28.1482 0.989502 32.0927C0.989502 36.0371 4.18393 39.2347 8.12445 39.2347Z" fill="#55B3E5"/>
<path d="M64.1096 61.4211L46.6655 51.3771V31.4431L64.1096 41.4873V61.4211Z" fill="#134E9D"/>
<path d="M29.2163 61.4211L46.6657 51.3771V31.4431L29.2163 41.4873V61.4211Z" fill="#20AFE6"/>
<path d="M46.6438 51.3766L29.2163 61.4206L46.6438 71.4649L64.0767 61.4206L46.6438 51.3766Z" fill="#0B7CC0"/>
<path d="M146.725 71.4431C143.928 71.4962 141.141 71.0907 138.474 70.2427C136.298 69.5454 134.311 68.3587 132.665 66.7736C131.1 65.2078 129.926 63.2949 129.237 61.1898C128.449 58.7507 128.068 56.198 128.11 53.6347V31.8505H132.51V53.6347C132.478 55.632 132.759 57.6218 133.341 59.5322C133.837 61.1587 134.705 62.6465 135.877 63.8771C137.112 65.1127 138.619 66.0405 140.278 66.5862C144.456 67.8198 148.901 67.8198 153.079 66.5862C154.764 66.0511 156.297 65.1225 157.552 63.8771C158.735 62.6454 159.615 61.1538 160.121 59.5214C160.703 57.6109 160.984 55.6209 160.951 53.6238V31.8505H165.352V53.6347C165.4 56.1965 165.029 58.7487 164.252 61.1898C163.56 63.2969 162.38 65.2102 160.808 66.7736C159.158 68.354 157.172 69.54 154.999 70.2427C152.326 71.0958 149.531 71.5014 146.725 71.4431Z" fill="black"/>
<path d="M203.161 59.0258H180.392L173.972 70.898H169.159L190.338 31.8505H193.22L214.411 70.898H209.592L203.161 59.0258ZM182.515 55.1049H201.038L191.79 37.996L182.515 55.1049Z" fill="black"/>
<path d="M248.061 31.8505H252.874L232.23 70.898H229.346L208.701 31.8505H213.514L230.787 64.7416L248.061 31.8505Z" fill="black"/>
<path d="M258.854 70.898V31.8505H283.769C285.878 31.8142 287.978 32.1287 289.985 32.7811C291.668 33.3274 293.215 34.2222 294.53 35.4078C295.76 36.5531 296.714 37.9636 297.318 39.5322C298.588 43.0178 298.588 46.8398 297.318 50.3254C296.71 51.8891 295.757 53.2954 294.53 54.4387C293.215 55.6242 291.668 56.5191 289.985 57.0654C287.978 57.7131 285.878 58.0258 283.769 57.9905H266.198V70.898H258.854ZM266.198 37.996V51.8396H283.769C284.879 51.8749 285.985 51.6876 287.019 51.2889C287.856 50.9478 288.607 50.4271 289.222 49.7636C289.79 49.1269 290.214 48.376 290.469 47.5609C290.998 45.8574 290.998 44.0331 290.469 42.3296C290.214 41.5147 289.79 40.7636 289.222 40.1271C288.609 39.4618 287.859 38.9409 287.019 38.6016C285.985 38.2011 284.879 38.0138 283.769 38.0511L266.198 37.996Z" fill="black"/>
<path d="M305.61 70.898V31.8505H330.276C332.407 31.816 334.532 32.1056 336.574 32.7096C338.257 33.2051 339.818 34.0454 341.156 35.1765C342.377 36.2256 343.336 37.5456 343.958 39.0311C344.619 40.6578 344.946 42.4016 344.919 44.1578C344.957 45.6929 344.688 47.2202 344.133 48.6511C343.649 49.8545 342.948 50.9578 342.064 51.9056C341.227 52.7885 340.253 53.5318 339.183 54.1082C338.155 54.6745 337.071 55.1302 335.948 55.4685L344.975 70.8869H336.916L328.482 56.454H312.947V70.8869L305.61 70.898ZM312.947 37.996V50.3142H330.276C332.565 50.3142 334.341 49.8278 335.606 48.8549C336.872 47.8822 337.509 46.3165 337.515 44.1578C337.515 42.014 336.878 40.4538 335.606 39.4771C334.334 38.5007 332.556 38.0069 330.276 37.996H312.947Z" fill="black"/>
<path d="M375.726 71.7127C372.019 71.78 368.325 71.2653 364.777 70.1873C361.911 69.3151 359.247 67.8771 356.945 65.9582C354.891 64.2073 353.275 62.0013 352.225 59.5156C350.121 54.2922 350.121 48.4556 352.225 43.2324C353.277 40.7489 354.894 38.5449 356.945 36.7951C359.249 34.8767 361.911 33.4371 364.777 32.5604C371.93 30.5269 379.509 30.5269 386.662 32.5604C389.534 33.4333 392.203 34.8731 394.512 36.7951C396.561 38.5464 398.177 40.75 399.231 43.2324C401.329 48.4571 401.329 54.2909 399.231 59.5156C398.179 62.0002 396.563 64.2058 394.512 65.9582C392.205 67.8804 389.534 69.3187 386.662 70.1873C383.119 71.2638 379.427 71.7784 375.726 71.7127ZM375.726 65.5618C378.408 65.6162 381.083 65.2578 383.658 64.4989C385.681 63.9076 387.554 62.8962 389.159 61.5309C390.56 60.3051 391.65 58.7656 392.345 57.0376C393.724 53.3936 393.724 49.3709 392.345 45.7269C391.655 43.9924 390.562 42.4467 389.159 41.2169C387.552 39.8536 385.678 38.8424 383.658 38.2489C378.466 36.8391 372.991 36.8391 367.798 38.2489C365.778 38.8424 363.902 39.8536 362.297 41.2169C360.912 42.4453 359.835 43.9829 359.156 45.7049C357.777 49.3489 357.777 53.3716 359.156 57.0153C359.849 58.7433 360.941 60.2831 362.342 61.5089C363.947 62.8742 365.82 63.8856 367.843 64.4769C370.4 65.2384 373.058 65.6042 375.726 65.5618Z" fill="black"/>
<path d="M442.794 48.4585V54.6149H414.965V70.898H407.632V31.8505H444V37.996H414.965V48.4585H442.794Z" fill="black"/>
</g>
<defs>
<clipPath id="clip0_22_50">
<rect width="444" height="100" fill="white"/>
</clipPath>
</defs>
</svg>
