<svg width="390" height="118" viewBox="0 0 390 118" fill="none" xmlns="http://www.w3.org/2000/svg">
<path d="M385.417 0.382812C387.59 0.382812 389.636 2.16972 389.636 4.21191V47.736C389.636 48.5018 388.869 49.2676 387.974 48.7571L342.21 28.4629C338.375 26.8036 337.352 26.8036 333.517 28.4629L287.753 48.7571C286.858 49.2676 286.091 48.5018 286.091 47.736V4.21191C286.091 2.16972 288.136 0.382812 290.181 0.382812H385.417Z" fill="#F59D0E"/>
<path d="M288.648 76.0713L335.946 55.1389C337.224 54.5007 338.503 54.5007 339.781 55.1389L387.079 76.0713C389.636 77.22 388.997 78.8793 387.079 79.6451L340.804 100.578C338.375 101.599 337.352 101.599 334.923 100.578L288.52 79.6451C286.73 78.8793 286.091 77.22 288.648 76.0713Z" fill="#F59D0E"/>
<path d="M68.9022 4.21201L68.263 6.50947L47.4262 78.8794C46.6592 81.5598 45.7643 83.9849 44.6138 86.1547C43.3355 88.9627 41.6737 91.1326 39.884 92.6642C38.0943 94.1958 36.049 95.3446 33.6202 96.238C31.3192 97.0039 28.379 97.5144 24.7997 97.5144C19.8142 97.5144 14.8287 96.3657 9.5875 94.0682C7.92566 93.3024 6.903 92.6642 6.5195 92.026C6.136 91.5155 6.136 90.8773 6.39166 90.1115L10.6102 80.0282C10.738 79.6453 10.8658 79.39 11.2493 79.2623C11.505 79.2623 11.7607 79.1347 11.8885 79.0071C12.272 79.0071 13.039 79.39 14.0616 80.0282C17.3853 81.9427 20.1976 82.8362 22.6265 82.8362C25.311 82.8362 27.4841 82.0704 29.2738 80.5387C31.1913 79.0071 32.4697 76.7096 33.2367 73.5187L34.515 69.0514H25.5667C24.7997 69.0514 24.2883 68.6685 23.9048 67.775L0.639157 6.25418L0 3.95672C0 3.06325 1.27834 2.55272 3.96284 2.29743L16.107 1.27635C16.6183 1.1487 17.0018 1.02108 17.3853 1.02108C17.7688 1.02108 18.0245 1.02108 18.0245 1.02108C18.9193 1.02108 19.5585 1.14873 19.6863 1.40399C19.8142 1.65926 20.1977 2.42508 20.5812 3.8291L31.0635 36.3764L36.816 55.7772H37.3274L42.0572 36.3764L50.4942 4.08439C50.6221 3.57384 50.7499 2.80802 51.0056 2.0422C51.3891 1.27638 52.1561 0.893467 53.5622 1.02111L65.9621 2.55275C67.8796 2.80802 68.9022 3.44619 68.9022 4.21201ZM143.429 114.49C143.429 116.277 142.534 117.17 140.617 117.17H128.856C127.578 117.17 126.811 116.788 126.555 116.149C126.299 115.511 126.171 115.001 126.171 114.49V95.2169H77.2113C75.933 95.2169 75.166 94.834 74.9103 94.1959C74.6547 93.5577 74.5268 93.0471 74.5268 92.409V4.97786C74.5268 3.70148 74.9103 2.93566 75.5495 2.6804C76.1886 2.42514 76.7 2.29749 77.2113 2.29749H90.2503C91.5287 2.29749 92.2957 2.6804 92.5513 3.19096C92.9348 3.82913 93.0627 4.46733 93.0627 4.97786V80.5387H116.84V4.97786C116.84 3.70148 117.095 2.93566 117.734 2.6804C118.374 2.42514 119.013 2.29749 119.524 2.29749H132.563C133.841 2.29749 134.608 2.6804 134.864 3.19096C135.12 3.82913 135.248 4.46733 135.248 4.97786V80.5387H140.617C142.534 80.5387 143.429 81.4322 143.429 83.2191L143.429 114.49ZM203.894 88.8351C203.894 89.218 203.766 89.7286 203.511 89.9838C203.255 90.3667 202.871 90.7496 202.36 91.1326C199.931 93.0471 196.863 94.5787 193.028 95.7275C189.193 96.8762 185.23 97.5144 181.14 97.5144C171.552 97.5144 163.882 94.834 158.385 89.4733C153.656 85.1336 150.46 79.007 148.414 70.966C147.008 65.0947 146.241 58.0747 146.241 50.0336C146.241 31.271 150.204 17.7415 158.002 9.31749C163.882 3.06328 171.552 0 180.756 0C184.591 0 188.171 0.510556 191.75 1.65929C195.201 2.68037 198.397 4.4673 201.082 6.76476C202.871 8.16876 203.638 9.44513 203.638 10.3386C203.638 10.5939 203.511 11.1044 202.999 12.1255L198.014 19.6561C197.375 20.5495 196.991 21.0601 196.48 21.0601C196.096 21.0601 195.713 20.8048 195.074 20.5495C194.562 20.1666 194.051 19.9113 193.667 19.5284C191.622 17.8691 189.832 16.7204 188.043 15.827C186.381 15.0611 184.463 14.6782 182.418 14.6782C177.688 14.6782 174.109 16.0822 171.424 19.0179C169.251 21.1877 167.845 24.5063 166.822 28.9735C165.928 33.4408 165.544 40.0779 165.544 49.1401C165.544 53.9903 165.8 58.5852 166.311 62.7972C167.206 69.4344 168.74 74.2845 170.785 77.0925C171.936 78.6242 173.598 80.0282 175.515 81.1769C177.561 82.3256 179.989 82.8362 182.802 82.8362C186.381 82.8362 190.088 81.6874 193.923 79.5176C194.434 79.1347 195.074 78.7518 195.713 78.3689C196.352 77.986 196.863 77.8583 197.247 77.8583C197.886 77.8583 198.525 78.2413 199.036 79.1347L203.255 86.7929C203.766 87.5587 203.894 88.3245 203.894 88.8351ZM268.961 67.5198C268.961 74.5398 267.427 80.1558 264.231 84.6231C259.118 91.6431 250.298 95.2169 237.514 95.2169H212.715C211.564 95.2169 210.797 94.834 210.414 94.1958C210.158 93.5577 210.03 93.0471 210.03 92.4089V4.97783C210.03 3.70145 210.414 2.93563 211.053 2.68037C211.692 2.42511 212.203 2.29746 212.715 2.29746H260.269C261.675 2.29746 262.314 2.80802 262.314 3.8291L262.058 5.10548L259.374 14.8059C259.118 15.444 258.735 16.0822 258.351 16.4652C257.968 16.7204 257.201 16.9757 256.178 16.9757H228.566V39.1845H238.026C241.988 39.1845 245.696 39.5674 249.275 40.2056C252.726 40.8438 255.922 42.2478 258.862 44.1623C261.675 46.2045 263.976 48.7572 265.765 52.0758C267.939 56.2878 268.961 61.3932 268.961 67.5198ZM250.681 67.1369C250.681 62.7972 249.531 59.4787 247.102 57.1812C244.801 55.0114 240.71 53.8627 234.83 53.8627H228.566V80.5387H233.424C238.665 80.5387 242.5 79.9005 245.056 78.4965C248.764 76.4543 250.681 72.7529 250.681 67.1369Z" fill="#727271"/>
</svg>
