<svg width="674" height="200" viewBox="0 0 674 200" fill="none" xmlns="http://www.w3.org/2000/svg">
<path d="M223.822 112.042C223.822 119.634 216.754 125.131 206.806 125.131H183.508V78.0105H206.021C215.707 78.0105 222.513 83.2461 222.513 90.576C222.513 95.5498 219.895 98.6911 215.969 100.524C220.157 102.094 223.822 106.283 223.822 112.042ZM193.717 86.6492V96.8587H205.759C209.424 96.8587 211.78 94.7644 211.78 91.8849C211.78 89.0053 209.162 86.6492 205.759 86.6492H193.717ZM206.806 116.492C210.733 116.492 213.613 114.136 213.613 110.733C213.613 107.33 210.995 104.974 206.806 104.974H193.717V116.492H206.806Z" fill="black"/>
<path d="M262.304 124.869L246.074 106.283H243.456V124.869H232.984V78.0105H243.456V96.0733H246.074L261.78 78.0105H274.084L254.45 100.524L275.916 124.869H262.304Z" fill="black"/>
<path d="M275.917 101.571C275.917 87.4348 286.388 77.2253 301.047 77.2253C315.707 77.2253 326.178 87.4348 326.178 101.571C326.178 115.707 315.707 125.916 301.047 125.916C286.388 125.916 275.917 115.707 275.917 101.571ZM315.184 101.571C315.184 92.6704 309.424 86.6494 301.047 86.6494C292.67 86.6494 286.911 92.6704 286.911 101.571C286.911 110.471 292.67 116.492 301.047 116.492C309.424 116.492 315.184 110.471 315.184 101.571Z" fill="black"/>
<path d="M366.231 78.0105H376.702V124.869H366.231V106.021H345.288V124.869H334.817V78.0105H345.288V96.5969H366.231V78.0105Z" fill="black"/>
<path d="M399.215 124.869V87.4346H382.984V78.0105H425.655V87.4346H409.424V124.869H399.215Z" fill="black"/>
<path d="M470.681 98.6913V124.869H463.089L460.995 117.539C458.639 121.466 453.665 125.916 446.073 125.916C436.649 125.916 429.843 119.634 429.843 110.995C429.843 102.356 436.649 96.3353 450.524 96.3353H460.733C460.21 90.3143 457.068 86.1259 451.309 86.1259C446.597 86.1259 443.456 88.7437 441.885 91.6232L432.461 90.0526C434.817 81.9374 442.932 77.2253 451.833 77.2253C463.351 77.2253 470.681 85.0787 470.681 98.6913ZM460.471 104.45H450.785C442.932 104.45 440.314 107.068 440.314 110.471C440.314 114.398 443.456 117.016 448.691 117.016C455.498 117.016 460.471 112.042 460.471 104.45Z" fill="black"/>
<path d="M510.995 124.869L494.765 106.283H492.147V124.869H481.676V78.0105H492.147V96.0733H494.765L510.471 78.0105H522.775L503.142 100.524L524.608 124.869H510.995Z" fill="black"/>
<path d="M543.456 124.869V87.4346H527.225V78.0105H569.896V87.4346H553.665V124.869H543.456Z" fill="black"/>
<path d="M622.251 104.45H584.555C585.602 111.78 590.838 116.492 598.691 116.492C604.189 116.492 608.377 114.136 610.733 110.733L620.419 112.304C617.016 121.204 607.853 125.916 597.906 125.916C583.77 125.916 573.56 115.707 573.56 101.571C573.56 87.4348 583.77 77.2253 597.906 77.2253C612.042 77.2253 622.251 87.4348 622.251 101.047C622.513 102.356 622.251 103.403 622.251 104.45ZM585.34 96.3353H611.257C609.424 90.5761 604.712 86.3876 598.168 86.3876C591.885 86.1259 586.911 90.3143 585.34 96.3353Z" fill="black"/>
<path d="M50 98C50 75.3726 50 64.0589 57.0294 57.0294C64.0589 50 75.3726 50 98 50H102C124.627 50 135.941 50 142.971 57.0294C150 64.0589 150 75.3726 150 98V102C150 124.627 150 135.941 142.971 142.971C135.941 150 124.627 150 102 150H98C75.3726 150 64.0589 150 57.0294 142.971C50 135.941 50 124.627 50 102V98Z" fill="#0077FF"/>
<path d="M103.208 122.042C80.4167 122.042 67.4168 106.417 66.8751 80.4169H78.2917C78.6667 99.5002 87.0833 107.583 93.7499 109.25V80.4169H104.5V96.8751C111.084 96.1668 117.999 88.6669 120.333 80.4169H131.083C129.291 90.5835 121.791 98.0835 116.458 101.167C121.791 103.667 130.333 110.208 133.583 122.042H121.75C119.208 114.125 112.875 108 104.5 107.167V122.042H103.208Z" fill="white"/>
</svg>
