<svg width="1920" height="2783" viewBox="0 0 1920 2783" fill="none" xmlns="http://www.w3.org/2000/svg">
<g clip-path="url(#clip0_71_193)">
<rect width="1920" height="2783" fill="#F3F6FF"/>
<circle cx="1650" cy="1679" r="1017" fill="#1A67FF"/>
<path d="M940 342.5C940 634.935 702.935 872 410.5 872C118.065 872 -119 634.935 -119 342.5C-119 50.0652 118.065 -187 410.5 -187C702.935 -187 940 50.0652 940 342.5Z" fill="#CC0256"/>
<circle cx="883.5" cy="101.5" r="56.5" fill="#331ACF"/>
<path d="M1864.28 68.512C1863.74 65.416 1861.54 61.528 1857.37 58.396C1855.31 56.848 1853.23 55.84 1851.17 55.408V53.896C1855.24 52.924 1859.24 50.188 1861.79 46.48C1863.09 44.608 1863.92 42.772 1864.28 40.864H1865.79C1866.4 44.5 1869.21 48.532 1873.03 51.232C1874.9 52.564 1876.84 53.464 1878.82 53.896V55.408C1874.83 56.236 1870.18 59.8 1867.88 63.436C1866.73 65.272 1866.04 66.964 1865.79 68.512H1864.28Z" fill="#331ACF"/>
<path d="M1665.28 873.512C1664.74 870.416 1662.54 866.528 1658.37 863.396C1656.31 861.848 1654.23 860.84 1652.17 860.408V858.896C1656.24 857.924 1660.24 855.188 1662.79 851.48C1664.09 849.608 1664.92 847.772 1665.28 845.864H1666.79C1667.4 849.5 1670.21 853.532 1674.03 856.232C1675.9 857.564 1677.84 858.464 1679.82 858.896V860.408C1675.83 861.236 1671.18 864.8 1668.88 868.436C1667.73 870.272 1667.04 871.964 1666.79 873.512H1665.28Z" fill="white"/>
<path d="M319.278 2729.51C318.738 2726.42 316.542 2722.53 312.366 2719.4C310.314 2717.85 308.226 2716.84 306.174 2716.41V2714.9C310.242 2713.92 314.238 2711.19 316.794 2707.48C318.09 2705.61 318.918 2703.77 319.278 2701.86H320.79C321.402 2705.5 324.21 2709.53 328.026 2712.23C329.898 2713.56 331.842 2714.46 333.822 2714.9V2716.41C329.826 2717.24 325.182 2720.8 322.878 2724.44C321.726 2726.27 321.042 2727.96 320.79 2729.51H319.278Z" fill="#1A67FF"/>
<path d="M1496.28 295.512C1495.74 292.416 1493.54 288.528 1489.37 285.396C1487.31 283.848 1485.23 282.84 1483.17 282.408V280.896C1487.24 279.924 1491.24 277.188 1493.79 273.48C1495.09 271.608 1495.92 269.772 1496.28 267.864H1497.79C1498.4 271.5 1501.21 275.532 1505.03 278.232C1506.9 279.564 1508.84 280.464 1510.82 280.896V282.408C1506.83 283.236 1502.18 286.8 1499.88 290.436C1498.73 292.272 1498.04 293.964 1497.79 295.512H1496.28Z" fill="#1A67FF"/>
<path d="M775.278 932.512C774.738 929.416 772.542 925.528 768.366 922.396C766.314 920.848 764.226 919.84 762.174 919.408V917.896C766.242 916.924 770.238 914.188 772.794 910.48C774.09 908.608 774.918 906.772 775.278 904.864H776.79C777.402 908.5 780.21 912.532 784.026 915.232C785.898 916.564 787.842 917.464 789.822 917.896V919.408C785.826 920.236 781.182 923.8 778.878 927.436C777.726 929.272 777.042 930.964 776.79 932.512H775.278Z" fill="#1A67FF"/>
<path d="M176.278 719.512C175.738 716.416 173.542 712.528 169.366 709.396C167.314 707.848 165.226 706.84 163.174 706.408V704.896C167.242 703.924 171.238 701.188 173.794 697.48C175.09 695.608 175.918 693.772 176.278 691.864H177.79C178.402 695.5 181.21 699.532 185.026 702.232C186.898 703.564 188.842 704.464 190.822 704.896V706.408C186.826 707.236 182.182 710.8 179.878 714.436C178.726 716.272 178.042 717.964 177.79 719.512H176.278Z" fill="#331ACF"/>
<path d="M1429.28 2751.51C1428.74 2748.42 1426.54 2744.53 1422.37 2741.4C1420.31 2739.85 1418.23 2738.84 1416.17 2738.41V2736.9C1420.24 2735.92 1424.24 2733.19 1426.79 2729.48C1428.09 2727.61 1428.92 2725.77 1429.28 2723.86H1430.79C1431.4 2727.5 1434.21 2731.53 1438.03 2734.23C1439.9 2735.56 1441.84 2736.46 1443.82 2736.9V2738.41C1439.83 2739.24 1435.18 2742.8 1432.88 2746.44C1431.73 2748.27 1431.04 2749.96 1430.79 2751.51H1429.28Z" fill="#1A67FF"/>
<path d="M1324.28 55.512C1323.74 52.416 1321.54 48.528 1317.37 45.396C1315.31 43.848 1313.23 42.84 1311.17 42.408V40.896C1315.24 39.924 1319.24 37.188 1321.79 33.48C1323.09 31.608 1323.92 29.772 1324.28 27.864H1325.79C1326.4 31.5 1329.21 35.532 1333.03 38.232C1334.9 39.564 1336.84 40.464 1338.82 40.896V42.408C1334.83 43.236 1330.18 46.8 1327.88 50.436C1326.73 52.272 1326.04 53.964 1325.79 55.512H1324.28Z" fill="#CC0256"/>
<path d="M263.278 150.512C262.738 147.416 260.542 143.528 256.366 140.396C254.314 138.848 252.226 137.84 250.174 137.408V135.896C254.242 134.924 258.238 132.188 260.794 128.48C262.09 126.608 262.918 124.772 263.278 122.864H264.79C265.402 126.5 268.21 130.532 272.026 133.232C273.898 134.564 275.842 135.464 277.822 135.896V137.408C273.826 138.236 269.182 141.8 266.878 145.436C265.726 147.272 265.042 148.964 264.79 150.512H263.278Z" fill="white"/>
<path d="M97.2779 2527.51C96.7379 2524.42 94.5419 2520.53 90.3659 2517.4C88.3139 2515.85 86.2259 2514.84 84.1739 2514.41V2512.9C88.2419 2511.92 92.2379 2509.19 94.7939 2505.48C96.0899 2503.61 96.9179 2501.77 97.2779 2499.86H98.7899C99.4019 2503.5 102.21 2507.53 106.026 2510.23C107.898 2511.56 109.842 2512.46 111.822 2512.9V2514.41C107.826 2515.24 103.182 2518.8 100.878 2522.44C99.7259 2524.27 99.0419 2525.96 98.7899 2527.51H97.2779Z" fill="#1A67FF"/>
<path d="M1020.28 851.512C1019.74 848.416 1017.54 844.528 1013.37 841.396C1011.31 839.848 1009.23 838.84 1007.17 838.408V836.896C1011.24 835.924 1015.24 833.188 1017.79 829.48C1019.09 827.608 1019.92 825.772 1020.28 823.864H1021.79C1022.4 827.5 1025.21 831.532 1029.03 834.232C1030.9 835.564 1032.84 836.464 1034.82 836.896V838.408C1030.83 839.236 1026.18 842.8 1023.88 846.436C1022.73 848.272 1022.04 849.964 1021.79 851.512H1020.28Z" fill="#CC0256"/>
<path d="M1812.28 2459.51C1811.74 2456.42 1809.54 2452.53 1805.37 2449.4C1803.31 2447.85 1801.23 2446.84 1799.17 2446.41V2444.9C1803.24 2443.92 1807.24 2441.19 1809.79 2437.48C1811.09 2435.61 1811.92 2433.77 1812.28 2431.86H1813.79C1814.4 2435.5 1817.21 2439.53 1821.03 2442.23C1822.9 2443.56 1824.84 2444.46 1826.82 2444.9V2446.41C1822.83 2447.24 1818.18 2450.8 1815.88 2454.44C1814.73 2456.27 1814.04 2457.96 1813.79 2459.51H1812.28Z" fill="white"/>
<path d="M1844.28 2483.51C1843.74 2480.42 1841.54 2476.53 1837.37 2473.4C1835.31 2471.85 1833.23 2470.84 1831.17 2470.41V2468.9C1835.24 2467.92 1839.24 2465.19 1841.79 2461.48C1843.09 2459.61 1843.92 2457.77 1844.28 2455.86H1845.79C1846.4 2459.5 1849.21 2463.53 1853.03 2466.23C1854.9 2467.56 1856.84 2468.46 1858.82 2468.9V2470.41C1854.83 2471.24 1850.18 2474.8 1847.88 2478.44C1846.73 2480.27 1846.04 2481.96 1845.79 2483.51H1844.28Z" fill="#CC0256"/>
<path d="M44.2779 1174.51C43.7379 1171.42 41.5419 1167.53 37.3659 1164.4C35.3139 1162.85 33.2259 1161.84 31.1739 1161.41V1159.9C35.2419 1158.92 39.2379 1156.19 41.7939 1152.48C43.0899 1150.61 43.9179 1148.77 44.2779 1146.86H45.7899C46.4019 1150.5 49.2099 1154.53 53.0259 1157.23C54.8979 1158.56 56.8419 1159.46 58.8219 1159.9V1161.41C54.8259 1162.24 50.1819 1165.8 47.8779 1169.44C46.7259 1171.27 46.0419 1172.96 45.7899 1174.51H44.2779Z" fill="#CC0256"/>
<path d="M1287.28 2760.51C1286.74 2757.42 1284.54 2753.53 1280.37 2750.4C1278.31 2748.85 1276.23 2747.84 1274.17 2747.41V2745.9C1278.24 2744.92 1282.24 2742.19 1284.79 2738.48C1286.09 2736.61 1286.92 2734.77 1287.28 2732.86H1288.79C1289.4 2736.5 1292.21 2740.53 1296.03 2743.23C1297.9 2744.56 1299.84 2745.46 1301.82 2745.9V2747.41C1297.83 2748.24 1293.18 2751.8 1290.88 2755.44C1289.73 2757.27 1289.04 2758.96 1288.79 2760.51H1287.28Z" fill="#CC0256"/>
<path d="M514.278 1196.51C513.738 1193.42 511.542 1189.53 507.366 1186.4C505.314 1184.85 503.226 1183.84 501.174 1183.41V1181.9C505.242 1180.92 509.238 1178.19 511.794 1174.48C513.09 1172.61 513.918 1170.77 514.278 1168.86H515.79C516.402 1172.5 519.21 1176.53 523.026 1179.23C524.898 1180.56 526.842 1181.46 528.822 1181.9V1183.41C524.826 1184.24 520.182 1187.8 517.878 1191.44C516.726 1193.27 516.042 1194.96 515.79 1196.51H514.278Z" fill="#331ACF"/>
<path d="M1697.28 829.512C1696.74 826.416 1694.54 822.528 1690.37 819.396C1688.31 817.848 1686.23 816.84 1684.17 816.408V814.896C1688.24 813.924 1692.24 811.188 1694.79 807.48C1696.09 805.608 1696.92 803.772 1697.28 801.864H1698.79C1699.4 805.5 1702.21 809.532 1706.03 812.232C1707.9 813.564 1709.84 814.464 1711.82 814.896V816.408C1707.83 817.236 1703.18 820.8 1700.88 824.436C1699.73 826.272 1699.04 827.964 1698.79 829.512H1697.28Z" fill="#331ACF"/>
<path d="M60.2779 2258.51C59.7379 2255.42 57.5419 2251.53 53.3659 2248.4C51.3139 2246.85 49.2259 2245.84 47.1739 2245.41V2243.9C51.2419 2242.92 55.2379 2240.19 57.7939 2236.48C59.0899 2234.61 59.9179 2232.77 60.2779 2230.86H61.7899C62.4019 2234.5 65.2099 2238.53 69.0259 2241.23C70.8979 2242.56 72.8419 2243.46 74.8219 2243.9V2245.41C70.8259 2246.24 66.1819 2249.8 63.8779 2253.44C62.7259 2255.27 62.0419 2256.96 61.7899 2258.51H60.2779Z" fill="#331ACF"/>
<path d="M113.278 1671.51C112.738 1668.42 110.542 1664.53 106.366 1661.4C104.314 1659.85 102.226 1658.84 100.174 1658.41V1656.9C104.242 1655.92 108.238 1653.19 110.794 1649.48C112.09 1647.61 112.918 1645.77 113.278 1643.86H114.79C115.402 1647.5 118.21 1651.53 122.026 1654.23C123.898 1655.56 125.842 1656.46 127.822 1656.9V1658.41C123.826 1659.24 119.182 1662.8 116.878 1666.44C115.726 1668.27 115.042 1669.96 114.79 1671.51H113.278Z" fill="#331ACF"/>
<path d="M1812.28 2527.51C1811.74 2524.42 1809.54 2520.53 1805.37 2517.4C1803.31 2515.85 1801.23 2514.84 1799.17 2514.41V2512.9C1803.24 2511.92 1807.24 2509.19 1809.79 2505.48C1811.09 2503.61 1811.92 2501.77 1812.28 2499.86H1813.79C1814.4 2503.5 1817.21 2507.53 1821.03 2510.23C1822.9 2511.56 1824.84 2512.46 1826.82 2512.9V2514.41C1822.83 2515.24 1818.18 2518.8 1815.88 2522.44C1814.73 2524.27 1814.04 2525.96 1813.79 2527.51H1812.28Z" fill="white"/>
<circle cx="235.5" cy="2566.5" r="100.5" fill="#CC0256"/>
<circle cx="152" cy="2667" r="70" fill="#1A67FF"/>
</g>
<defs>
<clipPath id="clip0_71_193">
<rect width="1920" height="2783" fill="white"/>
</clipPath>
</defs>
</svg>
