<svg width="1920" height="759" viewBox="0 0 1920 759" fill="none" xmlns="http://www.w3.org/2000/svg">
<g clip-path="url(#clip0_68_125)">
<rect width="1920" height="759" fill="#F3F6FF"/>
<path d="M130.278 739.512C129.738 736.416 127.542 732.528 123.366 729.396C121.314 727.848 119.226 726.84 117.174 726.408V724.896C121.242 723.924 125.238 721.188 127.794 717.48C129.09 715.608 129.918 713.772 130.278 711.864H131.79C132.402 715.5 135.21 719.532 139.026 722.232C140.898 723.564 142.842 724.464 144.822 724.896V726.408C140.826 727.236 136.182 730.8 133.878 734.436C132.726 736.272 132.042 737.964 131.79 739.512H130.278Z" fill="#331ACF"/>
<path d="M38.2779 432.512C37.7379 429.416 35.5419 425.528 31.3659 422.396C29.3139 420.848 27.2259 419.84 25.1739 419.408V417.896C29.2419 416.924 33.2379 414.188 35.7939 410.48C37.0899 408.608 37.9179 406.772 38.2779 404.864H39.7899C40.4019 408.5 43.2099 412.532 47.0259 415.232C48.8979 416.564 50.8419 417.464 52.8219 417.896V419.408C48.8259 420.236 44.1819 423.8 41.8779 427.436C40.7259 429.272 40.0419 430.964 39.7899 432.512H38.2779Z" fill="#CC0256"/>
<path d="M1412.28 73.512C1411.74 70.416 1409.54 66.528 1405.37 63.396C1403.31 61.848 1401.23 60.84 1399.17 60.408V58.896C1403.24 57.924 1407.24 55.188 1409.79 51.48C1411.09 49.608 1411.92 47.772 1412.28 45.864H1413.79C1414.4 49.5 1417.21 53.532 1421.03 56.232C1422.9 57.564 1424.84 58.464 1426.82 58.896V60.408C1422.83 61.236 1418.18 64.8 1415.88 68.436C1414.73 70.272 1414.04 71.964 1413.79 73.512H1412.28Z" fill="#CC0256"/>
<path d="M1838.28 739.512C1837.74 736.416 1835.54 732.528 1831.37 729.396C1829.31 727.848 1827.23 726.84 1825.17 726.408V724.896C1829.24 723.924 1833.24 721.188 1835.79 717.48C1837.09 715.608 1837.92 713.772 1838.28 711.864H1839.79C1840.4 715.5 1843.21 719.532 1847.03 722.232C1848.9 723.564 1850.84 724.464 1852.82 724.896V726.408C1848.83 727.236 1844.18 730.8 1841.88 734.436C1840.73 736.272 1840.04 737.964 1839.79 739.512H1838.28Z" fill="#331ACF"/>
<path d="M102.278 297.512C101.738 294.416 99.5419 290.528 95.3659 287.396C93.3139 285.848 91.2259 284.84 89.1739 284.408V282.896C93.2419 281.924 97.2379 279.188 99.7939 275.48C101.09 273.608 101.918 271.772 102.278 269.864H103.79C104.402 273.5 107.21 277.532 111.026 280.232C112.898 281.564 114.842 282.464 116.822 282.896V284.408C112.826 285.236 108.182 288.8 105.878 292.436C104.726 294.272 104.042 295.964 103.79 297.512H102.278Z" fill="#331ACF"/>
<path d="M175.278 51.512C174.738 48.416 172.542 44.528 168.366 41.396C166.314 39.848 164.226 38.84 162.174 38.408V36.896C166.242 35.924 170.238 33.188 172.794 29.48C174.09 27.608 174.918 25.772 175.278 23.864H176.79C177.402 27.5 180.21 31.532 184.026 34.232C185.898 35.564 187.842 36.464 189.822 36.896V38.408C185.826 39.236 181.182 42.8 178.878 46.436C177.726 48.272 177.042 49.964 176.79 51.512H175.278Z" fill="#CC0256"/>
<path d="M77.2779 575.512C76.7379 572.416 74.5419 568.528 70.3659 565.396C68.3139 563.848 66.2259 562.84 64.1739 562.408V560.896C68.2419 559.924 72.2379 557.188 74.7939 553.48C76.0899 551.608 76.9179 549.772 77.2779 547.864H78.7899C79.4019 551.5 82.2099 555.532 86.0259 558.232C87.8979 559.564 89.8419 560.464 91.8219 560.896V562.408C87.8259 563.236 83.1819 566.8 80.8779 570.436C79.7259 572.272 79.0419 573.964 78.7899 575.512H77.2779Z" fill="#331ACF"/>
<path d="M1854.28 108.512C1853.74 105.416 1851.54 101.528 1847.37 98.396C1845.31 96.848 1843.23 95.84 1841.17 95.408V93.896C1845.24 92.924 1849.24 90.188 1851.79 86.48C1853.09 84.608 1853.92 82.772 1854.28 80.864H1855.79C1856.4 84.5 1859.21 88.532 1863.03 91.232C1864.9 92.564 1866.84 93.464 1868.82 93.896V95.408C1864.83 96.236 1860.18 99.8 1857.88 103.436C1856.73 105.272 1856.04 106.964 1855.79 108.512H1854.28Z" fill="#331ACF"/>
<path d="M1896.28 606.512C1895.74 603.416 1893.54 599.528 1889.37 596.396C1887.31 594.848 1885.23 593.84 1883.17 593.408V591.896C1887.24 590.924 1891.24 588.188 1893.79 584.48C1895.09 582.608 1895.92 580.772 1896.28 578.864H1897.79C1898.4 582.5 1901.21 586.532 1905.03 589.232C1906.9 590.564 1908.84 591.464 1910.82 591.896V593.408C1906.83 594.236 1902.18 597.8 1899.88 601.436C1898.73 603.272 1898.04 604.964 1897.79 606.512H1896.28Z" fill="#331ACF"/>
<path d="M523.278 194.512C522.738 191.416 520.542 187.528 516.366 184.396C514.314 182.848 512.226 181.84 510.174 181.408V179.896C514.242 178.924 518.238 176.188 520.794 172.48C522.09 170.608 522.918 168.772 523.278 166.864H524.79C525.402 170.5 528.21 174.532 532.026 177.232C533.898 178.564 535.842 179.464 537.822 179.896V181.408C533.826 182.236 529.182 185.8 526.878 189.436C525.726 191.272 525.042 192.964 524.79 194.512H523.278Z" fill="#CC0256"/>
<path d="M104.278 58.512C103.738 55.416 101.542 51.528 97.3659 48.396C95.3139 46.848 93.2259 45.84 91.1739 45.408V43.896C95.2419 42.924 99.2379 40.188 101.794 36.48C103.09 34.608 103.918 32.772 104.278 30.864H105.79C106.402 34.5 109.21 38.532 113.026 41.232C114.898 42.564 116.842 43.464 118.822 43.896V45.408C114.826 46.236 110.182 49.8 107.878 53.436C106.726 55.272 106.042 56.964 105.79 58.512H104.278Z" fill="#331ACF"/>
<path d="M1790.28 476.512C1789.74 473.416 1787.54 469.528 1783.37 466.396C1781.31 464.848 1779.23 463.84 1777.17 463.408V461.896C1781.24 460.924 1785.24 458.188 1787.79 454.48C1789.09 452.608 1789.92 450.772 1790.28 448.864H1791.79C1792.4 452.5 1795.21 456.532 1799.03 459.232C1800.9 460.564 1802.84 461.464 1804.82 461.896V463.408C1800.83 464.236 1796.18 467.8 1793.88 471.436C1792.73 473.272 1792.04 474.964 1791.79 476.512H1790.28Z" fill="#CC0256"/>
<path d="M70.2779 139.512C69.7379 136.416 67.5419 132.528 63.3659 129.396C61.3139 127.848 59.2259 126.84 57.1739 126.408V124.896C61.2419 123.924 65.2379 121.188 67.7939 117.48C69.0899 115.608 69.9179 113.772 70.2779 111.864H71.7899C72.4019 115.5 75.2099 119.532 79.0259 122.232C80.8979 123.564 82.8419 124.464 84.8219 124.896V126.408C80.8259 127.236 76.1819 130.8 73.8779 134.436C72.7259 136.272 72.0419 137.964 71.7899 139.512H70.2779Z" fill="#CC0256"/>
<path d="M1743.28 58.512C1742.74 55.416 1740.54 51.528 1736.37 48.396C1734.31 46.848 1732.23 45.84 1730.17 45.408V43.896C1734.24 42.924 1738.24 40.188 1740.79 36.48C1742.09 34.608 1742.92 32.772 1743.28 30.864H1744.79C1745.4 34.5 1748.21 38.532 1752.03 41.232C1753.9 42.564 1755.84 43.464 1757.82 43.896V45.408C1753.83 46.236 1749.18 49.8 1746.88 53.436C1745.73 55.272 1745.04 56.964 1744.79 58.512H1743.28Z" fill="#331ACF"/>
<path d="M1822.28 238.512C1821.74 235.416 1819.54 231.528 1815.37 228.396C1813.31 226.848 1811.23 225.84 1809.17 225.408V223.896C1813.24 222.924 1817.24 220.188 1819.79 216.48C1821.09 214.608 1821.92 212.772 1822.28 210.864H1823.79C1824.4 214.5 1827.21 218.532 1831.03 221.232C1832.9 222.564 1834.84 223.464 1836.82 223.896V225.408C1832.83 226.236 1828.18 229.8 1825.88 233.436C1824.73 235.272 1824.04 236.964 1823.79 238.512H1822.28Z" fill="#331ACF"/>
<path d="M1880.28 717.512C1879.74 714.416 1877.54 710.528 1873.37 707.396C1871.31 705.848 1869.23 704.84 1867.17 704.408V702.896C1871.24 701.924 1875.24 699.188 1877.79 695.48C1879.09 693.608 1879.92 691.772 1880.28 689.864H1881.79C1882.4 693.5 1885.21 697.532 1889.03 700.232C1890.9 701.564 1892.84 702.464 1894.82 702.896V704.408C1890.83 705.236 1886.18 708.8 1883.88 712.436C1882.73 714.272 1882.04 715.964 1881.79 717.512H1880.28Z" fill="#CC0256"/>
<path d="M598.278 739.512C597.738 736.416 595.542 732.528 591.366 729.396C589.314 727.848 587.226 726.84 585.174 726.408V724.896C589.242 723.924 593.238 721.188 595.794 717.48C597.09 715.608 597.918 713.772 598.278 711.864H599.79C600.402 715.5 603.21 719.532 607.026 722.232C608.898 723.564 610.842 724.464 612.822 724.896V726.408C608.826 727.236 604.182 730.8 601.878 734.436C600.726 736.272 600.042 737.964 599.79 739.512H598.278Z" fill="#CC0256"/>
<circle cx="93.5" cy="656.5" r="38.5" fill="#CC0256"/>
<circle cx="364.5" cy="60.5" r="38.5" fill="#CC0256"/>
<circle cx="1689.5" cy="124.5" r="38.5" fill="#CC0256"/>
<circle cx="1451.5" cy="168.5" r="38.5" fill="#1A67FF"/>
<circle cx="646.5" cy="157.5" r="38.5" fill="#1A67FF"/>
<circle cx="185.5" cy="163.5" r="38.5" fill="#1A67FF"/>
<path d="M1365.28 708.512C1364.74 705.416 1362.54 701.528 1358.37 698.396C1356.31 696.848 1354.23 695.84 1352.17 695.408V693.896C1356.24 692.924 1360.24 690.188 1362.79 686.48C1364.09 684.608 1364.92 682.772 1365.28 680.864H1366.79C1367.4 684.5 1370.21 688.532 1374.03 691.232C1375.9 692.564 1377.84 693.464 1379.82 693.896V695.408C1375.83 696.236 1371.18 699.8 1368.88 703.436C1367.73 705.272 1367.04 706.964 1366.79 708.512H1365.28Z" fill="#331ACF"/>
<circle cx="960" cy="-76" r="300" fill="#1A67FF"/>
</g>
<defs>
<clipPath id="clip0_68_125">
<rect width="1920" height="759" fill="white"/>
</clipPath>
</defs>
</svg>
