<svg width="1920" height="2403" viewBox="0 0 1920 2403" fill="none" xmlns="http://www.w3.org/2000/svg">
<g clip-path="url(#clip0_44_12)">
<rect width="1920" height="2403" fill="#F3F3FF"/>
<mask id="mask0_44_12" style="mask-type:luminance" maskUnits="userSpaceOnUse" x="0" y="0" width="1920" height="2403">
<path d="M1920 0H0V2403H1920V0Z" fill="white"/>
</mask>
<g mask="url(#mask0_44_12)">
<path d="M219.5 764C468.857 764 671 561.857 671 312.5C671 63.1434 468.857 -139 219.5 -139C-29.8566 -139 -232 63.1434 -232 312.5C-232 561.857 -29.8566 764 219.5 764Z" fill="#1A67FF"/>
<path d="M1919.5 1533C2168.86 1533 2371 1330.86 2371 1081.5C2371 832.143 2168.86 630 1919.5 630C1670.14 630 1468 832.143 1468 1081.5C1468 1330.86 1670.14 1533 1919.5 1533Z" fill="#1A67FF"/>
<path d="M132 1545C313.702 1545 461 1397.7 461 1216C461 1034.3 313.702 887 132 887C-49.7017 887 -197 1034.3 -197 1216C-197 1397.7 -49.7017 1545 132 1545Z" fill="#AF1D3F"/>
<path d="M1400.5 945C1450.48 945 1491 904.482 1491 854.5C1491 804.518 1450.48 764 1400.5 764C1350.52 764 1310 804.518 1310 854.5C1310 904.482 1350.52 945 1400.5 945Z" fill="#AF1D3F"/>
<path fill-rule="evenodd" clip-rule="evenodd" d="M1820.82 1244.3C1715.92 1244.3 1632.51 1160.9 1632.51 1056.9C1632.51 952.896 1715.92 868.587 1820.82 868.587C1924.82 868.587 2009.13 952.896 2009.13 1056.9C2009.13 1160.9 1924.82 1244.3 1820.82 1244.3ZM609.028 220.41C504.533 220.41 418.923 135.7 418.923 31.205C418.923 -73.29 504.533 -158 609.028 -158C713.523 -158 798.233 -73.29 798.233 31.205C798.233 135.7 713.523 220.41 609.028 220.41ZM-114.177 674.903C-265.405 674.903 -388 552.308 -388 401.08C-388 249.851 -265.405 127.256 -114.177 127.256C37.051 127.256 159.646 249.851 159.646 401.08C159.646 552.308 37.051 674.903 -114.177 674.903ZM697.487 389.094C704.107 389.094 709.473 394.46 709.473 401.08C709.473 407.7 704.107 413.066 697.487 413.066C690.867 413.066 685.501 407.7 685.501 401.08C685.501 394.46 690.867 389.094 697.487 389.094Z" fill="#AF1D3F"/>
<path fill-rule="evenodd" clip-rule="evenodd" d="M1796 -86C1905.9 -86 1995 3.095 1995 113C1995 222.905 1905.9 312 1796 312C1686.1 312 1597 222.905 1597 113C1597 3.095 1686.1 -86 1796 -86Z" fill="#331ACF"/>
<path fill-rule="evenodd" clip-rule="evenodd" d="M1061.25 475.359C1055.99 475.359 1050.83 471.096 1050.83 465.838C1050.83 460.58 1055.99 456.317 1061.25 456.317C1066.51 456.317 1070.77 460.58 1070.77 465.838C1070.77 471.096 1066.51 475.359 1061.25 475.359ZM1061.25 434.097C1055.99 434.097 1050.83 429.834 1050.83 424.576C1050.83 419.318 1055.99 415.055 1061.25 415.055C1066.51 415.055 1070.77 419.318 1070.77 424.576C1070.77 429.834 1066.51 434.097 1061.25 434.097ZM1061.25 395.336C1055.99 395.336 1050.83 391.073 1050.83 385.815C1050.83 380.557 1055.99 376.294 1061.25 376.294C1066.51 376.294 1070.77 380.557 1070.77 385.815C1070.77 391.073 1066.51 395.336 1061.25 395.336ZM1061.25 354.074C1055.99 354.074 1050.83 349.811 1050.83 344.553C1050.83 339.295 1055.99 335.032 1061.25 335.032C1066.51 335.032 1070.77 339.295 1070.77 344.553C1070.77 349.811 1066.51 354.074 1061.25 354.074ZM1061.25 315.521C1055.99 315.521 1050.83 311.258 1050.83 306C1050.83 300.742 1055.99 296.479 1061.25 296.479C1066.51 296.479 1070.77 300.742 1070.77 306C1070.77 311.258 1066.51 315.521 1061.25 315.521ZM1027.25 475.359C1021.99 475.359 1017.73 471.096 1017.73 465.838C1017.73 460.58 1021.99 456.317 1027.25 456.317C1032.51 456.317 1036.77 460.58 1036.77 465.838C1036.77 471.096 1032.51 475.359 1027.25 475.359ZM1027.25 434.097C1021.99 434.097 1017.73 429.834 1017.73 424.576C1017.73 419.318 1021.99 415.055 1027.25 415.055C1032.51 415.055 1036.77 419.318 1036.77 424.576C1036.77 429.834 1032.51 434.097 1027.25 434.097ZM1027.25 395.336C1021.99 395.336 1017.73 391.073 1017.73 385.815C1017.73 380.557 1021.99 376.294 1027.25 376.294C1032.51 376.294 1036.77 380.557 1036.77 385.815C1036.77 391.073 1032.51 395.336 1027.25 395.336ZM1027.25 354.074C1021.99 354.074 1017.73 349.811 1017.73 344.553C1017.73 339.295 1021.99 335.032 1027.25 335.032C1032.51 335.032 1036.77 339.295 1036.77 344.553C1036.77 349.811 1032.51 354.074
54.074 1027.25 354.074ZM1027.25 315.521C1021.99 315.521 1017.73 311.258 1017.73 306C1017.73 300.742 1021.99 296.479 1027.25 296.479C1032.51 296.479 1036.77 300.742 1036.77 306C1036.77 311.258 1032.51 315.521 1027.25 315.521ZM927.728 323.1C916.13 323.1 905.828 314.598 905.828 302.1C905.828 291.402 916.13 282 927.728 282C939.326 282 948.728 291.402 948.728 302.1C948.728 314.598 939.326 323.1 927.728 323.1ZM1180.09 871C1180.09 1103.61 991.518 1292.18 758.907 1292.18C526.297 1292.18 337.728 1103.61 337.728 871C337.728 638.389 526.297 449.821 758.907 449.821C991.518 449.821 1180.09 638.389 1180.09 871ZM272.728 972C267.205 972 262.728 967.523 262.728 961.1C262.728 956.477 267.205 951.1 272.728 951.1C278.251 951.1 281.828 956.477 281.828 961.1C281.828 967.523 278.251 972 272.728 972ZM120.478 980.284C115.216 980.284 110.95 976.024 110.95 970.769C110.95 965.514 115.216 961.254 120.478 961.254C125.74 961.254 130.005 965.514 130.005 970.769C130.005 976.024 125.74 980.284 120.478 980.284ZM120.478 946.304C115.216 946.304 110.95 942.044 110.95 936.789C110.95 931.534 115.216 927.274 120.478 927.274C125.74 927.274 130.005 931.534 130.005 936.789C130.005 942.044 125.74 946.304 120.478 946.304ZM81.898 980.284C76.636 980.284 72.37 976.024 72.37 970.769C72.37 965.514 76.636 961.254 81.898 961.254C87.16 961.254 91.426 965.514 91.426 970.769C91.426 976.024 87.16 980.284 81.898 980.284ZM81.898 946.304C76.636 946.304 72.37 942.044 72.37 936.789C72.37 931.534 76.636 927.274 81.898 927.274C87.16 927.274 91.426 931.534 91.426 936.789C91.426 942.044 87.16 946.304 81.898 946.304ZM40.607 980.284C35.345 980.284 31.08 976.024 31.08 970.769C31.08 965.514 35.345 961.254 40.607 961.254C45.869 961.254 50.135 965.514 50.135 970.769C50.135 976.024 45.869 980.284 40.607 980.284ZM40.607 946.304C35.345 946.304 31.08 942.044 31.08 936.789C31.08 931.534 35.345 927.274 40.607 927.274C45.869 927.274 50.135 931.534 50.135 936.789C50.135 942.044 45.869 946.304 40.607 946.304ZM1.81901 980.284C-3.44299 980.284 -7.70899 976.024 -7.70899 970.769C-7.70899 965.514 -3.44299 961.254 1.81901 961.254C7.08101 961.254 11.346 965.514 11.346 970.769C11.346 976.024 7.08101 980.284 1.81901 980.284ZM1.81901 946.304C-3.44299 946.304 -7.70899 942.044 -7.70899 936.789C-7.70899 931.534 -3.44299 927.274 1.81901 927.274C7.08101 927.274 11.346 931.534 11.346 936.789C11.346 942.044 7.08101 946.304 1.81901 946.304ZM-39.472 980.284C-44.734 980.284 -49 976.024 -49 970.769C-49 965.514 -44.734 961.254 -39.472 961.254C-34.21 961.254 -29.944 965.514 -29.944 970.769C-29.944 976.024 -34.21 980.284 -39.472 980.284ZM-39.472 946.304C-44.734 946.304 -49 942.044 -49 936.789C-49 931.534 -44.734 927.274 -39.472 927.274C-34.21 927.274 -29.944 931.534 -29.944 936.789C-29.944 942.044 -34.21 946.304 -39.472 946.304Z" fill="#331ACF"/>
<path d="M549.154 695.489C549.154 710.677 561.466 722.989 576.654 722.989C591.842 722.989 604.154 710.677 604.154 695.489C604.154 680.301 591.842 667.989 576.654 667.989C561.466 667.989 549.154 680.301 549.154 695.489ZM480.041 203.986C480.041 212.539 486.975 219.473 495.527 219.473C504.08 219.473 511.014 212.539 511.014 203.986C511.014 195.434 504.08 188.5 495.527 188.5C486.975 188.5 480.041 195.434 480.041 203.986ZM162.5 836.143C162.5 850.779 174.364 862.643 189 862.643C203.636 862.643 215.5 850.779 215.5 836.143C215.5 821.507 203.636 809.643 189 809.643C174.364 809.643 162.5 821.507 162.5 836.143Z" stroke="#1A67FF" stroke-width="7"/>
<path d="M-240.624 1310.75L-240.625 1310.75C-251.296 1300.73 -251.829 1283.96 -241.812 1273.29C-231.796 1262.61 -215.026 1262.09 -204.355 1272.1L-204.354 1272.1C-193.684 1282.12 -193.151 1298.88 -203.166 1309.55L-240.624 1310.75ZM-240.624 1310.75C-229.953 1320.76 -213.184 1320.23 -203.167 1309.56L-240.624 1310.75ZM137.609 1474.2L139.859 1471.8L137.609 1474.2C148.684 1484.59 166.086 1484.04 176.48 1472.98L176.482 1472.97C186.873 1461.9 186.323 1444.49 175.248 1434.1C164.174 1423.71 146.772 1424.25 136.377 1435.33C125.983 1446.4 126.534 1463.81 137.609 1474.2ZM423.031 1051.54L425.426 1048.99L423.031 1051.54C429.267 1057.39 439.067 1057.08 444.921 1050.

85C450.775 1044.62 450.463 1034.81 444.227 1028.96C437.992 1023.11 428.192 1023.41 422.339 1029.65C416.482 1035.88 416.796 1045.69 423.031 1051.54Z" stroke="#1A67FF" stroke-width="7"/>
<path fill-rule="evenodd" clip-rule="evenodd" d="M348.749 62.3039C343.487 62.3039 339.221 58.0439 339.221 52.7889C339.221 47.5339 343.487 43.2739 348.749 43.2739C354.011 43.2739 358.276 47.5339 358.276 52.7889C358.276 58.0439 354.011 62.3039 348.749 62.3039ZM310.169 96.2839C304.907 96.2839 300.641 92.0239 300.641 86.7689C300.641 81.5139 304.907 77.2539 310.169 77.2539C315.431 77.2539 319.697 81.5139 319.697 86.7689C319.697 92.0239 315.431 96.2839 310.169 96.2839ZM310.169 62.3039C304.907 62.3039 300.641 58.0439 300.641 52.7889C300.641 47.5339 304.907 43.2739 310.169 43.2739C315.431 43.2739 319.697 47.5339 319.697 52.7889C319.697 58.0439 315.431 62.3039 310.169 62.3039ZM268.878 96.2839C263.616 96.2839 259.351 92.0239 259.351 86.7689C259.351 81.5139 263.616 77.2539 268.878 77.2539C274.14 77.2539 278.406 81.5139 278.406 86.7689C278.406 92.0239 274.14 96.2839 268.878 96.2839ZM268.878 62.3039C263.616 62.3039 259.351 58.0439 259.351 52.7889C259.351 47.5339 263.616 43.2739 268.878 43.2739C274.14 43.2739 278.406 47.5339 278.406 52.7889C278.406 58.0439 274.14 62.3039 268.878 62.3039ZM230.09 96.2839C224.828 96.2839 220.562 92.0239 220.562 86.7689C220.562 81.5139 224.828 77.2539 230.09 77.2539C235.352 77.2539 239.618 81.5139 239.618 86.7689C239.618 92.0239 235.352 96.2839 230.09 96.2839ZM230.09 62.3039C224.828 62.3039 220.562 58.0439 220.562 52.7889C220.562 47.5339 224.828 43.2739 230.09 43.2739C235.352 43.2739 239.618 47.5339 239.618 52.7889C239.618 58.0439 235.352 62.3039 230.09 62.3039ZM188.799 96.2839C183.537 96.2839 179.271 92.0239 179.271 86.7689C179.271 81.5139 183.537 77.2539 188.799 77.2539C194.061 77.2539 198.327 81.5139 198.327 86.7689C198.327 92.0239 194.061 96.2839 188.799 96.2839ZM188.799 62.3039C183.537 62.3039 179.271 58.0439 179.271 52.7889C179.271 47.5339 183.537 43.2739 188.799 43.2739C194.061 43.2739 198.327 47.5339 198.327 52.7889C198.327 58.0439 194.061 62.3039 188.799 62.3039ZM348.749 77.2539C354.011 77.2539 358.276 81.5139 358.276 86.7689C358.276 92.0239 354.011 96.2839 348.749 96.2839C343.487 96.2839 339.221 92.0239 339.221 86.7689C339.221 81.5139 343.487 77.2539 348.749 77.2539Z" fill="#1A67FF"/>
<path fill-rule="evenodd" clip-rule="evenodd" d="M1816.48 964.03C1811.22 964.03 1806.95 959.77 1806.95 954.515C1806.95 949.26 1811.22 945 1816.48 945C1821.74 945 1826 949.26 1826 954.515C1826 959.77 1821.74 964.03 1816.48 964.03ZM1777.9 998.01C1772.64 998.01 1768.37 993.75 1768.37 988.495C1768.37 983.24 1772.64 978.98 1777.9 978.98C1783.16 978.98 1787.43 983.24 1787.43 988.495C1787.43 993.75 1783.16 998.01 1777.9 998.01ZM1777.9 964.03C1772.64 964.03 1768.37 959.77 1768.37 954.515C1768.37 949.26 1772.64 945 1777.9 945C1783.16 945 1787.43 949.26 1787.43 954.515C1787.43 959.77 1783.16 964.03 1777.9 964.03ZM1736.61 998.01C1731.34 998.01 1727.08 993.75 1727.08 988.495C1727.08 983.24 1731.34 978.98 1736.61 978.98C1741.87 978.98 1746.13 983.24 1746.13 988.495C1746.13 993.75 1741.87 998.01 1736.61 998.01ZM1736.61 964.03C1731.34 964.03 1727.08 959.77 1727.08 954.515C1727.08 949.26 1731.34 945 1736.61 945C1741.87 945 1746.13 949.26 1746.13 954.515C1746.13 959.77 1741.87 964.03 1736.61 964.03ZM1697.82 998.01C1692.56 998.01 1688.29 993.75 1688.29 988.495C1688.29 983.24 1692.56 978.98 1697.82 978.98C1703.08 978.98 1707.35 983.24 1707.35 988.495C1707.35 993.75 1703.08 998.01 1697.82 998.01ZM1697.82 964.03C1692.56 964.03 1688.29 959.77 1688.29 954.515C1688.29 949.26 1692.56 945 1697.82 945C1703.08 945 1707.35 949.26 1707.35 954.515C1707.35 959.77 1703.08 964.03 1697.82 964.03ZM1656.53 998.01C1651.27 998.01 1647 993.75 1647 988.495C1647 983.24 1651.27 978.98 1656.53 978.98C1661.79 978.98 1666.06 983.24 1666.06 988.495C1666.06 993.75 1661.79 998.01 1656.53 998.01ZM1656.53 964.03C1651.27 964.03 1647 959.77 1647 954.515C1647 949.26 1651.27 945 1656.53 945C1661.79 945 1666.06 949.26 1666.06 954.515C1666.06 959.77 1661.79 964.03 1656.53 964.03ZM1816.48

978.98C1821.74 978.98 1826 983.24 1826 988.495C1826 993.75 1821.74 998.01 1816.48 998.01C1811.22 998.01 1806.95 993.75 1806.95 988.495C1806.95 983.24 1811.22 978.98 1816.48 978.98Z" fill="#1A67FF"/>
<path fill-rule="evenodd" clip-rule="evenodd" d="M88.98 1262.48C88.98 1257.22 93.24 1252.95 98.495 1252.95C103.75 1252.95 108.01 1257.22 108.01 1262.48C108.01 1267.74 103.75 1272 98.495 1272C93.24 1272 88.98 1267.74 88.98 1262.48ZM55 1223.9C55 1218.64 59.26 1214.37 64.515 1214.37C69.77 1214.37 74.03 1218.64 74.03 1223.9C74.03 1229.16 69.77 1233.43 64.515 1233.43C59.26 1233.43 55 1229.16 55 1223.9ZM88.98 1223.9C88.98 1218.64 93.24 1214.37 98.495 1214.37C103.75 1214.37 108.01 1218.64 108.01 1223.9C108.01 1229.16 103.75 1233.43 98.495 1233.43C93.24 1233.43 88.98 1229.16 88.98 1223.9ZM55 1182.61C55 1177.34 59.26 1173.08 64.515 1173.08C69.77 1173.08 74.03 1177.34 74.03 1182.61C74.03 1187.87 69.77 1192.13 64.515 1192.13C59.26 1192.13 55 1187.87 55 1182.61ZM88.98 1182.61C88.98 1177.34 93.24 1173.08 98.495 1173.08C103.75 1173.08 108.01 1177.34 108.01 1182.61C108.01 1187.87 103.75 1192.13 98.495 1192.13C93.24 1192.13 88.98 1187.87 88.98 1182.61ZM55 1143.82C55 1138.56 59.26 1134.29 64.515 1134.29C69.77 1134.29 74.03 1138.56 74.03 1143.82C74.03 1149.08 69.77 1153.35 64.515 1153.35C59.26 1153.35 55 1149.08 55 1143.82ZM88.98 1143.82C88.98 1138.56 93.24 1134.29 98.495 1134.29C103.75 1134.29 108.01 1138.56 108.01 1143.82C108.01 1149.08 103.75 1153.35 98.495 1153.35C93.24 1153.35 88.98 1149.08 88.98 1143.82ZM55 1102.53C55 1097.27 59.26 1093 64.515 1093C69.77 1093 74.03 1097.27 74.03 1102.53C74.03 1107.79 69.77 1112.06 64.515 1112.06C59.26 1112.06 55 1107.79 55 1102.53ZM88.98 1102.53C88.98 1097.27 93.24 1093 98.495 1093C103.75 1093 108.01 1097.27 108.01 1102.53C108.01 1107.79 103.75 1112.06 98.495 1112.06C93.24 1112.06 88.98 1107.79 88.98 1102.53ZM74.03 1262.48C74.03 1267.74 69.77 1272 64.515 1272C59.26 1272 55 1267.74 55 1262.48C55 1257.22 59.26 1252.95 64.515 1252.95C69.77 1252.95 74.03 1257.22 74.03 1262.48Z" fill="#1A67FF"/>
<path fill-rule="evenodd" clip-rule="evenodd" d="M897 597C964.931 597 1020 652.069 1020 720C1020 787.931 964.931 843 897 843C829.069 843 774 787.931 774 720C774 652.069 829.069 597 897 597Z" fill="#1A67FF"/>
</g>
</g>
<defs>
<clipPath id="clip0_44_12">
<rect width="1920" height="2403" fill="white"/>
</clipPath>
</defs>
</svg>

