<svg width="1920" height="1580" viewBox="0 0 1920 1580" fill="none" xmlns="http://www.w3.org/2000/svg">
<g clip-path="url(#clip0_128_3)">
<rect width="1920" height="1580" fill="#F3F3FF"/>
<circle cx="177" cy="344" r="167" fill="#CC0256"/>
<circle cx="1929.5" cy="782.5" r="271.5" fill="#331ACF"/>
<circle cx="236.5" cy="1409.5" r="236.5" fill="#331ACF"/>
<circle cx="1643" cy="1491" r="219" fill="#CC0256"/>
<circle cx="1536.5" cy="1019.5" r="112.5" fill="#1A67FF"/>
<circle cx="344" cy="852" r="280" fill="#1A67FF"/>
<circle cx="1545.5" cy="443.5" r="203.5" fill="#CC0256"/>
<circle cx="1862" cy="156" r="103" fill="#1A67FF"/>
<circle cx="283.5" cy="213.5" r="75.5" fill="#1A67FF"/>
<circle cx="1432.5" cy="1409.5" r="59.5" fill="#331ACF"/>
<path d="M163.729 65C164.276 68.1354 166.5 72.0729 170.729 75.2448C172.807 76.8125 174.922 77.8333 177 78.2708V79.8021C172.88 80.7865 168.833 83.5573 166.245 87.3125C164.932 89.2083 164.094 91.0677 163.729 93H162.198C161.578 89.3177 158.734 85.2344 154.87 82.5C152.974 81.151 151.005 80.2396 149 79.8021V78.2708C153.047 77.4323 157.75 73.8229 160.083 70.1406C161.25 68.2813 161.943 66.5677 162.198 65H163.729Z" fill="#331ACF"/>
<path d="M95.7292 1104C96.276 1107.14 98.5 1111.07 102.729 1114.24C104.807 1115.81 106.922 1116.83 109 1117.27V1118.8C104.88 1119.79 100.833 1122.56 98.2448 1126.31C96.9323 1128.21 96.0937 1130.07 95.7292 1132H94.1979C93.5781 1128.32 90.7344 1124.23 86.8698 1121.5C84.974 1120.15 83.0052 1119.24 81 1118.8V1117.27C85.0469 1116.43 89.75 1112.82 92.0833 1109.14C93.25 1107.28 93.9427 1105.57 94.1979 1104H95.7292Z" fill="#CC0256"/>
<path d="M514.729 558C515.276 561.135 517.5 565.073 521.729 568.245C523.807 569.813 525.922 570.833 528 571.271V572.802C523.88 573.786 519.833 576.557 517.245 580.313C515.932 582.208 515.094 584.068 514.729 586H513.198C512.578 582.318 509.734 578.234 505.87 575.5C503.974 574.151 502.005 573.24 500 572.802V571.271C504.047 570.432 508.75 566.823 511.083 563.141C512.25 561.281 512.943 559.568 513.198 558H514.729Z" fill="#CC0256"/>
<path d="M514.729 1441C515.276 1444.14 517.5 1448.07 521.729 1451.24C523.807 1452.81 525.922 1453.83 528 1454.27V1455.8C523.88 1456.79 519.833 1459.56 517.245 1463.31C515.932 1465.21 515.094 1467.07 514.729 1469H513.198C512.578 1465.32 509.734 1461.23 505.87 1458.5C503.974 1457.15 502.005 1456.24 500 1455.8V1454.27C504.047 1453.43 508.75 1449.82 511.083 1446.14C512.25 1444.28 512.943 1442.57 513.198 1441H514.729Z" fill="#1A67FF"/>
<path d="M556.729 1362C557.276 1365.14 559.5 1369.07 563.729 1372.24C565.807 1373.81 567.922 1374.83 570 1375.27V1376.8C565.88 1377.79 561.833 1380.56 559.245 1384.31C557.932 1386.21 557.094 1388.07 556.729 1390H555.198C554.578 1386.32 551.734 1382.23 547.87 1379.5C545.974 1378.15 544.005 1377.24 542 1376.8V1375.27C546.047 1374.43 550.75 1370.82 553.083 1367.14C554.25 1365.28 554.943 1363.57 555.198 1362H556.729Z" fill="#CC0256"/>
<path d="M373.729 386C374.276 389.135 376.5 393.073 380.729 396.245C382.807 397.813 384.922 398.833 387 399.271V400.802C382.88 401.786 378.833 404.557 376.245 408.313C374.932 410.208 374.094 412.068 373.729 414H372.198C371.578 410.318 368.734 406.234 364.87 403.5C362.974 402.151 361.005 401.24 359 400.802V399.271C363.047 398.432 367.75 394.823 370.083 391.141C371.25 389.281 371.943 387.568 372.198 386H373.729Z" fill="#331ACF"/>
<path d="M1608.73 72C1609.28 75.1354 1611.5 79.0729 1615.73 82.2448C1617.81 83.8125 1619.92 84.8333 1622 85.2708V86.8021C1617.88 87.7865 1613.83 90.5573 1611.24 94.3125C1609.93 96.2083 1609.09 98.0677 1608.73 100H1607.2C1606.58 96.3177 1603.73 92.2344 1599.87 89.5C1597.97 88.151 1596.01 87.2396 1594 86.8021V85.2708C1598.05 84.4323 1602.75 80.8229 1605.08 77.1406C1606.25 75.2813 1606.94 73.5677 1607.2 72H1608.73Z" fill="#331ACF"/>
<path d="M1282.73 316C1283.28 319.135 1285.5 323.073 1289.73 326.245C1291.81 327.813 1293.92 328.833 1296 329.271V330.802C1291.88 331.786 1287.83 334.557 1285.24 338.313C1283.93 340.208 1283.09 342.068 1282.73 344H1281.2C1280.58 340.318 1277.73 336.234 1273.87 333.5C1271.97 332.151 1270.01 331.24 1268 330.802V329.271C1272.05 328.432 1276.75 324.823 1279.08 321.141C1280.25 319.281 1280.94 317.568 1281.2 316H1282.73Z" fill="#1A67FF"/>
<path d="M1506.73 1244C1507.28 1247.14 1509.5 1251.07 1513.73 1254.24C1515.81 1255.81 1517.92 1256.83 1520 1257.27V1258.8C1515.88 1259.79 1511.83 1262.56 1509.24 1266.31C1507.93 1268.21 1507.09 1270.07 1506.73 1272H1505.2C1504.58 1268.32 1501.73 1264.23 1497.87 1261.5C1495.97 1260.15 1494.01 1259.24 1492 1258.8V1257.27C1496.05 1256.43 1500.75 1252.82 1503.08 1249.14C1504.25 1247.28 1504.94 1245.57 1505.2 1244H1506.73Z" fill="#331ACF"/>
<path d="M1707.73 1054C1708.28 1057.14 1710.5 1061.07 1714.73 1064.24C1716.81 1065.81 1718.92 1066.83 1721 1067.27V1068.8C1716.88 1069.79 1712.83 1072.56 1710.24 1076.31C1708.93 1078.21 1708.09 1080.07 1707.73 1082H1706.2C1705.58 1078.32 1702.73 1074.23 1698.87 1071.5C1696.97 1070.15 1695.01 1069.24 1693 1068.8V1067.27C1697.05 1066.43 1701.75 1062.82 1704.08 1059.14C1705.25 1057.28 1705.94 1055.57 1706.2 1054H1707.73Z" fill="#CC0256"/>
<path d="M1356.73 907C1357.28 910.135 1359.5 914.073 1363.73 917.245C1365.81 918.813 1367.92 919.833 1370 920.271V921.802C1365.88 922.786 1361.83 925.557 1359.24 929.313C1357.93 931.208 1357.09 933.068 1356.73 935H1355.2C1354.58 931.318 1351.73 927.234 1347.87 924.5C1345.97 923.151 1344.01 922.24 1342 921.802V920.271C1346.05 919.432 1350.75 915.823 1353.08 912.141C1354.25 910.281 1354.94 908.568 1355.2 907H1356.73Z" fill="#CC0256"/>
<path d="M1545.73 685C1546.28 688.135 1548.5 692.073 1552.73 695.245C1554.81 696.813 1556.92 697.833 1559 698.271V699.802C1554.88 700.786 1550.83 703.557 1548.24 707.313C1546.93 709.208 1546.09 711.068 1545.73 713H1544.2C1543.58 709.318 1540.73 705.234 1536.87 702.5C1534.97 701.151 1533.01 700.24 1531 699.802V698.271C1535.05 697.432 1539.75 693.823 1542.08 690.141C1543.25 688.281 1543.94 686.568 1544.2 685H1545.73Z" fill="#331ACF"/>
</g>
<defs>
<clipPath id="clip0_128_3">
<rect width="1920" height="1580" fill="white"/>
</clipPath>
</defs>
</svg>
