<svg width="624" height="1580" viewBox="0 0 624 1580" fill="none" xmlns="http://www.w3.org/2000/svg">
<circle cx="177" cy="279" r="167" fill="#CC0256"/>
<circle cx="236.5" cy="1344.5" r="236.5" fill="#331ACF"/>
<circle cx="344" cy="787" r="280" fill="#1A67FF"/>
<circle cx="283.5" cy="148.5" r="75.5" fill="#1A67FF"/>
<path d="M163.729 0C164.276 3.13542 166.5 7.07292 170.729 10.2448C172.807 11.8125 174.922 12.8333 177 13.2708V14.8021C172.88 15.7865 168.833 18.5573 166.245 22.3125C164.932 24.2083 164.094 26.0677 163.729 28H162.198C161.578 24.3177 158.734 20.2344 154.87 17.5C152.974 16.151 151.005 15.2396 149 14.8021V13.2708C153.047 12.4323 157.75 8.82292 160.083 5.14063C161.25 3.28125 161.943 1.56771 162.198 0H163.729Z" fill="#331ACF"/>
<path d="M95.7292 1039C96.276 1042.14 98.5 1046.07 102.729 1049.24C104.807 1050.81 106.922 1051.83 109 1052.27V1053.8C104.88 1054.79 100.833 1057.56 98.2448 1061.31C96.9323 1063.21 96.0937 1065.07 95.7292 1067H94.1979C93.5781 1063.32 90.7344 1059.23 86.8698 1056.5C84.974 1055.15 83.0052 1054.24 81 1053.8V1052.27C85.0469 1051.43 89.75 1047.82 92.0833 1044.14C93.25 1042.28 93.9427 1040.57 94.1979 1039H95.7292Z" fill="#CC0256"/>
<path d="M514.729 493C515.276 496.135 517.5 500.073 521.729 503.245C523.807 504.813 525.922 505.833 528 506.271V507.802C523.88 508.786 519.833 511.557 517.245 515.313C515.932 517.208 515.094 519.068 514.729 521H513.198C512.578 517.318 509.734 513.234 505.87 510.5C503.974 509.151 502.005 508.24 500 507.802V506.271C504.047 505.432 508.75 501.823 511.083 498.141C512.25 496.281 512.943 494.568 513.198 493H514.729Z" fill="#CC0256"/>
<path d="M514.729 1376C515.276 1379.14 517.5 1383.07 521.729 1386.24C523.807 1387.81 525.922 1388.83 528 1389.27V1390.8C523.88 1391.79 519.833 1394.56 517.245 1398.31C515.932 1400.21 515.094 1402.07 514.729 1404H513.198C512.578 1400.32 509.734 1396.23 505.87 1393.5C503.974 1392.15 502.005 1391.24 500 1390.8V1389.27C504.047 1388.43 508.75 1384.82 511.083 1381.14C512.25 1379.28 512.943 1377.57 513.198 1376H514.729Z" fill="#1A67FF"/>
<path d="M556.729 1297C557.276 1300.14 559.5 1304.07 563.729 1307.24C565.807 1308.81 567.922 1309.83 570 1310.27V1311.8C565.88 1312.79 561.833 1315.56 559.245 1319.31C557.932 1321.21 557.094 1323.07 556.729 1325H555.198C554.578 1321.32 551.734 1317.23 547.87 1314.5C545.974 1313.15 544.005 1312.24 542 1311.8V1310.27C546.047 1309.43 550.75 1305.82 553.083 1302.14C554.25 1300.28 554.943 1298.57 555.198 1297H556.729Z" fill="#CC0256"/>
<path d="M373.729 321C374.276 324.135 376.5 328.073 380.729 331.245C382.807 332.813 384.922 333.833 387 334.271V335.802C382.88 336.786 378.833 339.557 376.245 343.313C374.932 345.208 374.094 347.068 373.729 349H372.198C371.578 345.318 368.734 341.234 364.87 338.5C362.974 337.151 361.005 336.24 359 335.802V334.271C363.047 333.432 367.75 329.823 370.083 326.141C371.25 324.281 371.943 322.568 372.198 321H373.729Z" fill="#331ACF"/>
</svg>
