<svg width="697" height="1580" viewBox="0 0 697 1580" fill="none" xmlns="http://www.w3.org/2000/svg">
<circle cx="631.16" cy="696.041" r="259.047" fill="#331ACF"/>
<circle cx="357.8" cy="1372.05" r="208.955" fill="#CC0256"/>
<circle cx="256.185" cy="922.17" r="107.34" fill="#1A67FF"/>
<circle cx="264.772" cy="372.589" r="194.166" fill="#CC0256"/>
<circle cx="566.756" cy="98.2758" r="98.2758" fill="#1A67FF"/>
<circle cx="156.955" cy="1294.28" r="56.771" fill="#331ACF"/>
<path d="M325.101 18.129C325.623 21.1206 327.745 24.8775 331.78 27.9039C333.763 29.3997 335.781 30.3737 337.763 30.7911V32.2521C333.833 33.1914 329.971 35.8351 327.502 39.4181C326.249 41.227 325.449 43.0011 325.101 44.8447H323.64C323.049 41.3313 320.336 37.4353 316.648 34.8263C314.839 33.5392 312.961 32.6696 311.048 32.2521V30.7911C314.909 29.9911 319.396 26.5472 321.623 23.0338C322.736 21.2597 323.397 19.6248 323.64 18.129H325.101Z" fill="#331ACF"/>
<path d="M14.0537 250.938C14.5755 253.929 16.6974 257.686 20.7326 260.712C22.7154 262.208 24.733 263.182 26.7158 263.6V265.061C22.785 266 18.9237 268.644 16.4539 272.227C15.2016 274.036 14.4015 275.81 14.0537 277.653H12.5927C12.0013 274.14 9.28797 270.244 5.60064 267.635C3.79176 266.348 1.91331 265.478 6.86646e-05 265.061V263.6C3.86133 262.8 8.34874 259.356 10.5751 255.842C11.6882 254.068 12.3491 252.433 12.5927 250.938H14.0537Z" fill="#1A67FF"/>
<path d="M227.779 1136.37C228.301 1139.37 230.423 1143.12 234.458 1146.15C236.441 1147.64 238.459 1148.62 240.442 1149.04V1150.5C236.511 1151.44 232.65 1154.08 230.18 1157.66C228.927 1159.47 228.127 1161.25 227.779 1163.09H226.318C225.727 1159.58 223.014 1155.68 219.326 1153.07C217.518 1151.78 215.639 1150.91 213.726 1150.5V1149.04C217.587 1148.24 222.075 1144.79 224.301 1141.28C225.414 1139.5 226.075 1137.87 226.318 1136.37H227.779Z" fill="#331ACF"/>
<path d="M419.561 955.088C420.082 958.08 422.204 961.836 426.239 964.863C428.222 966.359 430.24 967.333 432.223 967.75V969.211C428.292 970.15 424.431 972.794 421.961 976.377C420.708 978.186 419.908 979.96 419.561 981.804H418.099C417.508 978.29 414.795 974.394 411.107 971.785C409.299 970.498 407.42 969.629 405.507 969.211V967.75C409.368 966.95 413.856 963.506 416.082 959.993C417.195 958.219 417.856 956.584 418.099 955.088H419.561Z" fill="#CC0256"/>
<path d="M84.6596 814.83C85.1814 817.822 87.3034 821.579 91.3386 824.605C93.3214 826.101 95.339 827.075 97.3218 827.492V828.953C93.3909 829.893 89.5297 832.536 87.0599 836.119C85.8076 837.928 85.0075 839.702 84.6596 841.546H83.1986C82.6072 838.032 79.8939 834.136 76.2066 831.527C74.3977 830.24 72.5193 829.371 70.606 828.953V827.492C74.4673 826.692 78.9547 823.248 81.181 819.735C82.2942 817.961 82.9551 816.326 83.1986 814.83H84.6596Z" fill="#CC0256"/>
<path d="M264.991 603.013C265.513 606.004 267.635 609.761 271.67 612.788C273.653 614.283 275.67 615.257 277.653 615.675V617.136C273.722 618.075 269.861 620.719 267.391 624.302C266.139 626.111 265.339 627.885 264.991 629.729H263.53C262.939 626.215 260.225 622.319 256.538 619.71C254.729 618.423 252.851 617.553 250.937 617.136V615.675C254.799 614.875 259.286 611.431 261.512 607.918C262.625 606.144 263.286 604.509 263.53 603.013H264.991Z" fill="#331ACF"/>
</svg>
