<svg width="1864" height="186" viewBox="0 0 1864 186" fill="none" xmlns="http://www.w3.org/2000/svg">
<path d="M183.729 14C184.276 17.1354 186.5 21.0729 190.729 24.2448C192.807 25.8125 194.922 26.8333 197 27.2708V28.8021C192.88 29.7865 188.833 32.5573 186.245 36.3125C184.932 38.2083 184.094 40.0677 183.729 42H182.198C181.578 38.3177 178.734 34.2344 174.87 31.5C172.974 30.151 171.005 29.2396 169 28.8021V27.2708C173.047 26.4323 177.75 22.8229 180.083 19.1406C181.25 17.2813 181.943 15.5677 182.198 14H183.729Z" fill="#331ACF"/>
<path d="M91.7292 158C92.276 161.135 94.5 165.073 98.7292 168.245C100.807 169.813 102.922 170.833 105 171.271V172.802C100.88 173.786 96.8333 176.557 94.2448 180.313C92.9323 182.208 92.0937 184.068 91.7292 186H90.1979C89.5781 182.318 86.7344 178.234 82.8698 175.5C80.974 174.151 79.0052 173.24 77 172.802V171.271C81.0469 170.432 85.75 166.823 88.0833 163.141C89.25 161.281 89.9427 159.568 90.1979 158H91.7292Z" fill="#1A67FF"/>
<path d="M1808.73 0C1809.28 3.13542 1811.5 7.07292 1815.73 10.2448C1817.81 11.8125 1819.92 12.8333 1822 13.2708V14.8021C1817.88 15.7865 1813.83 18.5573 1811.24 22.3125C1809.93 24.2083 1809.09 26.0677 1808.73 28H1807.2C1806.58 24.3177 1803.73 20.2344 1799.87 17.5C1797.97 16.151 1796.01 15.2396 1794 14.8021V13.2708C1798.05 12.4323 1802.75 8.82292 1805.08 5.14063C1806.25 3.28125 1806.94 1.56771 1807.2 0H1808.73Z" fill="#CC0256"/>
<path d="M1850.73 83C1851.28 86.1354 1853.5 90.0729 1857.73 93.2448C1859.81 94.8125 1861.92 95.8333 1864 96.2708V97.8021C1859.88 98.7865 1855.83 101.557 1853.24 105.313C1851.93 107.208 1851.09 109.068 1850.73 111H1849.2C1848.58 107.318 1845.73 103.234 1841.87 100.5C1839.97 99.151 1838.01 98.2396 1836 97.8021V96.2708C1840.05 95.4323 1844.75 91.8229 1847.08 88.1406C1848.25 86.2813 1848.94 84.5677 1849.2 83H1850.73Z" fill="#331ACF"/>
<circle cx="61" cy="64" r="61" fill="#CC0256"/>
</svg>
