<svg width="1920" height="652" viewBox="0 0 1920 652" fill="none" xmlns="http://www.w3.org/2000/svg">
<rect width="1920" height="652" fill="#F3F6FF"/>
<rect width="1920" height="326" fill="#1A67FF" fill-opacity="0.4"/>
<path d="M215.729 41C216.276 44.1354 218.5 48.0729 222.729 51.2448C224.807 52.8125 226.922 53.8333 229 54.2708V55.8021C224.88 56.7865 220.833 59.5573 218.245 63.3125C216.932 65.2083 216.094 67.0677 215.729 69H214.198C213.578 65.3177 210.734 61.2344 206.87 58.5C204.974 57.151 203.005 56.2396 201 55.8021V54.2708C205.047 53.4323 209.75 49.8229 212.083 46.1406C213.25 44.2813 213.943 42.5677 214.198 41H215.729Z" fill="#331ACF"/>
<path d="M123.729 185C124.276 188.135 126.5 192.073 130.729 195.245C132.807 196.813 134.922 197.833 137 198.271V199.802C132.88 200.786 128.833 203.557 126.245 207.313C124.932 209.208 124.094 211.068 123.729 213H122.198C121.578 209.318 118.734 205.234 114.87 202.5C112.974 201.151 111.005 200.24 109 199.802V198.271C113.047 197.432 117.75 193.823 120.083 190.141C121.25 188.281 121.943 186.568 122.198 185H123.729Z" fill="#1A67FF"/>
<path d="M168.729 594C169.276 597.135 171.5 601.073 175.729 604.245C177.807 605.813 179.922 606.833 182 607.271V608.802C177.88 609.786 173.833 612.557 171.245 616.313C169.932 618.208 169.094 620.068 168.729 622H167.198C166.578 618.318 163.734 614.234 159.87 611.5C157.974 610.151 156.005 609.24 154 608.802V607.271C158.047 606.432 162.75 602.823 165.083 599.141C166.25 597.281 166.943 595.568 167.198 594H168.729Z" fill="#1A67FF"/>
<path d="M1840.73 27C1841.28 30.1354 1843.5 34.0729 1847.73 37.2448C1849.81 38.8125 1851.92 39.8333 1854 40.2708V41.8021C1849.88 42.7865 1845.83 45.5573 1843.24 49.3125C1841.93 51.2083 1841.09 53.0677 1840.73 55H1839.2C1838.58 51.3177 1835.73 47.2344 1831.87 44.5C1829.97 43.151 1828.01 42.2396 1826 41.8021V40.2708C1830.05 39.4323 1834.75 35.8229 1837.08 32.1406C1838.25 30.2813 1838.94 28.5677 1839.2 27H1840.73Z" fill="#CC0256"/>
<path d="M1725.73 564C1726.28 567.135 1728.5 571.073 1732.73 574.245C1734.81 575.813 1736.92 576.833 1739 577.271V578.802C1734.88 579.786 1730.83 582.557 1728.24 586.313C1726.93 588.208 1726.09 590.068 1725.73 592H1724.2C1723.58 588.318 1720.73 584.234 1716.87 581.5C1714.97 580.151 1713.01 579.24 1711 578.802V577.271C1715.05 576.432 1719.75 572.823 1722.08 569.141C1723.25 567.281 1723.94 565.568 1724.2 564H1725.73Z" fill="#CC0256"/>
<path d="M1882.73 110C1883.28 113.135 1885.5 117.073 1889.73 120.245C1891.81 121.813 1893.92 122.833 1896 123.271V124.802C1891.88 125.786 1887.83 128.557 1885.24 132.313C1883.93 134.208 1883.09 136.068 1882.73 138H1881.2C1880.58 134.318 1877.73 130.234 1873.87 127.5C1871.97 126.151 1870.01 125.24 1868 124.802V123.271C1872.05 122.432 1876.75 118.823 1879.08 115.141C1880.25 113.281 1880.94 111.568 1881.2 110H1882.73Z" fill="#331ACF"/>
<path d="M63.7292 478C64.276 481.135 66.5 485.073 70.7292 488.245C72.8073 489.813 74.9219 490.833 77 491.271V492.802C72.8802 493.786 68.8333 496.557 66.2448 500.313C64.9323 502.208 64.0937 504.068 63.7292 506H62.1979C61.5781 502.318 58.7344 498.234 54.8698 495.5C52.974 494.151 51.0052 493.24 49 492.802V491.271C53.0469 490.432 57.75 486.823 60.0833 483.141C61.25 481.281 61.9427 479.568 62.1979 478H63.7292Z" fill="#CC0256"/>
<circle cx="93" cy="91" r="61" fill="#CC0256"/>
<circle cx="1844" cy="564" r="44" fill="#1A67FF"/>
<circle cx="1807" cy="503" r="61" fill="#331ACF"/>
</svg>
