<svg width="1839" height="180" viewBox="0 0 1839 180" fill="none" xmlns="http://www.w3.org/2000/svg">
<path d="M119.729 152C120.276 155.135 122.5 159.073 126.729 162.245C128.807 163.813 130.922 164.833 133 165.271V166.802C128.88 167.786 124.833 170.557 122.245 174.313C120.932 176.208 120.094 178.068 119.729 180H118.198C117.578 176.318 114.734 172.234 110.87 169.5C108.974 168.151 107.005 167.24 105 166.802V165.271C109.047 164.432 113.75 160.823 116.083 157.141C117.25 155.281 117.943 153.568 118.198 152H119.729Z" fill="#1A67FF"/>
<path d="M1676.73 122C1677.28 125.135 1679.5 129.073 1683.73 132.245C1685.81 133.813 1687.92 134.833 1690 135.271V136.802C1685.88 137.786 1681.83 140.557 1679.24 144.313C1677.93 146.208 1677.09 148.068 1676.73 150H1675.2C1674.58 146.318 1671.73 142.234 1667.87 139.5C1665.97 138.151 1664.01 137.24 1662 136.802V135.271C1666.05 134.432 1670.75 130.823 1673.08 127.141C1674.25 125.281 1674.94 123.568 1675.2 122H1676.73Z" fill="#CC0256"/>
<path d="M14.7292 36C15.276 39.1354 17.5 43.0729 21.7292 46.2448C23.8073 47.8125 25.9219 48.8333 28 49.2708V50.8021C23.8802 51.7865 19.8333 54.5573 17.2448 58.3125C15.9323 60.2083 15.0937 62.0677 14.7292 64H13.1979C12.5781 60.3177 9.73438 56.2344 5.86979 53.5C3.97396 52.151 2.00521 51.2396 0 50.8021V49.2708C4.04688 48.4323 8.75 44.8229 11.0833 41.1406C12.25 39.2813 12.9427 37.5677 13.1979 36H14.7292Z" fill="#CC0256"/>
<circle cx="1795" cy="122" r="44" fill="#1A67FF"/>
<circle cx="1758" cy="61" r="61" fill="#331ACF"/>
</svg>
