<svg width="1920" height="2403" viewBox="0 0 1920 2403" fill="none" xmlns="http://www.w3.org/2000/svg">
<g clip-path="url(#clip0_66_76)">
<g clip-path="url(#clip1_66_76)">
<circle cx="1420" cy="2351" r="100" fill="#1A67FF"/>
<circle cx="1602" cy="2181" r="214" fill="#331ACF"/>
<circle cx="221" cy="899" r="142" fill="#331ACF"/>
<ellipse cx="211.5" cy="328" rx="388.5" ry="383" fill="#1A67FF"/>
<circle cx="856" cy="178" r="99" fill="#331ACF"/>
<circle cx="1656" cy="159" r="161" fill="#CC0256"/>
<circle cx="481" cy="976" r="219" fill="#CC0256"/>
<circle cx="1702" cy="774" r="125" fill="#331ACF"/>
<circle cx="1366" cy="1015" r="85" fill="#1A67FF"/>
<circle cx="1765" cy="650" r="75" fill="#CC0256"/>
<circle cx="903" cy="831" r="99" fill="#331ACF"/>
<circle cx="843.5" cy="2199.5" r="116.5" fill="#CC0256"/>
<circle cx="184.5" cy="2287.5" r="163.5" fill="#331ACF"/>
<circle cx="1778.5" cy="1465.5" r="116.5" fill="#1A67FF"/>
<circle cx="340.5" cy="2351.5" r="63.5" fill="#CC0256"/>
<circle cx="145" cy="1349" r="76" fill="#1A67FF"/>
<path d="M1381.28 140.512C1380.74 137.416 1378.54 133.528 1374.37 130.396C1372.31 128.848 1370.23 127.84 1368.17 127.408V125.896C1372.24 124.924 1376.24 122.188 1378.79 118.48C1380.09 116.608 1380.92 114.772 1381.28 112.864H1382.79C1383.4 116.5 1386.21 120.532 1390.03 123.232C1391.9 124.564 1393.84 125.464 1395.82 125.896V127.408C1391.83 128.236 1387.18 131.8 1384.88 135.436C1383.73 137.272 1383.04 138.964 1382.79 140.512H1381.28Z" fill="#331ACF"/>
<path d="M1816.28 435.512C1815.74 432.416 1813.54 428.528 1809.37 425.396C1807.31 423.848 1805.23 422.84 1803.17 422.408V420.896C1807.24 419.924 1811.24 417.188 1813.79 413.48C1815.09 411.608 1815.92 409.772 1816.28 407.864H1817.79C1818.4 411.5 1821.21 415.532 1825.03 418.232C1826.9 419.564 1828.84 420.464 1830.82 420.896V422.408C1826.83 423.236 1822.18 426.8 1819.88 430.436C1818.73 432.272 1818.04 433.964 1817.79 435.512H1816.28Z" fill="#331ACF"/>
<path d="M153.278 1191.51C152.738 1188.42 150.542 1184.53 146.366 1181.4C144.314 1179.85 142.226 1178.84 140.174 1178.41V1176.9C144.242 1175.92 148.238 1173.19 150.794 1169.48C152.09 1167.61 152.918 1165.77 153.278 1163.86H154.79C155.402 1167.5 158.21 1171.53 162.026 1174.23C163.898 1175.56 165.842 1176.46 167.822 1176.9V1178.41C163.826 1179.24 159.182 1182.8 156.878 1186.44C155.726 1188.27 155.042 1189.96 154.79 1191.51H153.278Z" fill="#CC0256"/>
<path d="M1607.28 1079.51C1606.74 1076.42 1604.54 1072.53 1600.37 1069.4C1598.31 1067.85 1596.23 1066.84 1594.17 1066.41V1064.9C1598.24 1063.92 1602.24 1061.19 1604.79 1057.48C1606.09 1055.61 1606.92 1053.77 1607.28 1051.86H1608.79C1609.4 1055.5 1612.21 1059.53 1616.03 1062.23C1617.9 1063.56 1619.84 1064.46 1621.82 1064.9V1066.41C1617.83 1067.24 1613.18 1070.8 1610.88 1074.44C1609.73 1076.27 1609.04 1077.96 1608.79 1079.51H1607.28Z" fill="#331ACF"/>
<path d="M169.278 258.512C168.738 255.416 166.542 251.528 162.366 248.396C160.314 246.848 158.226 245.84 156.174 245.408V243.896C160.242 242.924 164.238 240.188 166.794 236.48C168.09 234.608 168.918 232.772 169.278 230.864H170.79C171.402 234.5 174.21 238.532 178.026 241.232C179.898 242.564 181.842 243.464 183.822 243.896V245.408C179.826 246.236 175.182 249.8 172.878 253.436C171.726 255.272 171.042 256.964 170.79 258.512H169.278Z" fill="#CC0256"/>
<path d="M1661.28 1737.51C1660.74 1734.42 1658.54 1730.53 1654.37 1727.4C1652.31 1725.85 1650.23 1724.84 1648.17 1724.41V1722.9C1652.24 1721.92 1656.24 1719.19 1658.79 1715.48C1660.09 1713.61 1660.92 1711.77 1661.28 1709.86H1662.79C1663.4 1713.5 1666.21 1717.53 1670.03 1720.23C1671.9 1721.56 1673.84 1722.46 1675.82 1722.9V1724.41C1671.83 1725.24 1667.18 1728.8 1664.88 1732.44C1663.73 1734.27 1663.04 1735.96 1662.79 1737.51H1661.28Z" fill="#CC0256"/>
<path d="M664.278 1432.51C663.738 1429.42 661.542 1425.53 657.366 1422.4C655.314 1420.85 653.226 1419.84 651.174 1419.41V1417.9C655.242 1416.92 659.238 1414.19 661.794 1410.48C663.09 1408.61 663.918 1406.77 664.278 1404.86H665.79C666.402 1408.5 669.21 1412.53 673.026 1415.23C674.898 1416.56 676.842 1417.46 678.822 1417.9V1419.41C674.826 1420.24 670.182 1423.8 667.878 1427.44C666.726 1429.27 666.042 1430.96 665.79 1432.51H664.278Z" fill="#331ACF"/>
<path d="M1181.28 2145.51C1180.74 2142.42 1178.54 2138.53 1174.37 2135.4C1172.31 2133.85 1170.23 2132.84 1168.17 2132.41V2130.9C1172.24 2129.92 1176.24 2127.19 1178.79 2123.48C1180.09 2121.61 1180.92 2119.77 1181.28 2117.86H1182.79C1183.4 2121.5 1186.21 2125.53 1190.03 2128.23C1191.9 2129.56 1193.84 2130.46 1195.82 2130.9V2132.41C1191.83 2133.24 1187.18 2136.8 1184.88 2140.44C1183.73 2142.27 1183.04 2143.96 1182.79 2145.51H1181.28Z" fill="#331ACF"/>
<path d="M648.278 2407.51C647.738 2404.42 645.542 2400.53 641.366 2397.4C639.314 2395.85 637.226 2394.84 635.174 2394.41V2392.9C639.242 2391.92 643.238 2389.19 645.794 2385.48C647.09 2383.61 647.918 2381.77 648.278 2379.86H649.79C650.402 2383.5 653.21 2387.53 657.026 2390.23C658.898 2391.56 660.842 2392.46 662.822 2392.9V2394.41C658.826 2395.24 654.182 2398.8 651.878 2402.44C650.726 2404.27 650.042 2405.96 649.79 2407.51H648.278Z" fill="#CC0256"/>
<circle cx="1456.5" cy="1285.5" r="63.5" fill="#CC0256"/>
<path d="M1063.28 1350.51C1062.74 1347.42 1060.54 1343.53 1056.37 1340.4C1054.31 1338.85 1052.23 1337.84 1050.17 1337.41V1335.9C1054.24 1334.92 1058.24 1332.19 1060.79 1328.48C1062.09 1326.61 1062.92 1324.77 1063.28 1322.86H1064.79C1065.4 1326.5 1068.21 1330.53 1072.03 1333.23C1073.9 1334.56 1075.84 1335.46 1077.82 1335.9V1337.41C1073.83 1338.24 1069.18 1341.8 1066.88 1345.44C1065.73 1347.27 1065.04 1348.96 1064.79 1350.51H1063.28Z" fill="#CC0256"/>
<path d="M760.278 268.512C759.738 265.416 757.542 261.528 753.366 258.396C751.314 256.848 749.226 255.84 747.174 255.408V253.896C751.242 252.924 755.238 250.188 757.794 246.48C759.09 244.608 759.918 242.772 760.278 240.864H761.79C762.402 244.5 765.21 248.532 769.026 251.232C770.898 252.564 772.842 253.464 774.822 253.896V255.408C770.826 256.236 766.182 259.8 763.878 263.436C762.726 265.272 762.042 266.964 761.79 268.512H760.278Z" fill="#CC0256"/>
<path d="M1004.28 921.512C1003.74 918.416 1001.54 914.528 997.366 911.396C995.314 909.848 993.226 908.84 991.174 908.408V906.896C995.242 905.924 999.238 903.188 1001.79 899.48C1003.09 897.608 1003.92 895.772 1004.28 893.864H1005.79C1006.4 897.5 1009.21 901.532 1013.03 904.232C1014.9 905.564 1016.84 906.464 1018.82 906.896V908.408C1014.83 909.236 1010.18 912.8 1007.88 916.436C1006.73 918.272 1006.04 919.964 1005.79 921.512H1004.28Z" fill="#CC0256"/>
<path d="M477.278 616.512C476.738 613.416 474.542 609.528 470.366 606.396C468.314 604.848 466.226 603.84 464.174 603.408V601.896C468.242 600.924 472.238 598.188 474.794 594.48C476.09 592.608 476.918 590.772 477.278 588.864H478.79C479.402 592.5 482.21 596.532 486.026 599.232C487.898 600.564 489.842 601.464 491.822 601.896V603.408C487.826 604.236 483.182 607.8 480.878 611.436C479.726 613.272 479.042 614.964 478.79 616.512H477.278Z" fill="#331ACF"/>
<path d="M1485.28 572.512C1484.74 569.416 1482.54 565.528 1478.37 562.396C1476.31 560.848 1474.23 559.84 1472.17 559.408V557.896C1476.24 556.924 1480.24 554.188 1482.79 550.48C1484.09 548.608 1484.92 546.772 1485.28 544.864H1486.79C1487.4 548.5 1490.21 552.532 1494.03 555.232C1495.9 556.564 1497.84 557.464 1499.82 557.896V559.408C1495.83 560.236 1491.18 563.8 1488.88 567.436C1487.73 569.272 1487.04 570.964 1486.79 572.512H1485.28Z" fill="#CC0256"/>
</g>
</g>
<defs>
<clipPath id="clip0_66_76">
<rect width="1920" height="2403" fill="white"/>
</clipPath>
<clipPath id="clip1_66_76">
<rect width="1920" height="2403" fill="white" transform="translate(0 71)"/>
</clipPath>
</defs>
</svg>
