<svg width="1920" height="1394" viewBox="0 0 1920 1394" fill="none" xmlns="http://www.w3.org/2000/svg">
<g clip-path="url(#clip0_9_6)">
<circle cx="221.5" cy="317.5" r="451.5" fill="url(#paint0_linear_9_6)"/>
<circle cx="1919.5" cy="1220.5" r="451.5" fill="url(#paint1_linear_9_6)"/>
<path fill-rule="evenodd" clip-rule="evenodd" d="M1915.82 1241.3C1810.92 1241.3 1727.51 1157.9 1727.51 1053.9C1727.51 949.896 1810.92 865.587 1915.82 865.587C2019.82 865.587 2104.13 949.896 2104.13 1053.9C2104.13 1157.9 2019.82 1241.3 1915.82 1241.3ZM704.028 217.41C599.533 217.41 513.923 132.7 513.923 28.205C513.923 -76.29 599.533 -161 704.028 -161C808.523 -161 893.233 -76.29 893.233 28.205C893.233 132.7 808.523 217.41 704.028 217.41ZM-19.177 671.903C-170.405 671.903 -293 549.308 -293 398.08C-293 246.851 -170.405 124.256 -19.177 124.256C132.051 124.256 254.646 246.851 254.646 398.08C254.646 549.308 132.051 671.903 -19.177 671.903ZM792.487 386.094C799.107 386.094 804.473 391.46 804.473 398.08C804.473 404.7 799.107 410.066 792.487 410.066C785.867 410.066 780.501 404.7 780.501 398.08C780.501 391.46 785.867 386.094 792.487 386.094Z" fill="#19C6FF"/>
<path fill-rule="evenodd" clip-rule="evenodd" d="M1798 -81C1907.9 -81 1997 8.095 1997 118C1997 227.905 1907.9 317 1798 317C1688.1 317 1599 227.905 1599 118C1599 8.095 1688.1 -81 1798 -81Z" fill="white"/>
<path fill-rule="evenodd" clip-rule="evenodd" d="M1063.25 480.359C1057.99 480.359 1052.83 476.096 1052.83 470.838C1052.83 465.58 1057.99 461.317 1063.25 461.317C1068.51 461.317 1072.77 465.58 1072.77 470.838C1072.77 476.096 1068.51 480.359 1063.25 480.359ZM1063.25 439.097C1057.99 439.097 1052.83 434.834 1052.83 429.576C1052.83 424.318 1057.99 420.055 1063.25 420.055C1068.51 420.055 1072.77 424.318 1072.77 429.576C1072.77 434.834 1068.51 439.097 1063.25 439.097ZM1063.25 400.336C1057.99 400.336 1052.83 396.073 1052.83 390.815C1052.83 385.557 1057.99 381.294 1063.25 381.294C1068.51 381.294 1072.77 385.557 1072.77 390.815C1072.77 396.073 1068.51 400.336 1063.25 400.336ZM1063.25 359.074C1057.99 359.074 1052.83 354.811 1052.83 349.553C1052.83 344.295 1057.99 340.032 1063.25 340.032C1068.51 340.032 1072.77 344.295 1072.77 349.553C1072.77 354.811 1068.51 359.074 1063.25 359.074ZM1063.25 320.521C1057.99 320.521 1052.83 316.258 1052.83 311C1052.83 305.742 1057.99 301.479 1063.25 301.479C1068.51 301.479 1072.77 305.742 1072.77 311C1072.77 316.258 1068.51 320.521 1063.25 320.521ZM1029.25 480.359C1023.99 480.359 1019.73 476.096 1019.73 470.838C1019.73 465.58 1023.99 461.317 1029.25 461.317C1034.51 461.317 1038.77 465.58 1038.77 470.838C1038.77 476.096 1034.51 480.359 1029.25 480.359ZM1029.25 439.097C1023.99 439.097 1019.73 434.834 1019.73 429.576C1019.73 424.318 1023.99 420.055 1029.25 420.055C1034.51 420.055 1038.77 424.318 1038.77 429.576C1038.77 434.834 1034.51 439.097 1029.25 439.097ZM1029.25 400.336C1023.99 400.336 1019.73 396.073 1019.73 390.815C1019.73 385.557 1023.99 381.294 1029.25 381.294C1034.51 381.294 1038.77 385.557 1038.77 390.815C1038.77 396.073 1034.51 400.336 1029.25 400.336ZM1029.25 359.074C1023.99 359.074 1019.73 354.811 1019.73 349.553C1019.73 344.295 1023.99 340.032 1029.25 340.032C1034.51 340.032 1038.77 344.295 1038.77 349.553C1038.77 354.811 1034.51 359.074 1029.25 359.074ZM1029.25 320.521C1023.99 320.521 1019.73 316.258 1019.73 311C1019.73 305.742 1023.99 301.479 1029.25 301.479C1034.51 301.479 1038.77 305.742 1038.77 311C1038.77 316.258 1034.51 320.521 1029.25 320.521ZM929.728 328.1C918.13 328.1 907.828 319.598 907.828 307.1C907.828 296.402 918.13 287 929.728 287C941.326 287 950.728 296.402 950.728 307.1C950.728 319.598 941.326 328.1 929.728 328.1ZM1182.09 876C1182.09 1108.61 993.518 1297.18 760.907 1297.18C528.297 1297.18 339.728 1108.61 339.728 876C339.728 643.389 528.297 454.821 760.907 454.821C993.518 454.821 1182.09 643.389 1182.09 876ZM274.728 977C269.205 977 264.728 972.523 264.728 966.1C264.728 961.477 269.205 956.1 274.728 956.1C280.251 956.1 283.828 961.477 283.828 966.1C283.828 972.523 280.251 977 274.728 977ZM122.478 985.284C117.216 985.284 112.95 981.024 112.95 975.769C112.95 970.514 117.216 966.254 122.478 966.254C127.74 966.254 132.005 970.514 132.005 975.769C132.005 981.024 127.74 985.284 122.478 985.284ZM122.478 951.304C117.216 951.304 112.95 947.044 112.95 941.789C112.95 936.534 117.216 932.274 122.478 932.274C127.74 932.274 132.005 936.534 132.005 941.789C132.005 947.044 127.74 951.304 122.478 951.304ZM83.898 985.284C78.636 985.284 74.37 981.024 74.37 975.769C74.37 970.514 78.636 966.254 83.898 966.254C89.16 966.254 93.426 970.514 93.426 975.769C93.426 981.024 89.16 985.284 83.898 985.284ZM83.898 951.304C78.636 951.304 74.37 947.044 74.37 941.789C74.37 936.534 78.636 932.274 83.898 932.274C89.16 932.274 93.426 936.534 93.426 941.789C93.426 947.044 89.16 951.304 83.898 951.304ZM42.607 985.284C37.345 985.284 33.08 981.024 33.08 975.769C33.08 970.514 37.345 966.254 42.607 966.254C47.869 966.254 52.135 970.514 52.135 975.769C52.135 981.024 47.869 985.284 42.607 985.284ZM42.607 951.304C37.345 951.304 33.08 947.044 33.08 941.789C33.08 936.534 37.345 932.274 42.607 932.274C47.869 932.274 52.135 936.534 52.135 941.789C52.135 947.044 47.869 951.304 42.607 951.304ZM3.819 985.284C-1.443 985.284 -5.709 981.024 -5.709 975.769C-5.709 970.514 -1.443 966.254 3.819 966.254C9.081 966.254 13.346 970.514 13.346 975.769C13.346 981.024 9.081 985.284 3.819 985.284ZM3.819 951.304C-1.443 951.304 -5.709 947.044 -5.709 941.789C-5.709 936.534 -1.443 932.274 3.819 932.274C9.081 932.274 13.346 936.534 13.346 941.789C13.346 947.044 9.081 951.304 3.819 951.304ZM-37.472 985.284C-42.734 985.284 -47 981.024 -47 975.769C-47 970.514 -42.734 966.254 -37.472 966.254C-32.21 966.254 -27.944 970.514 -27.944 975.769C-27.944 981.024 -32.21 985.284 -37.472 985.284ZM-37.472 951.304C-42.734 951.304 -47 947.044 -47 941.789C-47 936.534 -42.734 932.274 -37.472 932.274C-32.21 932.274 -27.944 936.534 -27.944 941.789C-27.944 947.044 -32.21 951.304 -37.472 951.304Z" fill="#196AFF"/>
<path fill-rule="evenodd" clip-rule="evenodd" d="M578.654 724.489C565.399 724.489 554.654 713.744 554.654 700.489C554.654 687.234 565.399 676.489 578.654 676.489C591.909 676.489 602.654 687.234 602.654 700.489C602.654 713.744 591.909 724.489 578.654 724.489ZM497.527 220.973C490.908 220.973 485.541 215.606 485.541 208.986C485.541 202.367 490.908 197 497.527 197C504.147 197 509.514 202.367 509.514 208.986C509.514 215.606 504.147 220.973 497.527 220.973ZM191 864.143C178.297 864.143 168 853.846 168 841.143C168 828.44 178.297 818.143 191 818.143C203.703 818.143 214 828.44 214 841.143C214 853.846 203.703 864.143 191 864.143Z" stroke="white" stroke-width="7"/>
<path fill-rule="evenodd" clip-rule="evenodd" d="M350.75 67.304C345.488 67.304 341.222 63.044 341.222 57.789C341.222 52.534 345.488 48.274 350.75 48.274C356.012 48.274 360.277 52.534 360.277 57.789C360.277 63.044 356.012 67.304 350.75 67.304ZM312.17 101.284C306.908 101.284 302.642 97.024 302.642 91.769C302.642 86.514 306.908 82.254 312.17 82.254C317.432 82.254 321.698 86.514 321.698 91.769C321.698 97.024 317.432 101.284 312.17 101.284ZM312.17 67.304C306.908 67.304 302.642 63.044 302.642 57.789C302.642 52.534 306.908 48.274 312.17 48.274C317.432 48.274 321.698 52.534 321.698 57.789C321.698 63.044 317.432 67.304 312.17 67.304ZM270.879 101.284C265.617 101.284 261.352 97.024 261.352 91.769C261.352 86.514 265.617 82.254 270.879 82.254C276.141 82.254 280.407 86.514 280.407 91.769C280.407 97.024 276.141 101.284 270.879 101.284ZM270.879 67.304C265.617 67.304 261.352 63.044 261.352 57.789C261.352 52.534 265.617 48.274 270.879 48.274C276.141 48.274 280.407 52.534 280.407 57.789C280.407 63.044 276.141 67.304 270.879 67.304ZM232.091 101.284C226.829 101.284 222.563 97.024 222.563 91.769C222.563 86.514 226.829 82.254 232.091 82.254C237.353 82.254 241.619 86.514 241.619 91.769C241.619 97.024 237.353 101.284 232.091 101.284ZM232.091 67.304C226.829 67.304 222.563 63.044 222.563 57.789C222.563 52.534 226.829 48.274 232.091 48.274C237.353 48.274 241.619 52.534 241.619 57.789C241.619 63.044 237.353 67.304 232.091 67.304ZM190.8 101.284C185.538 101.284 181.272 97.024 181.272 91.769C181.272 86.514 185.538 82.254 190.8 82.254C196.062 82.254 200.328 86.514 200.328 91.769C200.328 97.024 196.062 101.284 190.8 101.284ZM190.8 67.304C185.538 67.304 181.272 63.044 181.272 57.789C181.272 52.534 185.538 48.274 190.8 48.274C196.062 48.274 200.328 52.534 200.328 57.789C200.328 63.044 196.062 67.304 190.8 67.304ZM350.75 82.254C356.012 82.254 360.277 86.514 360.277 91.769C360.277 97.024 356.012 101.284 350.75 101.284C345.488 101.284 341.222 97.024 341.222 91.769C341.222 86.514 345.488 82.254 350.75 82.254Z" fill="white"/>
</g>
<defs>
<linearGradient id="paint0_linear_9_6" x1="540.5" y1="-52.5" x2="-21.5" y2="787" gradientUnits="userSpaceOnUse">
<stop offset="0.0450104" stop-color="#196AFF"/>
<stop offset="1" stop-color="#849FD1"/>
</linearGradient>
<linearGradient id="paint1_linear_9_6" x1="2238.5" y1="850.5" x2="1676.5" y2="1690" gradientUnits="userSpaceOnUse">
<stop offset="0.0450104" stop-color="#196AFF"/>
<stop offset="1" stop-color="#849FD1"/>
</linearGradient>
<clipPath id="clip0_9_6">
<rect width="1920" height="1394" fill="white"/>
</clipPath>
</defs>
</svg>
