<svg width="1920" height="1862" viewBox="0 0 1920 1862" fill="none" xmlns="http://www.w3.org/2000/svg">
<g clip-path="url(#clip0_61_71)">
<circle cx="221" cy="828" r="142" fill="#331ACF"/>
<ellipse cx="211.5" cy="257" rx="388.5" ry="383" fill="#1A67FF"/>
<circle cx="856" cy="107" r="99" fill="#331ACF"/>
<circle cx="1656" cy="88" r="161" fill="#CC0256"/>
<circle cx="481" cy="905" r="219" fill="#CC0256"/>
<circle cx="1702" cy="703" r="125" fill="#331ACF"/>
<circle cx="1366" cy="944" r="85" fill="#1A67FF"/>
<circle cx="1765" cy="579" r="75" fill="#CC0256"/>
<circle cx="903" cy="760" r="99" fill="#331ACF"/>
<path d="M1381.28 69.512C1380.74 66.416 1378.54 62.528 1374.37 59.396C1372.31 57.848 1370.23 56.84 1368.17 56.408V54.896C1372.24 53.924 1376.24 51.188 1378.79 47.48C1380.09 45.608 1380.92 43.772 1381.28 41.864H1382.79C1383.4 45.5 1386.21 49.532 1390.03 52.232C1391.9 53.564 1393.84 54.464 1395.82 54.896V56.408C1391.83 57.236 1387.18 60.8 1384.88 64.436C1383.73 66.272 1383.04 67.964 1382.79 69.512H1381.28Z" fill="#331ACF"/>
<path d="M1816.28 364.512C1815.74 361.416 1813.54 357.528 1809.37 354.396C1807.31 352.848 1805.23 351.84 1803.17 351.408V349.896C1807.24 348.924 1811.24 346.188 1813.79 342.48C1815.09 340.608 1815.92 338.772 1816.28 336.864H1817.79C1818.4 340.5 1821.21 344.532 1825.03 347.232C1826.9 348.564 1828.84 349.464 1830.82 349.896V351.408C1826.83 352.236 1822.18 355.8 1819.88 359.436C1818.73 361.272 1818.04 362.964 1817.79 364.512H1816.28Z" fill="#331ACF"/>
<path d="M153.278 1120.51C152.738 1117.42 150.542 1113.53 146.366 1110.4C144.314 1108.85 142.226 1107.84 140.174 1107.41V1105.9C144.242 1104.92 148.238 1102.19 150.794 1098.48C152.09 1096.61 152.918 1094.77 153.278 1092.86H154.79C155.402 1096.5 158.21 1100.53 162.026 1103.23C163.898 1104.56 165.842 1105.46 167.822 1105.9V1107.41C163.826 1108.24 159.182 1111.8 156.878 1115.44C155.726 1117.27 155.042 1118.96 154.79 1120.51H153.278Z" fill="#CC0256"/>
<path d="M1607.28 1008.51C1606.74 1005.42 1604.54 1001.53 1600.37 998.396C1598.31 996.848 1596.23 995.84 1594.17 995.408V993.896C1598.24 992.924 1602.24 990.188 1604.79 986.48C1606.09 984.608 1606.92 982.772 1607.28 980.864H1608.79C1609.4 984.5 1612.21 988.532 1616.03 991.232C1617.9 992.564 1619.84 993.464 1621.82 993.896V995.408C1617.83 996.236 1613.18 999.8 1610.88 1003.44C1609.73 1005.27 1609.04 1006.96 1608.79 1008.51H1607.28Z" fill="#331ACF"/>
<path d="M169.278 187.512C168.738 184.416 166.542 180.528 162.366 177.396C160.314 175.848 158.226 174.84 156.174 174.408V172.896C160.242 171.924 164.238 169.188 166.794 165.48C168.09 163.608 168.918 161.772 169.278 159.864H170.79C171.402 163.5 174.21 167.532 178.026 170.232C179.898 171.564 181.842 172.464 183.822 172.896V174.408C179.826 175.236 175.182 178.8 172.878 182.436C171.726 184.272 171.042 185.964 170.79 187.512H169.278Z" fill="#CC0256"/>
<path d="M760.278 197.512C759.738 194.416 757.542 190.528 753.366 187.396C751.314 185.848 749.226 184.84 747.174 184.408V182.896C751.242 181.924 755.238 179.188 757.794 175.48C759.09 173.608 759.918 171.772 760.278 169.864H761.79C762.402 173.5 765.21 177.532 769.026 180.232C770.898 181.564 772.842 182.464 774.822 182.896V184.408C770.826 185.236 766.182 188.8 763.878 192.436C762.726 194.272 762.042 195.964 761.79 197.512H760.278Z" fill="#CC0256"/>
<path d="M1004.28 850.512C1003.74 847.416 1001.54 843.528 997.366 840.396C995.314 838.848 993.226 837.84 991.174 837.408V835.896C995.242 834.924 999.238 832.188 1001.79 828.48C1003.09 826.608 1003.92 824.772 1004.28 822.864H1005.79C1006.4 826.5 1009.21 830.532 1013.03 833.232C1014.9 834.564 1016.84 835.464 1018.82 835.896V837.408C1014.83 838.236 1010.18 841.8 1007.88 845.436C1006.73 847.272 1006.04 848.964 1005.79 850.512H1004.28Z" fill="#CC0256"/>
<path d="M477.278 545.512C476.738 542.416 474.542 538.528 470.366 535.396C468.314 533.848 466.226 532.84 464.174 532.408V530.896C468.242 529.924 472.238 527.188 474.794 523.48C476.09 521.608 476.918 519.772 477.278 517.864H478.79C479.402 521.5 482.21 525.532 486.026 528.232C487.898 529.564 489.842 530.464 491.822 530.896V532.408C487.826 533.236 483.182 536.8 480.878 540.436C479.726 542.272 479.042 543.964 478.79 545.512H477.278Z" fill="#331ACF"/>
<path d="M1485.28 501.512C1484.74 498.416 1482.54 494.528 1478.37 491.396C1476.31 489.848 1474.23 488.84 1472.17 488.408V486.896C1476.24 485.924 1480.24 483.188 1482.79 479.48C1484.09 477.608 1484.92 475.772 1485.28 473.864H1486.79C1487.4 477.5 1490.21 481.532 1494.03 484.232C1495.9 485.564 1497.84 486.464 1499.82 486.896V488.408C1495.83 489.236 1491.18 492.8 1488.88 496.436C1487.73 498.272 1487.04 499.964 1486.79 501.512H1485.28Z" fill="#CC0256"/>
<path d="M823.278 1750.51C822.738 1747.42 820.542 1743.53 816.366 1740.4C814.314 1738.85 812.226 1737.84 810.174 1737.41V1735.9C814.242 1734.92 818.238 1732.19 820.794 1728.48C822.09 1726.61 822.918 1724.77 823.278 1722.86H824.79C825.402 1726.5 828.21 1730.53 832.026 1733.23C833.898 1734.56 835.842 1735.46 837.822 1735.9V1737.41C833.826 1738.24 829.182 1741.8 826.878 1745.44C825.726 1747.27 825.042 1748.96 824.79 1750.51H823.278Z" fill="#1A67FF"/>
<path d="M121.278 1513.51C120.738 1510.42 118.542 1506.53 114.366 1503.4C112.314 1501.85 110.226 1500.84 108.174 1500.41V1498.9C112.242 1497.92 116.238 1495.19 118.794 1491.48C120.09 1489.61 120.918 1487.77 121.278 1485.86H122.79C123.402 1489.5 126.21 1493.53 130.026 1496.23C131.898 1497.56 133.842 1498.46 135.822 1498.9V1500.41C131.826 1501.24 127.182 1504.8 124.878 1508.44C123.726 1510.27 123.042 1511.96 122.79 1513.51H121.278Z" fill="#331ACF"/>
<path d="M71.2779 1860.51C70.7379 1857.42 68.5419 1853.53 64.3659 1850.4C62.3139 1848.85 60.2259 1847.84 58.1739 1847.41V1845.9C62.2419 1844.92 66.2379 1842.19 68.7939 1838.48C70.0899 1836.61 70.9179 1834.77 71.2779 1832.86H72.7899C73.4019 1836.5 76.2099 1840.53 80.0259 1843.23C81.8979 1844.56 83.8419 1845.46 85.8219 1845.9V1847.41C81.8259 1848.24 77.1819 1851.8 74.8779 1855.44C73.7259 1857.27 73.0419 1858.96 72.7899 1860.51H71.2779Z" fill="#CC0256"/>
<path d="M1849.28 1810.51C1848.74 1807.42 1846.54 1803.53 1842.37 1800.4C1840.31 1798.85 1838.23 1797.84 1836.17 1797.41V1795.9C1840.24 1794.92 1844.24 1792.19 1846.79 1788.48C1848.09 1786.61 1848.92 1784.77 1849.28 1782.86H1850.79C1851.4 1786.5 1854.21 1790.53 1858.03 1793.23C1859.9 1794.56 1861.84 1795.46 1863.82 1795.9V1797.41C1859.83 1798.24 1855.18 1801.8 1852.88 1805.44C1851.73 1807.27 1851.04 1808.96 1850.79 1810.51H1849.28Z" fill="#331ACF"/>
<path d="M1677.28 1155.51C1676.74 1152.42 1674.54 1148.53 1670.37 1145.4C1668.31 1143.85 1666.23 1142.84 1664.17 1142.41V1140.9C1668.24 1139.92 1672.24 1137.19 1674.79 1133.48C1676.09 1131.61 1676.92 1129.77 1677.28 1127.86H1678.79C1679.4 1131.5 1682.21 1135.53 1686.03 1138.23C1687.9 1139.56 1689.84 1140.46 1691.82 1140.9V1142.41C1687.83 1143.24 1683.18 1146.8 1680.88 1150.44C1679.73 1152.27 1679.04 1153.96 1678.79 1155.51H1677.28Z" fill="#CC0256"/>
</g>
<defs>
<clipPath id="clip0_61_71">
<rect width="1920" height="1862" fill="white"/>
</clipPath>
</defs>
</svg>
