<svg width="1920" height="2403" viewBox="0 0 1920 2403" fill="none" xmlns="http://www.w3.org/2000/svg">
<g clip-path="url(#clip0_12_31)">
<circle cx="219.5" cy="312.5" r="451.5" fill="url(#paint0_linear_12_31)"/>
<circle cx="1917.5" cy="1215.5" r="451.5" fill="url(#paint1_linear_12_31)"/>
<circle cx="171" cy="1490" r="329" fill="#19C6FF"/>
<circle cx="1400.5" cy="854.5" r="90.5" fill="#19C6FF"/>
<path fill-rule="evenodd" clip-rule="evenodd" d="M1913.82 1236.3C1808.92 1236.3 1725.51 1152.9 1725.51 1048.9C1725.51 944.896 1808.92 860.587 1913.82 860.587C2017.82 860.587 2102.13 944.896 2102.13 1048.9C2102.13 1152.9 2017.82 1236.3 1913.82 1236.3ZM702.028 212.41C597.533 212.41 511.923 127.7 511.923 23.205C511.923 -81.29 597.533 -166 702.028 -166C806.523 -166 891.233 -81.29 891.233 23.205C891.233 127.7 806.523 212.41 702.028 212.41ZM-21.177 666.903C-172.405 666.903 -295 544.308 -295 393.08C-295 241.851 -172.405 119.256 -21.177 119.256C130.051 119.256 252.646 241.851 252.646 393.08C252.646 544.308 130.051 666.903 -21.177 666.903ZM790.487 381.094C797.107 381.094 802.473 386.46 802.473 393.08C802.473 399.7 797.107 405.066 790.487 405.066C783.867 405.066 778.501 399.7 778.501 393.08C778.501 386.46 783.867 381.094 790.487 381.094Z" fill="#19C6FF"/>
<path fill-rule="evenodd" clip-rule="evenodd" d="M1796 -86C1905.9 -86 1995 3.095 1995 113C1995 222.905 1905.9 312 1796 312C1686.1 312 1597 222.905 1597 113C1597 3.095 1686.1 -86 1796 -86Z" fill="white"/>
<path fill-rule="evenodd" clip-rule="evenodd" d="M1061.25 475.359C1055.99 475.359 1050.83 471.096 1050.83 465.838C1050.83 460.58 1055.99 456.317 1061.25 456.317C1066.51 456.317 1070.77 460.58 1070.77 465.838C1070.77 471.096 1066.51 475.359 1061.25 475.359ZM1061.25 434.097C1055.99 434.097 1050.83 429.834 1050.83 424.576C1050.83 419.318 1055.99 415.055 1061.25 415.055C1066.51 415.055 1070.77 419.318 1070.77 424.576C1070.77 429.834 1066.51 434.097 1061.25 434.097ZM1061.25 395.336C1055.99 395.336 1050.83 391.073 1050.83 385.815C1050.83 380.557 1055.99 376.294 1061.25 376.294C1066.51 376.294 1070.77 380.557 1070.77 385.815C1070.77 391.073 1066.51 395.336 1061.25 395.336ZM1061.25 354.074C1055.99 354.074 1050.83 349.811 1050.83 344.553C1050.83 339.295 1055.99 335.032 1061.25 335.032C1066.51 335.032 1070.77 339.295 1070.77 344.553C1070.77 349.811 1066.51 354.074 1061.25 354.074ZM1061.25 315.521C1055.99 315.521 1050.83 311.258 1050.83 306C1050.83 300.742 1055.99 296.479 1061.25 296.479C1066.51 296.479 1070.77 300.742 1070.77 306C1070.77 311.258 1066.51 315.521 1061.25 315.521ZM1027.25 475.359C1021.99 475.359 1017.73 471.096 1017.73 465.838C1017.73 460.58 1021.99 456.317 1027.25 456.317C1032.51 456.317 1036.77 460.58 1036.77 465.838C1036.77 471.096 1032.51 475.359 1027.25 475.359ZM1027.25 434.097C1021.99 434.097 1017.73 429.834 1017.73 424.576C1017.73 419.318 1021.99 415.055 1027.25 415.055C1032.51 415.055 1036.77 419.318 1036.77 424.576C1036.77 429.834 1032.51 434.097 1027.25 434.097ZM1027.25 395.336C1021.99 395.336 1017.73 391.073 1017.73 385.815C1017.73 380.557 1021.99 376.294 1027.25 376.294C1032.51 376.294 1036.77 380.557 1036.77 385.815C1036.77 391.073 1032.51 395.336 1027.25 395.336ZM1027.25 354.074C1021.99 354.074 1017.73 349.811 1017.73 344.553C1017.73 339.295 1021.99 335.032 1027.25 335.032C1032.51 335.032 1036.77 339.295 1036.77 344.553C1036.77 349.811 1032.51 354.074 1027.25 354.074ZM1027.25 315.521C1021.99 315.521 1017.73 311.258 1017.73 306C1017.73 300.742 1021.99 296.479 1027.25 296.479C1032.51 296.479 1036.77 300.742 1036.77 306C1036.77 311.258 1032.51 315.521 1027.25 315.521ZM927.728 323.1C916.13 323.1 905.828 314.598 905.828 302.1C905.828 291.402 916.13 282 927.728 282C939.326 282 948.728 291.402 948.728 302.1C948.728 314.598 939.326 323.1 927.728 323.1ZM1180.09 871C1180.09 1103.61 991.518 1292.18 758.907 1292.18C526.297 1292.18 337.728 1103.61 337.728 871C337.728 638.389 526.297 449.821 758.907 449.821C991.518 449.821 1180.09 638.389 1180.09 871ZM272.728 972C267.205 972 262.728 967.523 262.728 961.1C262.728 956.477 267.205 951.1 272.728 951.1C278.251 951.1 281.828 956.477 281.828 961.1C281.828 967.523 278.251 972 272.728 972ZM120.478 980.284C115.216 980.284 110.95 976.024 110.95 970.769C110.95 965.514 115.216 961.254 120.478 961.254C125.74 961.254 130.005 965.514 130.005 970.769C130.005 976.024 125.74 980.284 120.478 980.284ZM120.478 946.304C115.216 946.304 110.95 942.044 110.95 936.789C110.95 931.534 115.216 927.274 120.478 927.274C125.74 927.274 130.005 931.534 130.005 936.789C130.005 942.044 125.74 946.304 120.478 946.304ZM81.898 980.284C76.636 980.284 72.37 976.024 72.37 970.769C72.37 965.514 76.636 961.254 81.898 961.254C87.16 961.254 91.426 965.514 91.426 970.769C91.426 976.024 87.16 980.284 81.898 980.284ZM81.898 946.304C76.636 946.304 72.37 942.044 72.37 936.789C72.37 931.534 76.636 927.274 81.898 927.274C87.16 927.274 91.426 931.534 91.426 936.789C91.426 942.044 87.16 946.304 81.898 946.304ZM40.607 980.284C35.345 980.284 31.08 976.024 31.08 970.769C31.08 965.514 35.345 961.254 40.607 961.254C45.869 961.254 50.135 965.514 50.135 970.769C50.135 976.024 45.869 980.284 40.607 980.284ZM40.607 946.304C35.345 946.304 31.08 942.044 31.08 936.789C31.08 931.534 35.345 927.274 40.607 927.274C45.869 927.274 50.135 931.534 50.135 936.789C50.135 942.044 45.869 946.304 40.607 946.304ZM1.819 980.284C-3.443 980.284 -7.709 976.024 -7.709 970.769C-7.709 965.514 -3.443 961.254 1.819 961.254C7.081 961.254 11.346 965.514 11.346 970.769C11.346 976.024 7.081 980.284 1.819 980.284ZM1.819 946.304C-3.443 946.304 -7.709 942.044 -7.709 936.789C-7.709 931.534 -3.443 927.274 1.819 927.274C7.081 927.274 11.346 931.534 11.346 936.789C11.346 942.044 7.081 946.304 1.819 946.304ZM-39.472 980.284C-44.734 980.284 -49 976.024 -49 970.769C-49 965.514 -44.734 961.254 -39.472 961.254C-34.21 961.254 -29.944 965.514 -29.944 970.769C-29.944 976.024 -34.21 980.284 -39.472 980.284ZM-39.472 946.304C-44.734 946.304 -49 942.044 -49 936.789C-49 931.534 -44.734 927.274 -39.472 927.274C-34.21 927.274 -29.944 931.534 -29.944 936.789C-29.944 942.044 -34.21 946.304 -39.472 946.304Z" fill="#196AFF"/>
<path fill-rule="evenodd" clip-rule="evenodd" d="M576.654 719.489C563.399 719.489 552.654 708.744 552.654 695.489C552.654 682.234 563.399 671.489 576.654 671.489C589.909 671.489 600.654 682.234 600.654 695.489C600.654 708.744 589.909 719.489 576.654 719.489ZM495.527 215.973C488.908 215.973 483.541 210.606 483.541 203.986C483.541 197.367 488.908 192 495.527 192C502.147 192 507.514 197.367 507.514 203.986C507.514 210.606 502.147 215.973 495.527 215.973ZM189 859.143C176.297 859.143 166 848.846 166 836.143C166 823.44 176.297 813.143 189 813.143C201.703 813.143 212 823.44 212 836.143C212 848.846 201.703 859.143 189 859.143Z" stroke="white" stroke-width="7"/>
<path fill-rule="evenodd" clip-rule="evenodd" d="M44.0045 1700.65C34.3394 1691.58 33.8578 1676.39 42.9287 1666.73C51.9996 1657.06 67.1877 1656.58 76.8528 1665.65C86.5178 1674.72 86.9995 1689.91 77.9285 1699.58C68.8576 1709.24 53.6695 1709.72 44.0045 1700.65ZM329.426 1277.99C324.6 1273.46 324.359 1265.87 328.889 1261.05C333.419 1256.22 341.005 1255.98 345.832 1260.51C350.659 1265.04 350.899 1272.63 346.37 1277.45C341.839 1282.28 334.253 1282.52 329.426 1277.99ZM-334.229 1537.2C-343.492 1528.5 -343.953 1513.95 -335.26 1504.69C-326.567 1495.42 -312.012 1494.96 -302.75 1503.65C-293.487 1512.35 -293.026 1526.9 -301.719 1536.16C-310.412 1545.43 -324.967 1545.89 -334.229 1537.2Z" stroke="white" stroke-width="7"/>
<path fill-rule="evenodd" clip-rule="evenodd" d="M348.749 62.304C343.487 62.304 339.221 58.044 339.221 52.789C339.221 47.534 343.487 43.274 348.749 43.274C354.011 43.274 358.276 47.534 358.276 52.789C358.276 58.044 354.011 62.304 348.749 62.304ZM310.169 96.284C304.907 96.284 300.641 92.024 300.641 86.769C300.641 81.514 304.907 77.254 310.169 77.254C315.431 77.254 319.697 81.514 319.697 86.769C319.697 92.024 315.431 96.284 310.169 96.284ZM310.169 62.304C304.907 62.304 300.641 58.044 300.641 52.789C300.641 47.534 304.907 43.274 310.169 43.274C315.431 43.274 319.697 47.534 319.697 52.789C319.697 58.044 315.431 62.304 310.169 62.304ZM268.878 96.284C263.616 96.284 259.351 92.024 259.351 86.769C259.351 81.514 263.616 77.254 268.878 77.254C274.14 77.254 278.406 81.514 278.406 86.769C278.406 92.024 274.14 96.284 268.878 96.284ZM268.878 62.304C263.616 62.304 259.351 58.044 259.351 52.789C259.351 47.534 263.616 43.274 268.878 43.274C274.14 43.274 278.406 47.534 278.406 52.789C278.406 58.044 274.14 62.304 268.878 62.304ZM230.09 96.284C224.828 96.284 220.562 92.024 220.562 86.769C220.562 81.514 224.828 77.254 230.09 77.254C235.352 77.254 239.618 81.514 239.618 86.769C239.618 92.024 235.352 96.284 230.09 96.284ZM230.09 62.304C224.828 62.304 220.562 58.044 220.562 52.789C220.562 47.534 224.828 43.274 230.09 43.274C235.352 43.274 239.618 47.534 239.618 52.789C239.618 58.044 235.352 62.304 230.09 62.304ZM188.799 96.284C183.537 96.284 179.271 92.024 179.271 86.769C179.271 81.514 183.537 77.254 188.799 77.254C194.061 77.254 198.327 81.514 198.327 86.769C198.327 92.024 194.061 96.284 188.799 96.284ZM188.799 62.304C183.537 62.304 179.271 58.044 179.271 52.789C179.271 47.534 183.537 43.274 188.799 43.274C194.061 43.274 198.327 47.534 198.327 52.789C198.327 58.044 194.061 62.304 188.799 62.304ZM348.749 77.254C354.011 77.254 358.276 81.514 358.276 86.769C358.276 92.024 354.011 96.284 348.749 96.284C343.487 96.284 339.221 92.024 339.221 86.769C339.221 81.514 343.487 77.254 348.749 77.254Z" fill="white"/>
<path fill-rule="evenodd" clip-rule="evenodd" d="M1816.48 964.03C1811.22 964.03 1806.95 959.77 1806.95 954.515C1806.95 949.26 1811.22 945 1816.48 945C1821.74 945 1826 949.26 1826 954.515C1826 959.77 1821.74 964.03 1816.48 964.03ZM1777.9 998.01C1772.64 998.01 1768.37 993.75 1768.37 988.495C1768.37 983.24 1772.64 978.98 1777.9 978.98C1783.16 978.98 1787.43 983.24 1787.43 988.495C1787.43 993.75 1783.16 998.01 1777.9 998.01ZM1777.9 964.03C1772.64 964.03 1768.37 959.77 1768.37 954.515C1768.37 949.26 1772.64 945 1777.9 945C1783.16 945 1787.43 949.26 1787.43 954.515C1787.43 959.77 1783.16 964.03 1777.9 964.03ZM1736.61 998.01C1731.34 998.01 1727.08 993.75 1727.08 988.495C1727.08 983.24 1731.34 978.98 1736.61 978.98C1741.87 978.98 1746.13 983.24 1746.13 988.495C1746.13 993.75 1741.87 998.01 1736.61 998.01ZM1736.61 964.03C1731.34 964.03 1727.08 959.77 1727.08 954.515C1727.08 949.26 1731.34 945 1736.61 945C1741.87 945 1746.13 949.26 1746.13 954.515C1746.13 959.77 1741.87 964.03 1736.61 964.03ZM1697.82 998.01C1692.56 998.01 1688.29 993.75 1688.29 988.495C1688.29 983.24 1692.56 978.98 1697.82 978.98C1703.08 978.98 1707.35 983.24 1707.35 988.495C1707.35 993.75 1703.08 998.01 1697.82 998.01ZM1697.82 964.03C1692.56 964.03 1688.29 959.77 1688.29 954.515C1688.29 949.26 1692.56 945 1697.82 945C1703.08 945 1707.35 949.26 1707.35 954.515C1707.35 959.77 1703.08 964.03 1697.82 964.03ZM1656.53 998.01C1651.27 998.01 1647 993.75 1647 988.495C1647 983.24 1651.27 978.98 1656.53 978.98C1661.79 978.98 1666.06 983.24 1666.06 988.495C1666.06 993.75 1661.79 998.01 1656.53 998.01ZM1656.53 964.03C1651.27 964.03 1647 959.77 1647 954.515C1647 949.26 1651.27 945 1656.53 945C1661.79 945 1666.06 949.26 1666.06 954.515C1666.06 959.77 1661.79 964.03 1656.53 964.03ZM1816.48 978.98C1821.74 978.98 1826 983.24 1826 988.495C1826 993.75 1821.74 998.01 1816.48 998.01C1811.22 998.01 1806.95 993.75 1806.95 988.495C1806.95 983.24 1811.22 978.98 1816.48 978.98Z" fill="white"/>
<path fill-rule="evenodd" clip-rule="evenodd" d="M88.9798 1262.48C88.9798 1257.22 93.2398 1252.95 98.4948 1252.95C103.75 1252.95 108.01 1257.22 108.01 1262.48C108.01 1267.74 103.75 1272 98.4948 1272C93.2398 1272 88.9798 1267.74 88.9798 1262.48ZM54.9998 1223.9C54.9998 1218.64 59.2598 1214.37 64.5148 1214.37C69.7698 1214.37 74.0298 1218.64 74.0298 1223.9C74.0298 1229.16 69.7698 1233.43 64.5148 1233.43C59.2598 1233.43 54.9998 1229.16 54.9998 1223.9ZM88.9798 1223.9C88.9798 1218.64 93.2398 1214.37 98.4948 1214.37C103.75 1214.37 108.01 1218.64 108.01 1223.9C108.01 1229.16 103.75 1233.43 98.4948 1233.43C93.2398 1233.43 88.9798 1229.16 88.9798 1223.9ZM54.9998 1182.61C54.9998 1177.34 59.2598 1173.08 64.5148 1173.08C69.7698 1173.08 74.0298 1177.34 74.0298 1182.61C74.0298 1187.87 69.7698 1192.13 64.5148 1192.13C59.2598 1192.13 54.9998 1187.87 54.9998 1182.61ZM88.9798 1182.61C88.9798 1177.34 93.2398 1173.08 98.4948 1173.08C103.75 1173.08 108.01 1177.34 108.01 1182.61C108.01 1187.87 103.75 1192.13 98.4948 1192.13C93.2398 1192.13 88.9798 1187.87 88.9798 1182.61ZM54.9998 1143.82C54.9998 1138.56 59.2598 1134.29 64.5148 1134.29C69.7698 1134.29 74.0298 1138.56 74.0298 1143.82C74.0298 1149.08 69.7698 1153.35 64.5148 1153.35C59.2598 1153.35 54.9998 1149.08 54.9998 1143.82ZM88.9798 1143.82C88.9798 1138.56 93.2398 1134.29 98.4948 1134.29C103.75 1134.29 108.01 1138.56 108.01 1143.82C108.01 1149.08 103.75 1153.35 98.4948 1153.35C93.2398 1153.35 88.9798 1149.08 88.9798 1143.82ZM54.9998 1102.53C54.9998 1097.27 59.2598 1093 64.5148 1093C69.7698 1093 74.0298 1097.27 74.0298 1102.53C74.0298 1107.79 69.7698 1112.06 64.5148 1112.06C59.2598 1112.06 54.9998 1107.79 54.9998 1102.53ZM88.9798 1102.53C88.9798 1097.27 93.2398 1093 98.4948 1093C103.75 1093 108.01 1097.27 108.01 1102.53C108.01 1107.79 103.75 1112.06 98.4948 1112.06C93.2398 1112.06 88.9798 1107.79 88.9798 1102.53ZM74.0298 1262.48C74.0298 1267.74 69.7698 1272 64.5148 1272C59.2598 1272 54.9998 1267.74 54.9998 1262.48C54.9998 1257.22 59.2598 1252.95 64.5148 1252.95C69.7698 1252.95 74.0298 1257.22 74.0298 1262.48Z" fill="white"/>
</g>
<defs>
<linearGradient id="paint0_linear_12_31" x1="538.5" y1="-57.5" x2="-23.5" y2="782" gradientUnits="userSpaceOnUse">
<stop offset="0.0450104" stop-color="#196AFF"/>
<stop offset="1" stop-color="#849FD1"/>
</linearGradient>
<linearGradient id="paint1_linear_12_31" x1="2236.5" y1="845.5" x2="1674.5" y2="1685" gradientUnits="userSpaceOnUse">
<stop offset="0.0450104" stop-color="#196AFF"/>
<stop offset="1" stop-color="#849FD1"/>
</linearGradient>
<clipPath id="clip0_12_31">
<rect width="1920" height="2403" fill="white"/>
</clipPath>
</defs>
</svg>
