<svg width="248" height="112" viewBox="0 0 248 112" fill="none" xmlns="http://www.w3.org/2000/svg">
<circle cx="50" cy="50" r="50" fill="#331ACF"/>
<circle cx="76.5" cy="93.5" r="11.5" fill="#1A67FF"/>
<path d="M242.786 60C243.001 61.3438 243.875 63.0313 245.536 64.3906C246.353 65.0625 247.184 65.5 248 65.6875V66.3438C246.382 66.7656 244.792 67.9531 243.775 69.5625C243.259 70.375 242.93 71.1719 242.786 72H242.185C241.941 70.4219 240.824 68.6719 239.306 67.5C238.561 66.9219 237.788 66.5313 237 66.3438V65.6875C238.59 65.3281 240.438 63.7813 241.354 62.2031C241.813 61.4063 242.085 60.6719 242.185 60H242.786Z" fill="#CC0256"/>
<path d="M115.786 100C116.001 101.344 116.875 103.031 118.536 104.391C119.353 105.063 120.184 105.5 121 105.688V106.344C119.382 106.766 117.792 107.953 116.775 109.563C116.259 110.375 115.93 111.172 115.786 112H115.185C114.941 110.422 113.824 108.672 112.306 107.5C111.561 106.922 110.788 106.531 110 106.344V105.688C111.59 105.328 113.438 103.781 114.354 102.203C114.813 101.406 115.085 100.672 115.185 100H115.786Z" fill="#331ACF"/>
</svg>
