<svg width="310" height="321" viewBox="0 0 310 321" fill="none" xmlns="http://www.w3.org/2000/svg">
<circle cx="24.5" cy="160.5" r="160.5" fill="#CC0256"/>
<path d="M304.786 139C305.001 140.344 305.875 142.031 307.536 143.391C308.353 144.063 309.184 144.5 310 144.688V145.344C308.382 145.766 306.792 146.953 305.775 148.563C305.259 149.375 304.93 150.172 304.786 151H304.185C303.941 149.422 302.824 147.672 301.306 146.5C300.561 145.922 299.788 145.531 299 145.344V144.688C300.59 144.328 302.438 142.781 303.354 141.203C303.813 140.406 304.085 139.672 304.185 139H304.786Z" fill="#CC0256"/>
<path d="M202.786 42C203.001 43.3438 203.875 45.0313 205.536 46.3906C206.353 47.0625 207.184 47.5 208 47.6875V48.3438C206.382 48.7656 204.792 49.9531 203.775 51.5625C203.259 52.375 202.93 53.1719 202.786 54H202.185C201.941 52.4219 200.824 50.6719 199.306 49.5C198.561 48.9219 197.788 48.5313 197 48.3438V47.6875C198.59 47.3281 200.438 45.7813 201.354 44.2031C201.813 43.4063 202.085 42.6719 202.185 42H202.786Z" fill="#331ACF"/>
</svg>
