<svg width="320" height="673" viewBox="0 0 320 673" fill="none" xmlns="http://www.w3.org/2000/svg">
<circle cx="24.5" cy="160.5" r="160.5" fill="#CC0256"/>
<circle cx="287.5" cy="512.5" r="160.5" fill="#1A67FF"/>
<circle cx="44" cy="587" r="27" fill="#331ACF"/>
<path d="M304.786 139C305.001 140.344 305.875 142.031 307.536 143.391C308.353 144.063 309.184 144.5 310 144.688V145.344C308.382 145.766 306.792 146.953 305.775 148.563C305.259 149.375 304.93 150.172 304.786 151H304.185C303.941 149.422 302.824 147.672 301.306 146.5C300.561 145.922 299.788 145.531 299 145.344V144.688C300.59 144.328 302.438 142.781 303.354 141.203C303.813 140.406 304.085 139.672 304.185 139H304.786Z" fill="#CC0256"/>
<path d="M202.786 42C203.001 43.3438 203.875 45.0313 205.536 46.3906C206.353 47.0625 207.184 47.5 208 47.6875V48.3438C206.382 48.7656 204.792 49.9531 203.775 51.5625C203.259 52.375 202.93 53.1719 202.786 54H202.185C201.941 52.4219 200.824 50.6719 199.306 49.5C198.561 48.9219 197.788 48.5313 197 48.3438V47.6875C198.59 47.3281 200.438 45.7813 201.354 44.2031C201.813 43.4063 202.085 42.6719 202.185 42H202.786Z" fill="#331ACF"/>
<path d="M15.7865 382C16.0013 383.344 16.875 385.031 18.5365 386.391C19.3529 387.063 20.1836 387.5 21 387.688V388.344C19.3815 388.766 17.7917 389.953 16.7747 391.563C16.2591 392.375 15.9297 393.172 15.7865 394H15.1849C14.9414 392.422 13.8242 390.672 12.306 389.5C11.5612 388.922 10.7878 388.531 10 388.344V387.688C11.5898 387.328 13.4375 385.781 14.3542 384.203C14.8125 383.406 15.0846 382.672 15.1849 382H15.7865Z" fill="#1A67FF"/>
<path d="M92.7865 597C93.0013 598.344 93.875 600.031 95.5365 601.391C96.3529 602.063 97.1836 602.5 98 602.688V603.344C96.3815 603.766 94.7917 604.953 93.7747 606.563C93.2591 607.375 92.9297 608.172 92.7865 609H92.1849C91.9414 607.422 90.8242 605.672 89.306 604.5C88.5612 603.922 87.7878 603.531 87 603.344V602.688C88.5898 602.328 90.4375 600.781 91.3542 599.203C91.8125 598.406 92.0846 597.672 92.1849 597H92.7865Z" fill="#CC0256"/>
</svg>
