<svg width="320" height="661" viewBox="0 0 320 661" fill="none" xmlns="http://www.w3.org/2000/svg">
<circle cx="69.5" cy="543.5" r="117.5" fill="#CC0256"/>
<circle cx="280" cy="476" r="50" fill="#1A67FF"/>
<circle cx="281" cy="65" r="25" fill="#CC0256"/>
<circle cx="39.5" cy="31.5" r="31.5" fill="#1A67FF"/>
<path d="M103.786 40C104.001 41.3438 104.875 43.0313 106.536 44.3906C107.353 45.0625 108.184 45.5 109 45.6875V46.3438C107.382 46.7656 105.792 47.9531 104.775 49.5625C104.259 50.375 103.93 51.1719 103.786 52H103.185C102.941 50.4219 101.824 48.6719 100.306 47.5C99.5612 46.9219 98.7878 46.5313 98 46.3438V45.6875C99.5898 45.3281 101.438 43.7813 102.354 42.2031C102.813 41.4063 103.085 40.6719 103.185 40H103.786Z" fill="#CC0256"/>
<path d="M28.7865 405C29.0013 406.344 29.875 408.031 31.5365 409.391C32.3529 410.063 33.1836 410.5 34 410.688V411.344C32.3815 411.766 30.7917 412.953 29.7747 414.563C29.2591 415.375 28.9297 416.172 28.7865 417H28.1849C27.9414 415.422 26.8242 413.672 25.306 412.5C24.5612 411.922 23.7878 411.531 23 411.344V410.688C24.5898 410.328 26.4375 408.781 27.3542 407.203C27.8125 406.406 28.0846 405.672 28.1849 405H28.7865Z" fill="#1A67FF"/>
<path d="M298.786 5C299.001 6.34375 299.875 8.03125 301.536 9.39063C302.353 10.0625 303.184 10.5 304 10.6875V11.3438C302.382 11.7656 300.792 12.9531 299.775 14.5625C299.259 15.375 298.93 16.1719 298.786 17H298.185C297.941 15.4219 296.824 13.6719 295.306 12.5C294.561 11.9219 293.788 11.5312 293 11.3438V10.6875C294.59 10.3281 296.438 8.78125 297.354 7.20312C297.813 6.40625 298.085 5.67188 298.185 5H298.786Z" fill="#331ACF"/>
<path d="M187.786 446C188.001 447.344 188.875 449.031 190.536 450.391C191.353 451.063 192.184 451.5 193 451.688V452.344C191.382 452.766 189.792 453.953 188.775 455.563C188.259 456.375 187.93 457.172 187.786 458H187.185C186.941 456.422 185.824 454.672 184.306 453.5C183.561 452.922 182.788 452.531 182 452.344V451.688C183.59 451.328 185.438 449.781 186.354 448.203C186.813 447.406 187.085 446.672 187.185 446H187.786Z" fill="#CC0256"/>
</svg>
