<svg width="303" height="152" viewBox="0 0 303 152" fill="none" xmlns="http://www.w3.org/2000/svg">
<circle cx="44.5" cy="65.5" r="65.5" fill="#CC0256"/>
<circle cx="285.5" cy="44.5" r="17.5" fill="#331ACF"/>
<circle cx="201.5" cy="116.5" r="33.5" fill="#1A67FF"/>
<circle cx="293.5" cy="58.5" r="7.5" fill="#CC0256"/>
<path d="M275.786 140C276.001 141.344 276.875 143.031 278.536 144.391C279.353 145.062 280.184 145.5 281 145.688V146.344C279.382 146.766 277.792 147.953 276.775 149.563C276.259 150.375 275.93 151.172 275.786 152H275.185C274.941 150.422 273.824 148.672 272.306 147.5C271.561 146.922 270.788 146.531 270 146.344V145.688C271.59 145.328 273.438 143.781 274.354 142.203C274.813 141.406 275.085 140.672 275.185 140H275.786Z" fill="#CC0256"/>
<path d="M160.786 21C161.001 22.3438 161.875 24.0312 163.536 25.3906C164.353 26.0625 165.184 26.5 166 26.6875V27.3438C164.382 27.7656 162.792 28.9531 161.775 30.5625C161.259 31.375 160.93 32.1719 160.786 33H160.185C159.941 31.4219 158.824 29.6719 157.306 28.5C156.561 27.9219 155.788 27.5312 155 27.3438V26.6875C156.59 26.3281 158.438 24.7812 159.354 23.2031C159.813 22.4062 160.085 21.6719 160.185 21H160.786Z" fill="#331ACF"/>
</svg>
