<svg width="310" height="321" viewBox="0 0 310 321" fill="none" xmlns="http://www.w3.org/2000/svg">
<circle cx="277.5" cy="160.5" r="160.5" fill="#1A67FF"/>
<circle cx="38" cy="290" r="27" fill="#331ACF"/>
<path d="M5.78646 30C6.0013 31.3438 6.875 33.0313 8.53646 34.3906C9.35286 35.0625 10.1836 35.5 11 35.6875V36.3438C9.38151 36.7656 7.79167 37.9531 6.77474 39.5625C6.25911 40.375 5.92969 41.1719 5.78646 42H5.1849C4.94141 40.4219 3.82422 38.6719 2.30599 37.5C1.5612 36.9219 0.787761 36.5313 0 36.3438V35.6875C1.58984 35.3281 3.4375 33.7813 4.35417 32.2031C4.8125 31.4063 5.08464 30.6719 5.1849 30H5.78646Z" fill="#1A67FF"/>
<path d="M86.7865 300C87.0013 301.344 87.875 303.031 89.5365 304.391C90.3529 305.063 91.1836 305.5 92 305.688V306.344C90.3815 306.766 88.7917 307.953 87.7747 309.563C87.2591 310.375 86.9297 311.172 86.7865 312H86.1849C85.9414 310.422 84.8242 308.672 83.306 307.5C82.5612 306.922 81.7878 306.531 81 306.344V305.688C82.5898 305.328 84.4375 303.781 85.3542 302.203C85.8125 301.406 86.0846 300.672 86.1849 300H86.7865Z" fill="#CC0256"/>
</svg>
