<svg width="320" height="194" viewBox="0 0 320 194" fill="none" xmlns="http://www.w3.org/2000/svg">
<circle cx="276.5" cy="84.5" r="84.5" fill="#331ACF"/>
<circle cx="31" cy="59" r="52" fill="#1A67FF"/>
<circle cx="107" cy="147" r="34" fill="#CC0256"/>
<circle cx="168.5" cy="40.5" r="12.5" fill="#331ACF"/>
<path d="M102.786 72C103.001 73.3438 103.875 75.0312 105.536 76.3906C106.353 77.0625 107.184 77.5 108 77.6875V78.3438C106.382 78.7656 104.792 79.9531 103.775 81.5625C103.259 82.375 102.93 83.1719 102.786 84H102.185C101.941 82.4219 100.824 80.6719 99.306 79.5C98.5612 78.9219 97.7878 78.5312 97 78.3438V77.6875C98.5898 77.3281 100.438 75.7812 101.354 74.2031C101.813 73.4062 102.085 72.6719 102.185 72H102.786Z" fill="#1A67FF"/>
<path d="M239.786 182C240.001 183.344 240.875 185.031 242.536 186.391C243.353 187.062 244.184 187.5 245 187.688V188.344C243.382 188.766 241.792 189.953 240.775 191.563C240.259 192.375 239.93 193.172 239.786 194H239.185C238.941 192.422 237.824 190.672 236.306 189.5C235.561 188.922 234.788 188.531 234 188.344V187.688C235.59 187.328 237.438 185.781 238.354 184.203C238.813 183.406 239.085 182.672 239.185 182H239.786Z" fill="#331ACF"/>
</svg>
