<svg width="650" height="466" viewBox="0 0 650 466" fill="none" xmlns="http://www.w3.org/2000/svg">
<path fill-rule="evenodd" clip-rule="evenodd" d="M603.633 414.453H323.217C297.689 414.453 276.994 393.758 276.994 368.23C276.994 342.702 297.689 322.008 323.217 322.008H603.633C629.161 322.008 649.855 342.702 649.855 368.23C649.855 393.758 629.161 414.453 603.633 414.453ZM74.772 452.234C57.696 469.31 30.01 469.31 12.934 452.234C-4.14199 435.158 -4.14199 407.472 12.934 390.396L170.399 232.931L12.865 75.397C-4.18299 58.349 -4.18299 30.709 12.865 13.661C29.913 -3.387 57.553 -3.387 74.601 13.661L261.866 200.926C267.825 206.885 271.693 214.139 273.487 221.781C277.666 236.532 273.959 253.047 262.348 264.658L74.772 452.234Z" fill="#F0F0F0"/>
</svg>
