<svg width="1920" height="705" viewBox="0 0 1920 705" fill="none" xmlns="http://www.w3.org/2000/svg">
<g clip-path="url(#clip0_119_3)">
<rect width="1920" height="705" fill="#F3F6FF"/>
<circle cx="269" cy="293" r="293" fill="#CC0256"/>
<circle cx="1801.5" cy="610.5" r="68.5" fill="#1A67FF"/>
<circle cx="1637.5" cy="187.5" r="68.5" fill="#331ACF"/>
<circle cx="80.5" cy="504.5" r="37.5" fill="#331ACF"/>
<path d="M532.729 15C533.276 18.1354 535.5 22.0729 539.729 25.2448C541.807 26.8125 543.922 27.8333 546 28.2708V29.8021C541.88 30.7865 537.833 33.5573 535.245 37.3125C533.932 39.2083 533.094 41.0677 532.729 43H531.198C530.578 39.3177 527.734 35.2344 523.87 32.5C521.974 31.151 520.005 30.2396 518 29.8021V28.2708C522.047 27.4323 526.75 23.8229 529.083 20.1406C530.25 18.2813 530.943 16.5677 531.198 15H532.729Z" fill="#1A67FF"/>
<path d="M1828.73 405C1829.28 408.135 1831.5 412.073 1835.73 415.245C1837.81 416.813 1839.92 417.833 1842 418.271V419.802C1837.88 420.786 1833.83 423.557 1831.24 427.313C1829.93 429.208 1829.09 431.068 1828.73 433H1827.2C1826.58 429.318 1823.73 425.234 1819.87 422.5C1817.97 421.151 1816.01 420.24 1814 419.802V418.271C1818.05 417.432 1822.75 413.823 1825.08 410.141C1826.25 408.281 1826.94 406.568 1827.2 405H1828.73Z" fill="#331ACF"/>
<path d="M1665.73 651C1666.28 654.135 1668.5 658.073 1672.73 661.245C1674.81 662.813 1676.92 663.833 1679 664.271V665.802C1674.88 666.786 1670.83 669.557 1668.24 673.313C1666.93 675.208 1666.09 677.068 1665.73 679H1664.2C1663.58 675.318 1660.73 671.234 1656.87 668.5C1654.97 667.151 1653.01 666.24 1651 665.802V664.271C1655.05 663.432 1659.75 659.823 1662.08 656.141C1663.25 654.281 1663.94 652.568 1664.2 651H1665.73Z" fill="#CC0256"/>
<path d="M1842.73 43C1843.28 46.1354 1845.5 50.0729 1849.73 53.2448C1851.81 54.8125 1853.92 55.8333 1856 56.2708V57.8021C1851.88 58.7865 1847.83 61.5573 1845.24 65.3125C1843.93 67.2083 1843.09 69.0677 1842.73 71H1841.2C1840.58 67.3177 1837.73 63.2344 1833.87 60.5C1831.97 59.151 1830.01 58.2396 1828 57.8021V56.2708C1832.05 55.4323 1836.75 51.8229 1839.08 48.1406C1840.25 46.2813 1840.94 44.5677 1841.2 43H1842.73Z" fill="#1A67FF"/>
<path d="M195.729 647C196.276 650.135 198.5 654.073 202.729 657.245C204.807 658.813 206.922 659.833 209 660.271V661.802C204.88 662.786 200.833 665.557 198.245 669.313C196.932 671.208 196.094 673.068 195.729 675H194.198C193.578 671.318 190.734 667.234 186.87 664.5C184.974 663.151 183.005 662.24 181 661.802V660.271C185.047 659.432 189.75 655.823 192.083 652.141C193.25 650.281 193.943 648.568 194.198 647H195.729Z" fill="#1A67FF"/>
<path d="M1767.73 242C1768.28 245.135 1770.5 249.073 1774.73 252.245C1776.81 253.813 1778.92 254.833 1781 255.271V256.802C1776.88 257.786 1772.83 260.557 1770.24 264.313C1768.93 266.208 1768.09 268.068 1767.73 270H1766.2C1765.58 266.318 1762.73 262.234 1758.87 259.5C1756.97 258.151 1755.01 257.24 1753 256.802V255.271C1757.05 254.432 1761.75 250.823 1764.08 247.141C1765.25 245.281 1765.94 243.568 1766.2 242H1767.73Z" fill="#CC0256"/>
<path d="M1472.73 1C1473.28 4.13542 1475.5 8.07292 1479.73 11.2448C1481.81 12.8125 1483.92 13.8333 1486 14.2708V15.8021C1481.88 16.7865 1477.83 19.5573 1475.24 23.3125C1473.93 25.2083 1473.09 27.0677 1472.73 29H1471.2C1470.58 25.3177 1467.73 21.2344 1463.87 18.5C1461.97 17.151 1460.01 16.2396 1458 15.8021V14.2708C1462.05 13.4323 1466.75 9.82292 1469.08 6.14063C1470.25 4.28125 1470.94 2.56771 1471.2 1H1472.73Z" fill="#331ACF"/>
</g>
<defs>
<clipPath id="clip0_119_3">
<rect width="1920" height="705" fill="white"/>
</clipPath>
</defs>
</svg>
