<svg width="1920" height="2069" viewBox="0 0 1920 2069" fill="none" xmlns="http://www.w3.org/2000/svg">
<g clip-path="url(#clip0_68_94)">
<path d="M922 352.5C922 644.935 684.935 882 392.5 882C100.065 882 -137 644.935 -137 352.5C-137 60.0652 100.065 -177 392.5 -177C684.935 -177 922 60.0652 922 352.5Z" fill="#CC0256"/>
<circle cx="865.5" cy="109.5" r="56.5" fill="#331ACF"/>
<path d="M1349.28 285.512C1348.74 282.416 1346.54 278.528 1342.37 275.396C1340.31 273.848 1338.23 272.84 1336.17 272.408V270.896C1340.24 269.924 1344.24 267.188 1346.79 263.48C1348.09 261.608 1348.92 259.772 1349.28 257.864H1350.79C1351.4 261.5 1354.21 265.532 1358.03 268.232C1359.9 269.564 1361.84 270.464 1363.82 270.896V272.408C1359.83 273.236 1355.18 276.8 1352.88 280.436C1351.73 282.272 1351.04 283.964 1350.79 285.512H1349.28Z" fill="#CC0256"/>
<path d="M1752.28 591.512C1751.74 588.416 1749.54 584.528 1745.37 581.396C1743.31 579.848 1741.23 578.84 1739.17 578.408V576.896C1743.24 575.924 1747.24 573.188 1749.79 569.48C1751.09 567.608 1751.92 565.772 1752.28 563.864H1753.79C1754.4 567.5 1757.21 571.532 1761.03 574.232C1762.9 575.564 1764.84 576.464 1766.82 576.896V578.408C1762.83 579.236 1758.18 582.8 1755.88 586.436C1754.73 588.272 1754.04 589.964 1753.79 591.512H1752.28Z" fill="#1A67FF"/>
<path d="M197.278 451.512C196.738 448.416 194.542 444.528 190.366 441.396C188.314 439.848 186.226 438.84 184.174 438.408V436.896C188.242 435.924 192.238 433.188 194.794 429.48C196.09 427.608 196.918 425.772 197.278 423.864H198.79C199.402 427.5 202.21 431.532 206.026 434.232C207.898 435.564 209.842 436.464 211.822 436.896V438.408C207.826 439.236 203.182 442.8 200.878 446.436C199.726 448.272 199.042 449.964 198.79 451.512H197.278Z" fill="#1A67FF"/>
<path d="M1181.28 54.512C1180.74 51.416 1178.54 47.528 1174.37 44.396C1172.31 42.848 1170.23 41.84 1168.17 41.408V39.896C1172.24 38.924 1176.24 36.188 1178.79 32.48C1180.09 30.608 1180.92 28.772 1181.28 26.864H1182.79C1183.4 30.5 1186.21 34.532 1190.03 37.232C1191.9 38.564 1193.84 39.464 1195.82 39.896V41.408C1191.83 42.236 1187.18 45.8 1184.88 49.436C1183.73 51.272 1183.04 52.964 1182.79 54.512H1181.28Z" fill="#1A67FF"/>
<path d="M905.278 679.512C904.738 676.416 902.542 672.528 898.366 669.396C896.314 667.848 894.226 666.84 892.174 666.408V664.896C896.242 663.924 900.238 661.188 902.794 657.48C904.09 655.608 904.918 653.772 905.278 651.864H906.79C907.402 655.5 910.21 659.532 914.026 662.232C915.898 663.564 917.842 664.464 919.822 664.896V666.408C915.826 667.236 911.182 670.8 908.878 674.436C907.726 676.272 907.042 677.964 906.79 679.512H905.278Z" fill="#1A67FF"/>
<path d="M1475.28 779.512C1474.74 776.416 1472.54 772.528 1468.37 769.396C1466.31 767.848 1464.23 766.84 1462.17 766.408V764.896C1466.24 763.924 1470.24 761.188 1472.79 757.48C1474.09 755.608 1474.92 753.772 1475.28 751.864H1476.79C1477.4 755.5 1480.21 759.532 1484.03 762.232C1485.9 763.564 1487.84 764.464 1489.82 764.896V766.408C1485.83 767.236 1481.18 770.8 1478.88 774.436C1477.73 776.272 1477.04 777.964 1476.79 779.512H1475.28Z" fill="#CC0256"/>
<circle cx="1667" cy="801" r="70" fill="#1A67FF"/>
<path d="M431.278 41.512C430.738 38.416 428.542 34.528 424.366 31.396C422.314 29.848 420.226 28.84 418.174 28.408V26.896C422.242 25.924 426.238 23.188 428.794 19.48C430.09 17.608 430.918 15.772 431.278 13.864H432.79C433.402 17.5 436.21 21.532 440.026 24.232C441.898 25.564 443.842 26.464 445.822 26.896V28.408C441.826 29.236 437.182 32.8 434.878 36.436C433.726 38.272 433.042 39.964 432.79 41.512H431.278Z" fill="#1A67FF"/>
<path d="M254.278 850.512C253.738 847.416 251.542 843.528 247.366 840.396C245.314 838.848 243.226 837.84 241.174 837.408V835.896C245.242 834.924 249.238 832.188 251.794 828.48C253.09 826.608 253.918 824.772 254.278 822.864H255.79C256.402 826.5 259.21 830.532 263.026 833.232C264.898 834.564 266.842 835.464 268.822 835.896V837.408C264.826 838.236 260.182 841.8 257.878 845.436C256.726 847.272 256.042 848.964 255.79 850.512H254.278Z" fill="#1A67FF"/>
</g>
<defs>
<clipPath id="clip0_68_94">
<rect width="1920" height="2069" fill="white"/>
</clipPath>
</defs>
</svg>
